<svg width="70" height="62" viewBox="0 0 70 62" fill="none" xmlns="http://www.w3.org/2000/svg">
<path d="M68.0556 3.875H66.1111C65.0368 3.875 64.1667 4.74203 64.1667 5.8125V7.37945L5.74583 20.8778C5.54288 20.0241 4.80764 19.375 3.88889 19.375H1.94444C0.870139 19.375 0 20.242 0 21.3125V40.6875C0 41.758 0.870139 42.625 1.94444 42.625H3.88889C4.80764 42.625 5.54288 41.9759 5.74583 41.1222L19.7227 44.3518C19.5806 45.0517 19.4457 45.7565 19.4457 46.5C19.4457 52.9204 24.6689 58.125 31.1123 58.125C36.4826 58.125 40.9549 54.4934 42.3026 49.5685L64.1667 54.6205V56.1875C64.1667 57.258 65.0368 58.125 66.1111 58.125H68.0556C69.1299 58.125 70 57.258 70 56.1875V5.8125C70 4.74203 69.1299 3.875 68.0556 3.875ZM31.1111 52.3125C27.8943 52.3125 25.2778 49.7054 25.2778 46.5C25.2778 46.207 25.3872 45.9502 25.4297 45.6705L36.6406 48.2607C35.8872 50.6014 33.7082 52.3125 31.1111 52.3125ZM5.83333 35.1777V26.8223L64.1667 13.3433V48.6555L5.83333 35.1777Z" fill="white"/>
</svg>
