<svg width="77" height="62" viewBox="0 0 77 62" fill="none" xmlns="http://www.w3.org/2000/svg">
<path d="M65.45 27.125C70.7678 27.125 75.075 22.7898 75.075 17.4375C75.075 12.0852 70.7678 7.75 65.45 7.75C60.1322 7.75 55.825 12.0852 55.825 17.4375C55.825 22.7898 60.1322 27.125 65.45 27.125ZM65.45 13.5625C67.5675 13.5625 69.3 15.3062 69.3 17.4375C69.3 19.5688 67.5675 21.3125 65.45 21.3125C63.3325 21.3125 61.6 19.5688 61.6 17.4375C61.6 15.3062 63.3325 13.5625 65.45 13.5625ZM11.55 27.125C16.8678 27.125 21.175 22.7898 21.175 17.4375C21.175 12.0852 16.8678 7.75 11.55 7.75C6.23219 7.75 1.925 12.0852 1.925 17.4375C1.925 22.7898 6.23219 27.125 11.55 27.125ZM11.55 13.5625C13.6675 13.5625 15.4 15.3062 15.4 17.4375C15.4 19.5688 13.6675 21.3125 11.55 21.3125C9.4325 21.3125 7.7 19.5688 7.7 17.4375C7.7 15.3062 9.4325 13.5625 11.55 13.5625ZM59.2419 39.1012C55.9333 34.1605 49.5327 32.3199 43.8659 34.0516C42.1575 34.5723 40.3648 34.8629 38.488 34.8629C36.6111 34.8629 34.8184 34.5723 33.11 34.0516C27.4433 32.3199 21.0427 34.1484 17.7341 39.1012C16.2422 41.3293 15.3759 44.0055 15.3759 46.8875V52.3125C15.3759 55.5215 17.9627 58.125 21.1509 58.125H55.8009C58.9892 58.125 61.5759 55.5215 61.5759 52.3125V46.8875C61.6 44.0055 60.7337 41.3293 59.2419 39.1012ZM55.825 52.3125H21.175V46.8875C21.175 42.4797 24.6881 38.8711 29.0434 38.75C32.1114 40.0336 35.2877 40.6875 38.5 40.6875C41.7123 40.6875 44.8886 40.0336 47.9566 38.75C52.3119 38.8711 55.825 42.4676 55.825 46.8875V52.3125ZM66.8937 31H64.0062C61.9248 31 59.9878 31.6418 58.3756 32.7316C59.9878 33.9547 61.4075 35.4199 62.5144 37.1152C62.9836 36.9457 63.4769 36.8125 63.9942 36.8125H66.8817C69.2639 36.8125 71.213 38.7742 71.213 41.1719C71.213 42.7703 72.5123 44.0781 74.1005 44.0781C75.6886 44.0781 76.988 42.7703 76.988 41.1719C77 35.5652 72.4642 31 66.8937 31ZM38.5 31C45.9473 31 51.975 24.9332 51.975 17.4375C51.975 9.9418 45.9473 3.875 38.5 3.875C31.0527 3.875 25.025 9.9418 25.025 17.4375C25.025 24.9332 31.0527 31 38.5 31ZM38.5 9.6875C42.747 9.6875 46.2 13.1629 46.2 17.4375C46.2 21.7121 42.747 25.1875 38.5 25.1875C34.253 25.1875 30.8 21.7121 30.8 17.4375C30.8 13.1629 34.253 9.6875 38.5 9.6875ZM18.6244 32.7316C17.0122 31.6418 15.0752 31 12.9937 31H10.1062C4.53578 31 0 35.5652 0 41.1719C0 42.7703 1.29937 44.0781 2.8875 44.0781C4.47563 44.0781 5.775 42.7703 5.775 41.1719C5.775 38.7742 7.72406 36.8125 10.1062 36.8125H12.9937C13.5231 36.8125 14.0164 36.9457 14.4736 37.1152C15.5925 35.4199 17.0122 33.9547 18.6244 32.7316Z" fill="white"/>
</svg>
