<svg width="15" height="24" viewBox="0 0 15 24" fill="none" xmlns="http://www.w3.org/2000/svg">
<g clip-path="url(#clip0)">
<path d="M9.73127 12.0001L14.7806 6.95074C15.0727 6.65871 15.0727 6.1848 14.7806 5.8923L13.6074 4.71902C13.3153 4.42699 12.8414 4.42699 12.5489 4.71902L7.50001 9.76887L2.45064 4.71949C2.15861 4.42746 1.6847 4.42746 1.3922 4.71949L0.21939 5.8923C-0.0726416 6.18434 -0.0726416 6.65824 0.21939 6.95074L5.26876 12.0001L0.21939 17.0495C-0.0726416 17.3415 -0.0726416 17.8154 0.21939 18.1079L1.39267 19.2812C1.6847 19.5732 2.15861 19.5732 2.45111 19.2812L7.50001 14.2314L12.5494 19.2807C12.8414 19.5728 13.3153 19.5728 13.6078 19.2807L14.7811 18.1075C15.0731 17.8154 15.0731 17.3415 14.7811 17.049L9.73127 12.0001Z" fill="#364152"/>
</g>
<defs>
<clipPath id="clip0">
<rect width="15" height="24" fill="white"/>
</clipPath>
</defs>
</svg>
