<svg width="64" height="64" viewBox="0 0 64 64" fill="none" xmlns="http://www.w3.org/2000/svg">
<path d="M31.6832 64C14.2136 64 0 49.6466 0 32H1.94973C1.94973 48.5684 15.2859 62.0485 31.6832 62.0485C48.0804 62.0485 61.4166 48.5684 61.4166 32C61.4166 15.4316 48.0804 1.95152 31.6832 1.95152V0C49.1528 0 63.3663 14.3534 63.3663 32C63.3663 49.6466 49.1528 64 31.6832 64Z" fill="#364152"/>
<path d="M1.94973 32.0002H0C0 31.6635 0.00487433 31.3269 0.014623 30.9951L1.96436 31.0537C1.95461 31.3659 1.94973 31.683 1.94973 32.0002Z" fill="#97A6BA"/>
<path d="M2.08647 29.0972L0.146484 28.9118C0.209851 28.2239 0.302463 27.5263 0.409698 26.8432L2.33506 27.1506C2.2327 27.7946 2.14984 28.4484 2.08647 29.0972ZM2.70551 25.2284L0.804519 24.7941C0.960498 24.116 1.13597 23.4378 1.33582 22.7743L3.20269 23.3305C3.01747 23.955 2.85174 24.5941 2.70551 25.2284ZM3.82661 21.4717L1.99873 20.7935C2.23757 20.1447 2.50566 19.4909 2.78837 18.8615L4.5675 19.6568C4.29942 20.252 4.05083 20.8618 3.82661 21.4717ZM5.42539 17.8907L3.69987 16.9783C4.02158 16.3685 4.37253 15.7537 4.73323 15.1634L6.39538 16.1831C6.05418 16.7441 5.7276 17.3198 5.42539 17.8907ZM7.47261 14.5536L5.8787 13.4266C6.2784 12.8606 6.70246 12.3044 7.13628 11.7629L8.6522 12.9923C8.24275 13.4997 7.84793 14.0218 7.47261 14.5536ZM9.93902 11.5092L8.50597 10.187C8.9739 9.67965 9.46621 9.18201 9.96827 8.69901L11.3136 10.1139C10.8408 10.5627 10.3777 11.0311 9.93902 11.5092ZM12.7759 8.81122L11.5281 7.31343C12.0594 6.86946 12.615 6.44013 13.1707 6.03031L14.3162 7.60616C13.7946 7.98671 13.2731 8.39165 12.7759 8.81122ZM15.9393 6.50843L14.9011 4.8594C15.486 4.48861 16.0904 4.13734 16.6997 3.80558L17.6307 5.51804C17.0507 5.8254 16.4852 6.16204 15.9393 6.50843ZM19.3757 4.63986L18.5617 2.86885C19.1905 2.58101 19.8388 2.30779 20.4822 2.05898L21.1792 3.88364C20.5699 4.11295 19.9655 4.36664 19.3757 4.63986ZM23.0217 3.24452L22.4514 1.38082C23.1143 1.17591 23.7919 0.995398 24.4645 0.834398L24.9081 2.73225C24.2793 2.88349 23.6408 3.05425 23.0217 3.24452ZM26.8286 2.3517L26.5118 0.42458C27.1942 0.312367 27.8912 0.21967 28.5785 0.151367L28.7686 2.09313C28.1203 2.15655 27.4671 2.24437 26.8286 2.3517Z" fill="#97A6BA"/>
<path d="M30.7372 1.96615L30.6787 0.0146364C31.0102 0.00487879 31.3465 0 31.6828 0V1.95152C31.366 1.95152 31.054 1.9564 30.7372 1.96615Z" fill="#97A6BA"/>
<path d="M39.4432 47.2902L31.6833 39.4549L23.9233 47.2902L16.5485 39.8403L24.3084 32.0001L16.5485 24.1648L23.9233 16.71L31.6833 24.5502L39.4432 16.7148L46.8181 24.1696L39.0581 32.0001L46.8181 39.8403L39.4432 47.2902ZM19.2927 39.8403L23.9233 44.5191L31.6833 36.6789L39.4432 44.5142L44.0738 39.8354L36.3139 32.0001L44.0738 24.1648L39.4432 19.486L31.6833 27.3213L23.9233 19.486L19.2927 24.1648L27.0527 32.0001L19.2927 39.8403Z" fill="#364152"/>
</svg>
