<svg width="15" height="24" viewBox="0 0 15 24" fill="none" xmlns="http://www.w3.org/2000/svg">
<path d="M14.0764 15.3516L13.1576 14.4328C12.9326 14.2078 12.5717 14.2125 12.3561 14.4422L8.71855 18.225V2.0625C8.71855 1.75313 8.46543 1.5 8.15605 1.5H6.84355C6.53418 1.5 6.28105 1.75313 6.28105 2.0625V18.225L2.64824 14.4422C2.42793 14.2172 2.06699 14.2125 1.84668 14.4328L0.92793 15.3516C0.707617 15.5719 0.707617 15.9281 0.92793 16.1484L7.10606 22.3266C7.32637 22.5469 7.68262 22.5469 7.90293 22.3266L14.0811 16.1484C14.2967 15.9281 14.2967 15.5719 14.0764 15.3516Z" fill="#97A6BA"/>
</svg>
