<svg width="178" height="167" viewBox="0 0 178 167" fill="none" xmlns="http://www.w3.org/2000/svg">
<g clip-path="url(#clip0)">
<path d="M150.192 80.5068H149.053V84.5843H150.192V80.5068Z" fill="#64748B"/>
<path d="M155.904 85.9736H151.926V87.119H155.904V85.9736Z" fill="#64748B"/>
<path d="M150.192 89.0439H149.053V92.8999H150.192V89.0439Z" fill="#64748B"/>
<path d="M147.435 85.9736H143.229V87.119H147.435V85.9736Z" fill="#64748B"/>
<path d="M85.3099 65.7585H0V33.5361H1.13893V64.6132H84.1709V33.5361H85.3099V65.7585Z" fill="#CFD8E3"/>
<path d="M78.2983 21.6777H73.1465V22.8231H78.2983V21.6777Z" fill="#64748B"/>
<path d="M85.3099 28.6341H0V15.1992H85.3099V28.6341ZM1.13893 27.4888H84.1709V16.3446H1.13893V27.4888Z" fill="#64748B"/>
<path d="M11.6292 56.7336L10.8281 55.9165L19.0588 47.7731L10.961 39.4961L11.7734 38.6943L20.6723 47.7884L11.6292 56.7336Z" fill="#64748B"/>
<path d="M36.9243 55.752H23.7051V56.8973H36.9243V55.752Z" fill="#64748B"/>
<path d="M46.8944 101.405H14.207V71.2598H46.8944V72.4051H15.346V100.26H46.8944V101.405Z" fill="#CFD8E3"/>
<path d="M44.1947 80.6629H42.6761V79.5176H44.1947V80.6629ZM41.1575 80.6629H39.6389V79.5176H41.1575V80.6629ZM38.1204 80.6629H36.6018V79.5176H38.1204V80.6629ZM35.0832 80.6629H33.5646V79.5176H35.0832V80.6629ZM32.0461 80.6629H30.5275V79.5176H32.0461V80.6629ZM29.0089 80.6629H27.4903V79.5176H29.0089V80.6629ZM25.9717 80.6629H24.4532V79.5176H25.9717V80.6629ZM22.9346 80.6629H21.416V79.5176H22.9346V80.6629Z" fill="#CFD8E3"/>
<path d="M44.3646 86.9051H42.846V85.7598H44.3646V86.9051ZM41.3274 86.9051H39.8088V85.7598H41.3274V86.9051ZM38.2902 86.9051H36.7717V85.7598H38.2902V86.9051ZM35.2531 86.9051H33.7345V85.7598H35.2531V86.9051ZM32.2159 86.9051H30.6974V85.7598H32.2159V86.9051ZM29.1788 86.9051H27.6602V85.7598H29.1788V86.9051ZM26.1416 86.9051H24.623V85.7598H26.1416V86.9051Z" fill="#CFD8E3"/>
<path d="M44.7632 92.002H30.2949V93.1473H44.7632V92.002Z" fill="#CFD8E3"/>
<path d="M9.52175 71.833H8.38281V100.833H9.52175V71.833Z" fill="#CFD8E3"/>
<path d="M126.015 50.3297L116.797 40.9074L126.166 31.6377L126.964 32.4547L118.407 40.9226L126.827 49.528L126.015 50.3297Z" fill="#64748B"/>
<path d="M148.319 50.3376L147.521 49.5206L156.079 41.0526L147.658 32.4472L148.471 31.6455L157.688 41.0679L148.319 50.3376Z" fill="#64748B"/>
<path d="M141.089 27.4915L132.303 54.1133L133.384 54.4741L142.17 27.8522L141.089 27.4915Z" fill="#64748B"/>
<path d="M115.38 22.823L114.253 22.6703L116.379 6.64687L100.441 4.50889L100.589 3.375L117.658 5.66187L115.38 22.823Z" fill="#CFD8E3"/>
<path d="M104.595 65.5292C99.288 58.4013 96.4824 49.9143 96.4824 40.9882C96.4824 27.0112 103.46 14.1337 115.15 6.54004L115.768 7.50213C104.406 14.8858 97.6251 27.4044 97.6251 40.9882C97.6251 49.6662 100.351 57.9165 105.51 64.8458L104.595 65.5292Z" fill="#CFD8E3"/>
<path d="M173.895 78.6013L156.826 76.3144L159.104 59.1533L160.232 59.3022L158.106 75.3294L174.043 77.4674L173.895 78.6013Z" fill="#CFD8E3"/>
<path d="M159.336 75.4363L158.717 74.4743C170.08 67.0906 176.86 54.5719 176.86 40.9881C176.86 19.0204 159.089 1.14535 137.244 1.14535V0C159.719 0 178.003 18.3866 178.003 40.9881C177.999 54.9652 171.021 67.8427 159.336 75.4363Z" fill="#CFD8E3"/>
<path d="M114.337 65.0826C113.965 64.7237 113.596 64.3534 113.247 63.9831L114.071 63.1928C114.409 63.5516 114.766 63.9067 115.126 64.2541L114.337 65.0826ZM112.207 62.8339C111.869 62.4445 111.539 62.0398 111.22 61.6389L112.116 60.9288C112.419 61.3182 112.742 61.7076 113.065 62.0856L112.207 62.8339ZM110.293 60.3981C109.994 59.982 109.701 59.5506 109.424 59.1153L110.381 58.493C110.65 58.913 110.935 59.3291 111.224 59.7338L110.293 60.3981ZM108.608 57.7905C108.346 57.3439 108.095 56.8857 107.86 56.4314L108.87 55.9007C109.098 56.3398 109.341 56.7788 109.591 57.2141L108.608 57.7905ZM107.177 55.0417C106.96 54.5759 106.751 54.0949 106.558 53.6177L107.613 53.1824C107.799 53.6444 108 54.1063 108.209 54.5569L107.177 55.0417ZM106.007 52.1669C105.833 51.6744 105.669 51.1781 105.525 50.6932L106.615 50.3611C106.755 50.8307 106.915 51.3117 107.082 51.7851L106.007 52.1669ZM105.108 49.1928C104.982 48.6965 104.868 48.1849 104.762 47.6771L105.878 47.4481C105.977 47.9368 106.091 48.4293 106.212 48.9103L105.108 49.1928ZM104.492 46.15C104.413 45.6461 104.348 45.1268 104.291 44.6114L105.423 44.4893C105.476 44.9894 105.544 45.4895 105.616 45.9744L104.492 46.15ZM104.158 43.0652C104.128 42.546 104.105 42.0268 104.098 41.5152L105.237 41.4961C105.244 41.9924 105.263 42.4964 105.294 42.9965L104.158 43.0652Z" fill="#CFD8E3"/>
<path d="M169.233 39.9197C169.218 39.4234 169.187 38.9194 169.149 38.4231L170.284 38.3315C170.326 38.8469 170.353 39.3661 170.372 39.8815L169.233 39.9197ZM168.997 36.9303C168.937 36.4378 168.861 35.9377 168.777 35.4452L169.897 35.2505C169.985 35.7583 170.06 36.2737 170.125 36.7853L168.997 36.9303ZM168.489 33.9792C168.382 33.4905 168.261 33.0018 168.132 32.5246L169.229 32.223C169.362 32.7193 169.487 33.227 169.597 33.731L168.489 33.9792ZM167.707 31.0852C167.555 30.608 167.388 30.1308 167.213 29.6688L168.28 29.268C168.458 29.749 168.629 30.2415 168.789 30.734L167.707 31.0852ZM166.659 28.2791C166.469 27.8286 166.26 27.3705 166.04 26.92L167.065 26.4199C167.293 26.8895 167.509 27.3629 167.707 27.8286L166.659 28.2791ZM165.357 25.5876C165.121 25.1524 164.871 24.7133 164.613 24.2895L165.584 23.6939C165.85 24.133 166.108 24.5873 166.355 25.0378L165.357 25.5876ZM163.808 23.0296C163.531 22.6173 163.242 22.205 162.946 21.8041L163.861 21.1207C164.165 21.5331 164.465 21.9607 164.753 22.3882L163.808 23.0296ZM162.031 20.6244C161.716 20.2388 161.389 19.8532 161.059 19.4867L161.906 18.7193C162.247 19.1011 162.585 19.4982 162.912 19.899L162.031 20.6244ZM160.038 18.3948C159.692 18.0436 159.332 17.6923 158.967 17.3525L159.742 16.5126C160.118 16.8639 160.493 17.2266 160.85 17.5931L160.038 18.3948ZM157.847 16.3561C157.471 16.0392 157.08 15.7223 156.686 15.4169L157.377 14.5083C157.787 14.8251 158.193 15.1497 158.58 15.4818L157.847 16.3561ZM155.478 14.5312C155.072 14.2487 154.651 13.97 154.233 13.7027L154.841 12.733C155.273 13.0079 155.71 13.2942 156.131 13.5882L155.478 14.5312ZM152.95 12.9353C152.517 12.691 152.073 12.4505 151.633 12.229L152.145 11.2058C152.604 11.4387 153.064 11.6831 153.508 11.9389L152.95 12.9353ZM150.285 11.5838C149.829 11.3815 149.366 11.1829 148.907 11.0035L149.321 9.93833C149.799 10.1254 150.277 10.3277 150.748 10.5377L150.285 11.5838ZM147.502 10.4881C147.031 10.3277 146.553 10.1789 146.078 10.0414L146.393 8.94188C146.887 9.08314 147.381 9.23967 147.866 9.40384L147.502 10.4881ZM144.636 9.66345C144.154 9.54891 143.66 9.44583 143.178 9.3542L143.387 8.22795C143.888 8.32339 144.397 8.43029 144.898 8.54864L144.636 9.66345ZM141.705 9.10986C141.215 9.04114 140.718 8.98388 140.224 8.93806L140.331 7.79653C140.843 7.84616 141.359 7.90343 141.864 7.97597L141.705 9.10986ZM138.732 8.83498C138.239 8.81207 137.738 8.80062 137.24 8.80062V7.65527C137.757 7.65527 138.273 7.66673 138.785 7.68963L138.732 8.83498Z" fill="#CFD8E3"/>
<path d="M152.427 130.776H142.871V131.922H152.427V130.776Z" fill="#CFD8E3"/>
<path d="M166.287 166.114H98.8398V151.263H99.9788V164.969H165.148V114.173H166.287V166.114Z" fill="#CFD8E3"/>
<path d="M160.642 104.074H156.584V105.22H160.642V104.074Z" fill="#CFD8E3"/>
<path d="M166.287 111.003H142.867V109.858H165.149V100.115H143.228V98.9697H166.287V111.003Z" fill="#CFD8E3"/>
<path d="M160.961 159.757H157.598V160.902H160.961V159.757Z" fill="#CFD8E3"/>
<path d="M154.966 159.757H99.4316V160.902H154.966V159.757Z" fill="#CFD8E3"/>
<path d="M40.1602 130.96L33.1406 123.786L33.9531 122.984L40.1716 129.341L46.4965 123.084L47.2938 123.901L40.1602 130.96Z" fill="#64748B"/>
<path d="M20.2284 151.835C16.7281 151.835 13.877 148.972 13.877 145.448C13.877 141.928 16.7243 139.061 20.2284 139.061C23.7287 139.061 26.5799 141.924 26.5799 145.448C26.5799 148.972 23.7287 151.835 20.2284 151.835ZM20.2284 140.206C17.3545 140.206 15.0159 142.558 15.0159 145.448C15.0159 148.338 17.3545 150.69 20.2284 150.69C23.1023 150.69 25.4409 148.338 25.4409 145.448C25.4409 142.558 23.1023 140.206 20.2284 140.206Z" fill="#64748B"/>
<path d="M10.9081 118.452C7.40777 118.452 4.55664 115.589 4.55664 112.065C4.55664 108.545 7.40397 105.678 10.9081 105.678C14.4084 105.678 17.2595 108.541 17.2595 112.065C17.2557 115.585 14.4084 118.452 10.9081 118.452ZM10.9081 106.823C8.03418 106.823 5.69557 109.175 5.69557 112.065C5.69557 114.955 8.03418 117.307 10.9081 117.307C13.782 117.307 16.1206 114.955 16.1206 112.065C16.1168 109.175 13.7782 106.823 10.9081 106.823Z" fill="#64748B"/>
<path d="M12.9205 112.065C12.9205 113.184 12.0169 114.093 10.9046 114.093C9.79223 114.093 8.88867 113.184 8.88867 112.065C8.88867 110.947 9.79223 110.038 10.9046 110.038C12.0207 110.038 12.9205 110.947 12.9205 112.065Z" fill="#64748B"/>
<path d="M57.4943 166.679C59.6162 166.679 61.3363 164.95 61.3363 162.816C61.3363 160.682 59.6162 158.952 57.4943 158.952C55.3725 158.952 53.6523 160.682 53.6523 162.816C53.6523 164.95 55.3725 166.679 57.4943 166.679Z" fill="#64748B"/>
<path d="M84.7717 166.679C86.8936 166.679 88.6137 164.95 88.6137 162.816C88.6137 160.682 86.8936 158.952 84.7717 158.952C82.6498 158.952 80.9297 160.682 80.9297 162.816C80.9297 164.95 82.6498 166.679 84.7717 166.679Z" fill="#64748B"/>
<path d="M41.8566 144.875H30.1445V146.02H41.8566V144.875Z" fill="#64748B"/>
<path d="M55.9529 163.575C46.196 163.575 42.4755 157.153 39.4877 151.991C37.5553 148.655 36.0292 146.02 33.459 146.02V144.875C36.686 144.875 38.4399 147.906 40.471 151.415C43.3145 156.321 46.849 162.429 55.9529 162.429V163.575Z" fill="#64748B"/>
<path d="M78.4739 163.193H63.7969V164.339H78.4739V163.193Z" fill="#64748B"/>
<path d="M40.7896 130.15H39.6507V120.663C39.6507 116.238 36.0706 112.638 31.6705 112.638H20.8203V111.492H31.6705C36.697 111.492 40.7896 115.608 40.7896 120.663V130.15Z" fill="#64748B"/>
<path d="M112.637 72.7871H141.638V137.69H133.825V83.3358H121.467C121.471 83.3358 115.514 74.9213 112.637 72.7871Z" fill="#64748B"/>
<path d="M82.1332 71.833H53.6523V137.69H63.0371V81.4463H75.554C75.5578 81.4463 77.9344 75.0858 82.1332 71.833Z" fill="#64748B"/>
<path d="M111.882 96.549C111.882 87.9933 104.718 81.1212 96.0925 81.6671C88.7844 82.1329 82.8163 88.0582 82.2697 95.4037C82.0153 98.8092 82.8999 101.993 84.5817 104.612C87.1747 108.659 88.716 113.294 88.716 118.108V122.186L105.77 118.131V116.875C105.77 112.156 106.977 108.587 109.524 104.624C111.016 102.295 111.882 99.5231 111.882 96.549Z" fill="#64748B"/>
<path d="M85.044 120.269V115.466C85.044 110.969 83.647 106.407 81.0008 102.28C79.1785 99.4353 78.3471 96.1252 78.6015 92.7159C79.171 85.0688 85.3402 78.9374 92.9558 78.4525C97.2648 78.1815 101.357 79.659 104.489 82.614C107.58 85.5308 109.349 89.6464 109.349 93.9033C109.349 96.8926 108.502 99.7904 106.896 102.287C104.296 106.338 103.233 109.797 103.233 114.229V115.94L85.044 120.269ZM93.9619 79.5712C93.6506 79.5712 93.3393 79.5826 93.028 79.6017C85.978 80.0484 80.2643 85.7255 79.7366 92.8076C79.5012 95.9687 80.2719 99.0306 81.9575 101.665C84.7214 105.979 86.183 110.751 86.183 115.47V118.822L102.098 115.039V114.237C102.098 109.564 103.21 105.926 105.943 101.673C107.428 99.3589 108.214 96.675 108.214 93.9071C108.214 89.906 106.615 86.1913 103.711 83.4501C101.038 80.9303 97.6065 79.5712 93.9619 79.5712Z" fill="#64748B"/>
<path d="M87.283 89.2913L86.3984 88.5697C86.7325 88.1574 87.1008 87.7604 87.488 87.3977L88.2663 88.2338C87.917 88.5659 87.5867 88.921 87.283 89.2913ZM89.3824 87.3251L88.7295 86.3859C89.1623 86.0805 89.6216 85.8018 90.0924 85.5575L90.6125 86.5768C90.1873 86.7944 89.7735 87.0464 89.3824 87.3251ZM91.9375 86.008L91.5616 84.9275C92.0627 84.7519 92.5829 84.6106 93.103 84.5076L93.3232 85.63C92.8524 85.7216 92.3892 85.8476 91.9375 86.008ZM94.7354 85.4506L94.7013 84.3052C95.0202 84.2938 95.8364 84.29 96.2122 84.2861L96.2464 85.4315C95.8516 85.4391 95.0505 85.4429 94.7354 85.4506Z" fill="#64748B"/>
<path d="M84.9984 95.0483L83.8633 94.9643C84.0379 92.6201 84.9149 90.4096 86.3993 88.5732L87.2839 89.2948C85.9475 90.9479 85.1579 92.937 84.9984 95.0483Z" fill="#64748B"/>
<path d="M111.105 105.792L110.416 106.704L114.181 109.578L114.869 108.666L111.105 105.792Z" fill="#64748B"/>
<path d="M114.757 94.0049L114.713 95.1494L119.436 95.3316L119.48 94.187L114.757 94.0049Z" fill="#64748B"/>
<path d="M115.002 79.6811L111.029 82.2559L111.646 83.2186L115.619 80.6438L115.002 79.6811Z" fill="#64748B"/>
<path d="M103.053 70.3725L101.268 74.7734L102.322 75.206L104.107 70.8051L103.053 70.3725Z" fill="#64748B"/>
<path d="M89.0697 69.387L87.959 69.6406L89.0055 74.2759L90.1161 74.0224L89.0697 69.387Z" fill="#64748B"/>
<path d="M75.937 76.8938L75.1719 77.7422L78.6728 80.9354L79.438 80.087L75.937 76.8938Z" fill="#64748B"/>
<path d="M69.4638 90.6118L69.3203 91.748L74.0099 92.3414L74.1534 91.2052L69.4638 90.6118Z" fill="#64748B"/>
<path d="M76.1718 103.373L71.9902 105.589L72.5211 106.602L76.7027 104.387L76.1718 103.373Z" fill="#64748B"/>
<path d="M102.532 121.193L85.4805 125.242L85.7422 126.357L102.793 122.308L102.532 121.193Z" fill="#64748B"/>
<path d="M93.9541 132.035C91.7902 132.035 89.7591 131.096 88.6543 129.584L89.573 128.904C90.469 130.13 92.147 130.89 93.9541 130.89C95.7612 130.89 97.4393 130.13 98.3352 128.904L99.254 129.584C98.1492 131.096 96.1181 132.035 93.9541 132.035Z" fill="#64748B"/>
<path d="M138.86 134.09H137.721V70.3055H110.436V69.1602H138.86V134.09Z" fill="#64748B"/>
<path d="M51.2405 134.09H50.1016V69.1602H82.1322V70.3055H51.2405V134.09Z" fill="#64748B"/>
<path d="M136.388 149.85H52.4633C47.5925 149.85 43.6328 145.864 43.6328 140.965V137.113H145.222V140.965C145.222 145.864 141.258 149.85 136.388 149.85ZM44.7679 138.262V140.969C44.7679 145.234 48.2189 148.708 52.4595 148.708H136.384C140.624 148.708 144.079 145.238 144.079 140.969V138.262H44.7679Z" fill="#64748B"/>
<path d="M131.801 133.842H130.662V77.9647H119.242V76.8193H131.801V133.842Z" fill="#64748B"/>
<path d="M58.0549 133.842H56.916V76.8193H71.3729V77.9647H58.0549V133.842Z" fill="#64748B"/>
<path d="M106.715 142.615H82.1328V143.761H106.715V142.615Z" fill="#64748B"/>
</g>
<defs>
<clipPath id="clip0">
<rect width="178" height="166.678" fill="white"/>
</clipPath>
</defs>
</svg>
