<svg xmlns="http://www.w3.org/2000/svg" viewBox="0 0 318.5 319"><defs><style>.cls-1,.cls-7{fill:none;stroke-miterlimit:10;}.cls-1{stroke:#65748b;}.cls-2{fill:#1a1f2d;}.cls-3{fill:#65748b;}.cls-4{fill:#cfd8e3;}.cls-5{fill:#364152;}.cls-6{fill:#eb5c2b;}.cls-7{stroke:#eb5c2b;}</style></defs><title>Asset 5</title><g id="Layer_2" data-name="Layer 2"><g id="Layer_1-2" data-name="Layer 1"><path class="cls-1" d="M.5,80H80A79.5,79.5,0,0,0,.5.5h0Z"/><path class="cls-2" d="M149.42,37.93h37.44V.5h0A37.43,37.43,0,0,0,149.42,37.93Z"/><path class="cls-3" d="M186.86,37.93h37.43A37.43,37.43,0,0,0,186.86.5h0Z"/><path class="cls-4" d="M80,239V159.5H.5A79.5,79.5,0,0,0,80,239Z"/><path class="cls-4" d="M239,318.5h79.5V239h0A79.5,79.5,0,0,0,239,318.5Z"/><polygon class="cls-5" points="272.57 22.24 262.49 22.24 267.53 31.3 272.57 22.24"/><polygon class="cls-5" points="272.57 4.63 262.49 4.63 267.53 13.69 272.57 4.63"/><path class="cls-5" d="M237.83,4.63h-9.94l-.09.09,5,9Z"/><polygon class="cls-5" points="272.57 39.85 262.49 39.85 267.53 48.91 272.57 39.85"/><polygon class="cls-5" points="255.2 22.24 245.13 22.24 250.16 31.3 255.2 22.24"/><polygon class="cls-5" points="255.2 4.63 245.13 4.63 250.16 13.69 255.2 4.63"/><polygon class="cls-5" points="307.3 39.85 297.23 39.85 302.27 48.91 307.3 39.85"/><polygon class="cls-5" points="307.3 57.46 297.23 57.46 302.27 66.52 307.3 57.46"/><polygon class="cls-5" points="307.3 75.07 297.23 75.07 302.27 84.13 307.3 75.07"/><polygon class="cls-5" points="289.94 57.46 279.86 57.46 284.9 66.52 289.94 57.46"/><polygon class="cls-5" points="289.94 4.63 279.86 4.63 284.9 13.69 289.94 4.63"/><polygon class="cls-5" points="289.94 22.24 279.86 22.24 284.9 31.3 289.94 22.24"/><polygon class="cls-5" points="289.94 39.85 279.86 39.85 284.9 48.91 289.94 39.85"/><polygon class="cls-5" points="307.3 4.63 297.23 4.63 302.27 13.69 307.3 4.63"/><polygon class="cls-5" points="307.3 22.24 297.23 22.24 302.27 31.3 307.3 22.24"/><polygon class="cls-2" points="124.77 177.11 114.69 177.11 119.73 186.17 124.77 177.11"/><polygon class="cls-2" points="124.77 159.5 114.69 159.5 119.73 168.56 124.77 159.5"/><path class="cls-2" d="M90,159.5H80.09l-.09.08,5,9Z"/><polygon class="cls-2" points="124.77 194.72 114.69 194.72 119.73 203.78 124.77 194.72"/><polygon class="cls-2" points="107.4 177.11 97.32 177.11 102.36 186.17 107.4 177.11"/><polygon class="cls-2" points="107.4 159.5 97.32 159.5 102.36 168.56 107.4 159.5"/><polygon class="cls-2" points="159.5 194.72 149.42 194.72 154.46 203.78 159.5 194.72"/><polygon class="cls-2" points="159.5 212.33 149.42 212.33 154.46 221.39 159.5 212.33"/><polygon class="cls-2" points="159.5 229.94 149.42 229.94 154.46 239 159.5 229.94"/><polygon class="cls-2" points="142.13 212.33 132.06 212.33 137.09 221.39 142.13 212.33"/><polygon class="cls-2" points="142.13 159.5 132.06 159.5 137.09 168.56 142.13 159.5"/><polygon class="cls-2" points="142.13 177.11 132.06 177.11 137.09 186.17 142.13 177.11"/><polygon class="cls-2" points="142.13 194.72 132.06 194.72 137.09 203.78 142.13 194.72"/><polygon class="cls-2" points="159.5 159.5 149.42 159.5 154.46 168.56 159.5 159.5"/><polygon class="cls-2" points="159.5 177.11 149.42 177.11 154.46 186.17 159.5 177.11"/><polygon class="cls-6" points="114.73 62.39 124.81 62.39 119.77 53.33 114.73 62.39"/><polygon class="cls-6" points="114.73 80 124.81 80 119.77 70.94 114.73 80"/><path class="cls-6" d="M149.47,80h9.94l.09-.08-5-9Z"/><polygon class="cls-6" points="114.73 44.78 124.81 44.78 119.77 35.72 114.73 44.78"/><polygon class="cls-6" points="132.1 62.39 142.18 62.39 137.14 53.33 132.1 62.39"/><polygon class="cls-6" points="132.1 80 142.18 80 137.14 70.94 132.1 80"/><polygon class="cls-6" points="80 44.78 90.08 44.78 85.04 35.72 80 44.78"/><polygon class="cls-6" points="80 27.17 90.08 27.17 85.04 18.11 80 27.17"/><polygon class="cls-6" points="80 9.56 90.08 9.56 85.04 0.5 80 9.56"/><polygon class="cls-6" points="97.37 27.17 107.44 27.17 102.41 18.11 97.37 27.17"/><polygon class="cls-6" points="97.37 80 107.44 80 102.41 70.94 97.37 80"/><polygon class="cls-6" points="97.37 62.39 107.44 62.39 102.41 53.33 97.37 62.39"/><polygon class="cls-6" points="97.37 44.78 107.44 44.78 102.41 35.72 97.37 44.78"/><polygon class="cls-6" points="80 80 90.08 80 85.04 70.94 80 80"/><polygon class="cls-6" points="80 62.39 90.08 62.39 85.04 53.33 80 62.39"/><path class="cls-3" d="M10.42,93.5,2.56,107.1A39.5,39.5,0,0,1,10.42,93.5Z"/><path class="cls-3" d="M16.85,87.63.72,115.56c.11-1,.25-2,.43-3l13.31-23C15.23,88.85,16,88.23,16.85,87.63Z"/><path class="cls-3" d="M21.61,84.64.53,121.17q0-.7,0-1.41c0-.27,0-.54,0-.81L19.69,85.73C20.32,85.35,21,85,21.61,84.64Z"/><path class="cls-3" d="M25.76,82.74l-24.82,43c-.09-.61-.17-1.22-.23-1.84L24,83.45C24.61,83.2,25.18,83,25.76,82.74Z"/><path class="cls-3" d="M29.53,81.48,1.73,129.62c-.13-.53-.26-1.07-.37-1.61L28,82C28.48,81.78,29,81.62,29.53,81.48Z"/><path class="cls-3" d="M33,80.67,2.79,133.07c-.17-.47-.33-.95-.48-1.43L31.57,81Q32.29,80.79,33,80.67Z"/><path class="cls-3" d="M36.35,80.2,4,136.17c-.2-.42-.38-.86-.56-1.29L35,80.36Z"/><path class="cls-3" d="M39.5,80l-34,59q-.33-.59-.63-1.17L38.18,80.06Z"/><path class="cls-3" d="M42.51,80.08,7,141.56c-.23-.35-.46-.71-.68-1.07L41.24,80C41.66,80,42.09,80.05,42.51,80.08Z"/><path class="cls-3" d="M45.4,80.34,8.69,143.93c-.25-.33-.5-.66-.73-1L44.18,80.21C44.59,80.24,45,80.29,45.4,80.34Z"/><path class="cls-3" d="M48.17,80.81,10.48,146.09q-.4-.43-.78-.9L47,80.58C47.4,80.65,47.79,80.72,48.17,80.81Z"/><path class="cls-3" d="M50.85,81.44,12.37,148.09c-.28-.27-.55-.55-.82-.83L49.72,81.15Z"/><path class="cls-3" d="M53.43,82.25,14.36,149.92c-.29-.25-.58-.5-.86-.76L52.34,81.88Z"/><path class="cls-3" d="M55.91,83.22,16.43,151.59l-.89-.69L54.86,82.78C55.22,82.92,55.56,83.07,55.91,83.22Z"/><path class="cls-3" d="M58.31,84.34,18.61,153.1c-.32-.2-.63-.41-.94-.63L57.29,83.84C57.64,84,58,84.17,58.31,84.34Z"/><path class="cls-3" d="M60.61,85.62,20.86,154.46c-.33-.18-.65-.36-1-.56L59.64,85.05C60,85.24,60.29,85.42,60.61,85.62Z"/><path class="cls-3" d="M62.83,87.05,23.21,155.68l-1-.5,39.7-68.76C62.21,86.62,62.52,86.83,62.83,87.05Z"/><path class="cls-3" d="M65,88.63,25.64,156.74c-.36-.14-.71-.29-1.05-.44L64.06,87.93C64.37,88.16,64.67,88.39,65,88.63Z"/><path class="cls-3" d="M67,90.36,28.16,157.63c-.36-.11-.73-.23-1.08-.36L66.14,89.6Z"/><path class="cls-3" d="M69,92.26,30.78,158.37c-.38-.09-.76-.19-1.13-.3L68.13,91.43C68.41,91.7,68.68,92,69,92.26Z"/><path class="cls-3" d="M70.79,94.33,33.5,158.93q-.6-.09-1.17-.21L70,93.42C70.28,93.72,70.54,94,70.79,94.33Z"/><path class="cls-3" d="M72.54,96.58,36.32,159.31c-.41,0-.82-.08-1.22-.13L71.81,95.59C72.06,95.91,72.3,96.24,72.54,96.58Z"/><path class="cls-3" d="M74.17,99,39.26,159.5c-.43,0-.85,0-1.27-.06L73.49,98C73.72,98.31,74,98.66,74.17,99Z"/><path class="cls-3" d="M75.67,101.7,42.32,159.45c-.43,0-.88,0-1.32.05l34-59C75.26,100.92,75.47,101.3,75.67,101.7Z"/><path class="cls-3" d="M77,104.63,45.54,159.16l-1.39.16,32.31-56C76.66,103.77,76.84,104.2,77,104.63Z"/><path class="cls-3" d="M78.19,107.87,48.93,158.55c-.49.11-1,.22-1.47.3l30.26-52.4C77.88,106.92,78,107.4,78.19,107.87Z"/><path class="cls-3" d="M79.14,111.5l-26.6,46.07c-.52.17-1,.33-1.57.47l27.8-48.14C78.9,110.43,79,111,79.14,111.5Z"/><path class="cls-3" d="M79.79,115.64,56.45,156.07c-.56.25-1.13.49-1.71.71l24.82-43C79.65,114.41,79.73,115,79.79,115.64Z"/><path class="cls-3" d="M80,119.76c0,.27,0,.54,0,.8L60.81,153.78c-.63.39-1.27.75-1.93,1.09L80,118.35Q80,119.06,80,119.76Z"/><path class="cls-3" d="M79.78,124c-.11,1-.25,2-.43,3L66,150c-.76.66-1.56,1.29-2.38,1.88Z"/><path class="cls-3" d="M77.94,132.4A39.7,39.7,0,0,1,70.08,146Z"/><path class="cls-3" d="M169.42,252.49l-7.86,13.6A39.5,39.5,0,0,1,169.42,252.49Z"/><path class="cls-3" d="M175.85,246.62l-16.13,27.93c.11-1,.25-2,.43-3l13.31-23.05C174.23,247.84,175,247.22,175.85,246.62Z"/><path class="cls-3" d="M180.61,243.64l-21.08,36.52q0-.71,0-1.41c0-.27,0-.54,0-.81l19.18-33.21C179.32,244.34,180,244,180.61,243.64Z"/><path class="cls-3" d="M184.76,241.73l-24.82,43c-.09-.62-.17-1.23-.23-1.85L183,242.44C183.61,242.19,184.18,242,184.76,241.73Z"/><path class="cls-3" d="M188.53,240.47l-27.8,48.14c-.13-.53-.26-1.07-.37-1.6L187,240.94C187.48,240.77,188,240.61,188.53,240.47Z"/><path class="cls-3" d="M192,239.66l-30.26,52.4c-.16-.47-.32-.95-.47-1.43L190.57,240Q191.29,239.78,192,239.66Z"/><path class="cls-3" d="M195.35,239.19l-32.31,56c-.2-.42-.38-.85-.56-1.29L194,239.35Z"/><path class="cls-3" d="M198.5,239l-34,59q-.33-.59-.63-1.17l33.35-57.76Z"/><path class="cls-3" d="M201.51,239.07,166,300.55c-.23-.35-.46-.71-.68-1.07L200.24,239C200.66,239,201.09,239,201.51,239.07Z"/><path class="cls-3" d="M204.4,239.33l-36.71,63.59c-.25-.33-.5-.66-.73-1l36.22-62.73C203.59,239.23,204,239.28,204.4,239.33Z"/><path class="cls-3" d="M207.17,239.8l-37.69,65.29c-.27-.3-.53-.6-.78-.91L206,239.57C206.4,239.64,206.79,239.71,207.17,239.8Z"/><path class="cls-3" d="M209.85,240.43l-38.48,66.65c-.28-.27-.55-.55-.82-.83l38.17-66.11Z"/><path class="cls-3" d="M212.43,241.24l-39.07,67.67c-.29-.25-.58-.5-.86-.76l38.84-67.28Z"/><path class="cls-3" d="M214.91,242.21l-39.48,68.37-.89-.69,39.32-68.12C214.22,241.91,214.56,242.06,214.91,242.21Z"/><path class="cls-3" d="M217.31,243.33l-39.7,68.76c-.32-.2-.63-.41-.94-.63l39.62-68.63C216.64,243,217,243.16,217.31,243.33Z"/><path class="cls-3" d="M219.61,244.61l-39.75,68.84c-.33-.18-.65-.36-1-.56L218.64,244C219,244.23,219.29,244.41,219.61,244.61Z"/><path class="cls-3" d="M221.83,246l-39.62,68.63c-.35-.16-.69-.33-1-.5l39.7-68.76C221.2,245.61,221.52,245.82,221.83,246Z"/><path class="cls-3" d="M224,247.62l-39.32,68.11c-.36-.14-.71-.29-1-.44l39.47-68.37C223.37,247.15,223.67,247.38,224,247.62Z"/><path class="cls-3" d="M226,249.35l-38.84,67.28c-.36-.12-.73-.24-1.08-.37l39.06-67.67Z"/><path class="cls-3" d="M228,251.25l-38.17,66.11c-.38-.09-.76-.19-1.13-.3l38.48-66.64C227.41,250.69,227.68,251,228,251.25Z"/><path class="cls-3" d="M229.79,253.32l-37.3,64.6c-.39-.06-.78-.13-1.16-.21L229,252.41C229.28,252.71,229.54,253,229.79,253.32Z"/><path class="cls-3" d="M231.54,255.57,195.32,318.3c-.41,0-.82-.08-1.22-.13l36.71-63.59Z"/><path class="cls-3" d="M233.17,258l-34.91,60.47c-.43,0-.85,0-1.27-.06L232.49,257C232.72,257.3,233,257.65,233.17,258Z"/><path class="cls-3" d="M234.67,260.69l-33.35,57.76-1.32,0,34-59Q234.37,260.11,234.67,260.69Z"/><path class="cls-3" d="M236,263.63l-31.48,54.52-1.39.16,32.31-56C235.66,262.76,235.84,263.19,236,263.63Z"/><path class="cls-3" d="M237.19,266.86l-29.26,50.68q-.74.18-1.47.3l30.26-52.4C236.88,265.91,237,266.39,237.19,266.86Z"/><path class="cls-3" d="M238.14,270.49l-26.6,46.07c-.52.17-1,.33-1.57.47l27.8-48.14C237.9,269.42,238,270,238.14,270.49Z"/><path class="cls-3" d="M238.79,274.63l-23.34,40.43q-.84.38-1.71.72l24.82-43C238.65,273.4,238.73,274,238.79,274.63Z"/><path class="cls-3" d="M239,278.75c0,.27,0,.54,0,.81l-19.18,33.21c-.63.39-1.27.75-1.93,1.09L239,277.34Q239,278,239,278.75Z"/><path class="cls-3" d="M238.78,282.94c-.11,1-.25,2-.43,3L225,309c-.76.66-1.56,1.29-2.38,1.88Z"/><path class="cls-3" d="M236.94,291.4A39.75,39.75,0,0,1,229.08,305Z"/><circle class="cls-2" cx="119.75" cy="119.75" r="39.75" transform="translate(-49.6 119.75) rotate(-45)"/><circle class="cls-6" cx="40.25" cy="278.75" r="39.75"/><path class="cls-7" d="M80,278.75a39.75,39.75,0,0,0,39.75,39.75V239A39.75,39.75,0,0,0,80,278.75Z"/><path class="cls-6" d="M159.5,318.5h0V239h0a39.75,39.75,0,0,0,0,79.5Z"/><path class="cls-5" d="M271.37,80.54Q255.84,75.6,244,75.6q-13.19,0-20.88,4.94t-7.7,13.75a18.09,18.09,0,0,0,5.36,13.32,41.69,41.69,0,0,0,13.47,8.8A213.92,213.92,0,0,0,256.39,124a240.47,240.47,0,0,1,32,11.54,57.25,57.25,0,0,1,21.3,17q8.79,11.26,8.79,29.68,0,17.6-9.48,30.64T282.91,232.8q-16.64,6.87-38.06,6.87a119.68,119.68,0,0,1-44-8.38,125,125,0,0,1-37.38-22.4l15.39-31.33a112.59,112.59,0,0,0,32.7,21.16q18.15,7.69,33.81,7.69,15.39,0,24.18-5.9t8.8-16.08A18.46,18.46,0,0,0,273,170.82a40,40,0,0,0-13.61-8.65q-8.24-3.3-22.53-7.42A265.9,265.9,0,0,1,205,143.48a55.28,55.28,0,0,1-21.16-16.63Q175,115.72,175,97.58q0-16.76,8.93-29.26t25.29-19.38q16.35-6.87,37.79-6.87a127.56,127.56,0,0,1,37,5.5,124.77,124.77,0,0,1,32.57,14.84L301.74,94.56A139.35,139.35,0,0,0,271.37,80.54Z"/></g></g></svg>