<svg width="744" height="216" viewBox="0 0 744 216" fill="none" xmlns="http://www.w3.org/2000/svg">
<g clip-path="url(#clip0)">
<path d="M604.976 2.25C604.976 3.28552 604.136 4.125 603.101 4.125C602.065 4.125 601.226 3.28552 601.226 2.25C601.226 1.21448 602.065 0.375 603.101 0.375C604.136 0.375 604.976 1.21448 604.976 2.25ZM603.101 19.875C602.065 19.875 601.226 20.7145 601.226 21.75C601.226 22.7855 602.065 23.625 603.101 23.625C604.136 23.625 604.976 22.7855 604.976 21.75C604.976 20.7145 604.136 19.875 603.101 19.875ZM614.726 12C614.726 10.9645 613.886 10.125 612.851 10.125C611.815 10.125 610.976 10.9645 610.976 12C610.976 13.0355 611.815 13.875 612.851 13.875C613.886 13.875 614.726 13.0355 614.726 12ZM595.226 12C595.226 10.9645 594.386 10.125 593.351 10.125C592.315 10.125 591.476 10.9645 591.476 12C591.476 13.0355 592.315 13.875 593.351 13.875C594.386 13.875 595.226 13.0355 595.226 12ZM596.206 3.23072C595.171 3.23072 594.331 4.0702 594.331 5.10572C594.331 6.14123 595.171 6.98072 596.206 6.98072C597.242 6.98072 598.081 6.14123 598.081 5.10572C598.081 4.07016 597.242 3.23072 596.206 3.23072ZM609.995 17.0193C608.959 17.0193 608.12 17.8588 608.12 18.8943C608.12 19.9298 608.959 20.7693 609.995 20.7693C611.03 20.7693 611.87 19.9298 611.87 18.8943C611.87 17.8588 611.03 17.0193 609.995 17.0193ZM596.206 17.0193C595.171 17.0193 594.331 17.8588 594.331 18.8943C594.331 19.9298 595.171 20.7693 596.206 20.7693C597.242 20.7693 598.081 19.9298 598.081 18.8943C598.081 17.8588 597.242 17.0193 596.206 17.0193Z" fill="#97A6BA"/>
</g>
<g clip-path="url(#clip1)">
<path d="M678.726 11.9781C678.738 18.3831 673.514 23.6205 667.109 23.625C664.108 23.6271 661.373 22.4924 659.309 20.6277C659.071 20.4118 659.061 20.0398 659.289 19.8121L660.084 19.0171C660.296 18.8048 660.636 18.7987 660.86 18.9986C662.517 20.477 664.703 21.375 667.101 21.375C672.283 21.375 676.476 17.1812 676.476 12C676.476 6.81802 672.282 2.625 667.101 2.625C664.498 2.625 662.146 3.68316 660.448 5.39264L662.749 7.662C663.107 8.0152 662.857 8.625 662.354 8.625H656.339C656.028 8.625 655.776 8.37314 655.776 8.0625V2.13014C655.776 1.63088 656.378 1.37906 656.734 1.72964L658.848 3.81436C660.954 1.69064 663.873 0.375 667.101 0.375C673.514 0.375 678.714 5.56786 678.726 11.9781ZM670.895 16.2049L671.557 15.2951C671.739 15.0439 671.684 14.6921 671.433 14.5094L668.226 12.1771V5.4375C668.226 5.12686 667.974 4.875 667.663 4.875H666.538C666.228 4.875 665.976 5.12686 665.976 5.4375V13.3229L670.109 16.329C670.36 16.5117 670.712 16.4561 670.895 16.2049Z" fill="#97A6BA"/>
</g>
<g clip-path="url(#clip2)">
<path d="M731.101 0.375C724.679 0.375 719.476 5.57812 719.476 12C719.476 18.4219 724.679 23.625 731.101 23.625C737.522 23.625 742.726 18.4219 742.726 12C742.726 5.57812 737.522 0.375 731.101 0.375ZM731.101 21.375C725.921 21.375 721.726 17.1797 721.726 12C721.726 6.82031 725.921 2.625 731.101 2.625C736.28 2.625 740.476 6.82031 740.476 12C740.476 17.1797 736.28 21.375 731.101 21.375ZM737.19 11.7141L736.271 10.7953C736.046 10.5703 735.685 10.575 735.465 10.8047L732.319 14.1V6.5625C732.319 6.25313 732.066 6 731.757 6H730.444C730.135 6 729.882 6.25313 729.882 6.5625V14.1L726.737 10.8047C726.516 10.575 726.155 10.5703 725.93 10.7953L725.012 11.7141C724.791 11.9344 724.791 12.2906 725.012 12.5109L730.702 18.2016C730.922 18.4219 731.279 18.4219 731.499 18.2016L737.19 12.5109C737.41 12.2906 737.41 11.9344 737.19 11.7141Z" fill="#97A6BA"/>
</g>
<g clip-path="url(#clip3)">
<path d="M288.631 11.5973L277.082 2.10932C276.61 1.71623 276.015 1.50098 275.401 1.50098C274.787 1.50098 274.192 1.71623 273.72 2.10932L262.171 11.5973C262.095 11.6605 262.033 11.738 261.988 11.8253C261.942 11.9126 261.914 12.008 261.905 12.1061C261.897 12.2043 261.907 12.3031 261.937 12.3971C261.966 12.4911 262.014 12.5783 262.077 12.6538L262.557 13.2304C262.685 13.3828 262.868 13.4783 263.066 13.4959C263.264 13.5135 263.461 13.4517 263.613 13.3242L264.901 12.2667V20.9999C264.902 21.3974 265.06 21.7783 265.342 22.0594C265.623 22.3404 266.004 22.4988 266.401 22.4999H272.401C272.798 22.4988 273.179 22.3404 273.46 22.0594C273.741 21.7783 273.9 21.3974 273.901 20.9999V16.1249H276.901V20.9999C276.902 21.3974 277.06 21.7783 277.342 22.0594C277.623 22.3404 278.004 22.4988 278.401 22.4999H284.401C284.797 22.4991 285.176 22.3423 285.457 22.0636C285.738 21.7849 285.897 21.4068 285.901 21.0112V12.2657L287.191 13.326C287.344 13.4536 287.541 13.5153 287.739 13.4978C287.937 13.4802 288.12 13.3847 288.248 13.2323L288.727 12.6562C288.791 12.5805 288.838 12.4929 288.868 12.3986C288.897 12.3044 288.908 12.2052 288.899 12.1068C288.89 12.0084 288.862 11.9127 288.816 11.8253C288.77 11.7378 288.707 11.6604 288.631 11.5973ZM283.644 20.2499H279.151V15.3749C279.15 14.9775 278.991 14.5966 278.71 14.3155C278.429 14.0344 278.048 13.8761 277.651 13.8749H273.151C272.754 13.8761 272.373 14.0344 272.092 14.3155C271.81 14.5966 271.652 14.9775 271.651 15.3749V20.2499H267.151V10.4188L275.401 3.63978L283.651 10.416L283.644 20.2499Z" fill="#97A6BA"/>
</g>
<g clip-path="url(#clip4)">
<path d="M342.901 0.375C336.482 0.375 331.276 5.58202 331.276 12C331.276 18.4217 336.482 23.625 342.901 23.625C349.321 23.625 354.526 18.4217 354.526 12C354.526 5.58202 349.321 0.375 342.901 0.375ZM342.901 21.375C337.72 21.375 333.526 17.1829 333.526 12C333.526 6.82055 337.72 2.625 342.901 2.625C348.081 2.625 352.276 6.81895 352.276 12C352.276 17.1811 348.084 21.375 342.901 21.375ZM342.901 5.53125C343.989 5.53125 344.87 6.41269 344.87 7.5C344.87 8.58731 343.989 9.46875 342.901 9.46875C341.814 9.46875 340.933 8.58731 340.933 7.5C340.933 6.41269 341.814 5.53125 342.901 5.53125ZM345.526 17.4375C345.526 17.7481 345.275 18 344.964 18H340.839C340.528 18 340.276 17.7481 340.276 17.4375V16.3125C340.276 16.0019 340.528 15.75 340.839 15.75H341.401V12.75H340.839C340.528 12.75 340.276 12.4981 340.276 12.1875V11.0625C340.276 10.7519 340.528 10.5 340.839 10.5H343.839C344.15 10.5 344.401 10.7519 344.401 11.0625V15.75H344.964C345.275 15.75 345.526 16.0019 345.526 16.3125V17.4375Z" fill="#97A6BA"/>
</g>
<g clip-path="url(#clip5)">
<path d="M408.044 0.375C401.624 0.375 396.419 5.58202 396.419 12C396.419 18.4217 401.624 23.625 408.044 23.625C414.464 23.625 419.669 18.4217 419.669 12C419.669 5.58202 414.464 0.375 408.044 0.375ZM408.044 21.375C402.863 21.375 398.669 17.1829 398.669 12C398.669 6.82055 402.863 2.625 408.044 2.625C413.223 2.625 417.419 6.81895 417.419 12C417.419 17.1811 413.227 21.375 408.044 21.375ZM413.071 9.4125C413.071 12.5556 409.676 12.6039 409.676 13.7655V14.0625C409.676 14.3731 409.424 14.625 409.114 14.625H406.974C406.663 14.625 406.412 14.3731 406.412 14.0625V13.6566C406.412 11.9811 407.682 11.3113 408.642 10.773C409.465 10.3116 409.97 9.99769 409.97 9.38653C409.97 8.57812 408.938 8.04155 408.105 8.04155C407.018 8.04155 406.516 8.55609 405.81 9.44634C405.62 9.68634 405.273 9.73092 405.029 9.54591L403.725 8.55694C403.486 8.37544 403.432 8.03822 403.601 7.78992C404.709 6.16364 406.119 5.25 408.316 5.25C410.616 5.25 413.071 7.0455 413.071 9.4125ZM410.013 17.25C410.013 18.3356 409.13 19.2188 408.044 19.2188C406.958 19.2188 406.075 18.3356 406.075 17.25C406.075 16.1644 406.958 15.2812 408.044 15.2812C409.13 15.2812 410.013 16.1644 410.013 17.25Z" fill="#97A6BA"/>
</g>
<g clip-path="url(#clip6)">
<path d="M472.044 0.375C465.624 0.375 460.419 5.57967 460.419 12C460.419 18.4203 465.624 23.625 472.044 23.625C478.464 23.625 483.669 18.4203 483.669 12C483.669 5.57967 478.464 0.375 472.044 0.375ZM472.044 2.625C477.225 2.625 481.419 6.81802 481.419 12C481.419 17.1812 477.226 21.375 472.044 21.375C466.863 21.375 462.669 17.182 462.669 12C462.669 6.81881 466.862 2.625 472.044 2.625ZM478.616 8.73127L477.56 7.66636C477.341 7.44581 476.985 7.44436 476.764 7.66317L470.138 14.2358L467.336 11.4103C467.117 11.1898 466.761 11.1883 466.54 11.4071L465.475 12.4635C465.255 12.6822 465.253 13.0384 465.472 13.259L469.727 17.5488C469.946 17.7693 470.302 17.7708 470.523 17.552L478.613 9.52678C478.833 9.30797 478.835 8.95181 478.616 8.73127Z" fill="#97A6BA"/>
</g>
<g clip-path="url(#clip7)">
<path d="M538.044 0.375C531.622 0.375 526.419 5.57812 526.419 12C526.419 18.4219 531.622 23.625 538.044 23.625C544.466 23.625 549.669 18.4219 549.669 12C549.669 5.57812 544.466 0.375 538.044 0.375ZM538.044 21.375C532.864 21.375 528.669 17.1797 528.669 12C528.669 6.82031 532.864 2.625 538.044 2.625C543.224 2.625 547.419 6.82031 547.419 12C547.419 17.1797 543.224 21.375 538.044 21.375ZM542.816 9.08438L539.9 12L542.816 14.9156C543.036 15.1359 543.036 15.4922 542.816 15.7125L541.756 16.7719C541.536 16.9922 541.18 16.9922 540.96 16.7719L538.044 13.8563L535.128 16.7719C534.908 16.9922 534.552 16.9922 534.331 16.7719L533.272 15.7125C533.052 15.4922 533.052 15.1359 533.272 14.9156L536.188 12L533.272 9.08438C533.052 8.86406 533.052 8.50781 533.272 8.2875L534.331 7.22812C534.552 7.00781 534.908 7.00781 535.128 7.22812L538.044 10.1437L540.96 7.22812C541.18 7.00781 541.536 7.00781 541.756 7.22812L542.816 8.2875C543.036 8.50781 543.036 8.86406 542.816 9.08438Z" fill="#97A6BA"/>
</g>
<path d="M23.648 16.9823C22.7401 16.0092 21.0413 14.5453 21.0413 9.75C21.0413 6.10781 18.4812 3.19219 15.0291 2.47688V1.5C15.0291 0.671719 14.3562 0 13.5263 0C12.6964 0 12.0235 0.671719 12.0235 1.5V2.47688C8.57144 3.19219 6.0113 6.10781 6.0113 9.75C6.0113 14.5453 4.31253 16.0092 3.40464 16.9823C3.12268 17.2847 2.99768 17.6461 3.00003 18C3.0052 18.7687 3.60999 19.5 4.50849 19.5H22.5441C23.4426 19.5 24.0479 18.7687 24.0526 18C24.0549 17.6461 23.93 17.2842 23.648 16.9823ZM6.17342 17.25C7.1706 15.9389 8.26082 13.7658 8.26599 9.77719C8.26599 9.76781 8.26317 9.75937 8.26317 9.75C8.26317 6.85031 10.6194 4.5 13.5263 4.5C16.4333 4.5 18.7895 6.85031 18.7895 9.75C18.7895 9.75937 18.7866 9.76781 18.7866 9.77719C18.7918 13.7662 19.882 15.9394 20.8792 17.25H6.17342ZM13.5263 24C15.1861 24 16.5324 22.657 16.5324 21H10.5202C10.5202 22.657 11.8665 24 13.5263 24Z" fill="#97A6BA"/>
<path d="M93.7361 21.9786L88.0458 16.2883C87.938 16.1805 87.7974 16.1242 87.6474 16.1242H87.0287C88.5051 14.4134 89.4004 12.1869 89.4004 9.74952C89.4004 4.36385 85.0366 0 79.6509 0C74.2652 0 69.9014 4.36385 69.9014 9.74952C69.9014 15.1352 74.2652 19.499 79.6509 19.499C82.0883 19.499 84.3147 18.6038 86.0256 17.1273V17.746C86.0256 17.896 86.0865 18.0366 86.1896 18.1444L91.88 23.8348C92.1003 24.0551 92.4565 24.0551 92.6768 23.8348L93.7361 22.7754C93.9564 22.5551 93.9564 22.1989 93.7361 21.9786ZM79.6509 17.2492C75.5073 17.2492 72.1513 13.8931 72.1513 9.74952C72.1513 5.60598 75.5073 2.24989 79.6509 2.24989C83.7944 2.24989 87.1505 5.60598 87.1505 9.74952C87.1505 13.8931 83.7944 17.2492 79.6509 17.2492Z" fill="#97A6BA"/>
<path d="M150.773 19.5H151.926C152.079 19.5 152.225 19.4407 152.334 19.3352C152.442 19.2298 152.502 19.0867 152.502 18.9375V8.8125C152.502 8.66332 152.442 8.52024 152.334 8.41475C152.225 8.30926 152.079 8.25 151.926 8.25H150.773C150.62 8.25 150.474 8.30926 150.366 8.41475C150.258 8.52024 150.197 8.66332 150.197 8.8125V18.9375C150.197 19.0867 150.258 19.2298 150.366 19.3352C150.474 19.4407 150.62 19.5 150.773 19.5ZM158.65 3.75H154.692L153.059 1.09219C152.854 0.758914 152.564 0.483137 152.218 0.29173C151.871 0.100323 151.479 -0.000184847 151.081 2.55209e-07H146.239C145.841 -2.29111e-05 145.449 0.100562 145.103 0.291961C144.757 0.48336 144.467 0.75905 144.262 1.09219L142.628 3.75H138.67C138.466 3.75 138.271 3.82902 138.126 3.96967C137.982 4.11032 137.901 4.30109 137.901 4.5V5.25C137.901 5.44891 137.982 5.63968 138.126 5.78033C138.271 5.92098 138.466 6 138.67 6H139.438V21.75C139.438 22.3467 139.681 22.919 140.114 23.341C140.546 23.7629 141.132 24 141.744 24H155.576C156.188 24 156.774 23.7629 157.206 23.341C157.639 22.919 157.882 22.3467 157.882 21.75V6H158.65C158.854 6 159.049 5.92098 159.194 5.78033C159.338 5.63968 159.419 5.44891 159.419 5.25V4.5C159.419 4.30109 159.338 4.11032 159.194 3.96967C159.049 3.82902 158.854 3.75 158.65 3.75ZM146.155 2.38641C146.18 2.34468 146.217 2.31018 146.26 2.28627C146.304 2.26236 146.353 2.24986 146.403 2.25H150.917C150.967 2.24994 151.016 2.26248 151.059 2.28639C151.103 2.31029 151.139 2.34475 151.165 2.38641L152.003 3.75H145.317L146.155 2.38641ZM155.576 21.75H141.744V6H155.576V21.75ZM145.394 19.5H146.547C146.7 19.5 146.846 19.4407 146.954 19.3352C147.062 19.2298 147.123 19.0867 147.123 18.9375V8.8125C147.123 8.66332 147.062 8.52024 146.954 8.41475C146.846 8.30926 146.7 8.25 146.547 8.25H145.394C145.241 8.25 145.095 8.30926 144.986 8.41475C144.878 8.52024 144.818 8.66332 144.818 8.8125V18.9375C144.818 19.0867 144.878 19.2298 144.986 19.3352C145.095 19.4407 145.241 19.5 145.394 19.5Z" fill="#97A6BA"/>
<g clip-path="url(#clip8)">
<path d="M216.651 0H206.151C204.909 0 203.901 1.00781 203.901 2.25V21.75C203.901 22.9922 204.909 24 206.151 24H216.651C217.894 24 218.901 22.9922 218.901 21.75V2.25C218.901 1.00781 217.894 0 216.651 0ZM216.37 21.75H206.433C206.278 21.75 206.151 21.6234 206.151 21.4688V2.53125C206.151 2.37656 206.278 2.25 206.433 2.25H216.37C216.525 2.25 216.651 2.37656 216.651 2.53125V21.4688C216.651 21.6234 216.525 21.75 216.37 21.75ZM213.089 20.25H209.714C209.404 20.25 209.151 19.9969 209.151 19.6875V19.3125C209.151 19.0031 209.404 18.75 209.714 18.75H213.089C213.398 18.75 213.651 19.0031 213.651 19.3125V19.6875C213.651 19.9969 213.398 20.25 213.089 20.25Z" fill="#97A6BA"/>
</g>
<g clip-path="url(#clip9)">
<path d="M268.826 136.648L269.746 137.568C269.969 137.791 270.331 137.787 270.549 137.56L274.183 133.776V149.938C274.183 150.248 274.435 150.5 274.745 150.5H276.058C276.369 150.5 276.62 150.248 276.62 149.938V133.776L280.254 137.56C280.472 137.787 280.835 137.791 281.058 137.568L281.977 136.648C282.197 136.428 282.197 136.072 281.977 135.852L275.799 129.675C275.58 129.455 275.224 129.455 275.004 129.675L268.826 135.853C268.606 136.072 268.606 136.428 268.826 136.648Z" fill="#97A6BA"/>
</g>
<g clip-path="url(#clip10)">
<path d="M348.978 143.352L348.059 142.433C347.834 142.208 347.473 142.213 347.257 142.442L343.62 146.225V130.062C343.62 129.753 343.367 129.5 343.057 129.5H341.745C341.436 129.5 341.182 129.753 341.182 130.062V146.225L337.55 142.442C337.329 142.217 336.968 142.212 336.748 142.433L335.829 143.352C335.609 143.572 335.609 143.928 335.829 144.148L342.007 150.327C342.228 150.547 342.584 150.547 342.804 150.327L348.982 144.148C349.198 143.928 349.198 143.572 348.978 143.352Z" fill="#97A6BA"/>
</g>
<g clip-path="url(#clip11)">
<path d="M410.896 133.425L409.976 134.344C409.753 134.567 409.757 134.93 409.984 135.148L413.768 138.782H397.606C397.296 138.782 397.044 139.033 397.044 139.344V140.657C397.044 140.967 397.296 141.219 397.606 141.219H413.768L409.984 144.853C409.757 145.071 409.753 145.433 409.976 145.656L410.896 146.576C411.116 146.796 411.472 146.796 411.692 146.576L417.87 140.398C418.09 140.178 418.09 139.822 417.87 139.603L411.692 133.425C411.472 133.205 411.116 133.205 410.896 133.425Z" fill="#97A6BA"/>
</g>
<g clip-path="url(#clip12)">
<path d="M468.182 146.576L469.102 145.656C469.325 145.433 469.321 145.071 469.094 144.853L465.31 141.219H481.472C481.783 141.219 482.034 140.967 482.034 140.657V139.344C482.034 139.033 481.783 138.782 481.472 138.782H465.31L469.094 135.148C469.321 134.93 469.325 134.567 469.102 134.344L468.182 133.425C467.963 133.205 467.606 133.205 467.387 133.425L461.209 139.603C460.989 139.822 460.989 140.178 461.209 140.398L467.387 146.576C467.606 146.796 467.963 146.796 468.182 146.576Z" fill="#97A6BA"/>
</g>
<g clip-path="url(#clip13)">
<path d="M13.1018 144.303L6.16426 137.421C5.94395 137.201 5.94395 136.845 6.16426 136.625L7.09238 135.696C7.3127 135.476 7.66895 135.476 7.88926 135.696L13.5002 141.251L19.1111 135.696C19.3314 135.476 19.6877 135.476 19.908 135.696L20.8361 136.625C21.0564 136.845 21.0564 137.201 20.8361 137.421L13.8986 144.303C13.6783 144.523 13.3221 144.523 13.1018 144.303Z" fill="#97A6BA"/>
</g>
<g clip-path="url(#clip14)">
<path d="M81.8 135.696L88.7375 142.578C88.9578 142.798 88.9578 143.154 88.7375 143.375L87.8094 144.303C87.5891 144.523 87.2328 144.523 87.0125 144.303L81.4016 138.748L75.7906 144.303C75.5703 144.523 75.2141 144.523 74.9937 144.303L74.0656 143.375C73.8453 143.154 73.8453 142.798 74.0656 142.578L81.0031 135.696C81.2234 135.476 81.5797 135.476 81.8 135.696Z" fill="#97A6BA"/>
</g>
<g clip-path="url(#clip15)">
<path d="M152.704 140.399L145.823 147.336C145.603 147.556 145.246 147.556 145.026 147.336L144.098 146.408C143.878 146.188 143.878 145.831 144.098 145.611L149.653 140L144.098 134.389C143.878 134.169 143.878 133.813 144.098 133.592L145.026 132.664C145.246 132.444 145.603 132.444 145.823 132.664L152.704 139.602C152.924 139.822 152.924 140.178 152.704 140.399Z" fill="#97A6BA"/>
</g>
<g clip-path="url(#clip16)">
<path d="M207.098 139.602L213.979 132.664C214.199 132.444 214.556 132.444 214.776 132.664L215.704 133.592C215.924 133.813 215.924 134.169 215.704 134.389L210.149 140L215.704 145.611C215.924 145.831 215.924 146.188 215.704 146.408L214.776 147.336C214.556 147.556 214.199 147.556 213.979 147.336L207.098 140.399C206.878 140.178 206.878 139.822 207.098 139.602Z" fill="#97A6BA"/>
</g>
<g clip-path="url(#clip17)">
<path d="M277.632 76.0001L282.682 70.9507C282.974 70.6587 282.974 70.1848 282.682 69.8923L281.508 68.719C281.216 68.427 280.742 68.427 280.45 68.719L275.401 73.7689L270.352 68.7195C270.06 68.4275 269.586 68.4275 269.293 68.7195L268.12 69.8923C267.828 70.1843 267.828 70.6582 268.12 70.9507L273.17 76.0001L268.12 81.0495C267.828 81.3415 267.828 81.8154 268.12 82.1079L269.294 83.2812C269.586 83.5732 270.06 83.5732 270.352 83.2812L275.401 78.2314L280.45 83.2807C280.742 83.5728 281.216 83.5728 281.509 83.2807L282.682 82.1075C282.974 81.8154 282.974 81.3415 282.682 81.049L277.632 76.0001Z" fill="#97A6BA"/>
</g>
<g clip-path="url(#clip18)">
<path d="M355.869 77.0809L352.487 73.6914C352.132 73.3352 351.52 73.5855 351.52 74.0875V76.3787H346.997V70.1866C346.997 69.5912 346.753 69.0147 346.329 68.5933L342.376 64.6609C341.952 64.2391 341.377 64 340.779 64H331.163C329.915 64.0047 328.901 65.0125 328.901 66.2542V85.7505C328.901 86.9922 329.915 88 331.163 88H344.731C345.98 88 346.997 86.9922 346.997 85.7505V80.8783H344.735V85.7505H331.163V66.2542H338.701V71.1283C338.701 71.7517 339.205 72.2528 339.832 72.2528H344.735V76.3783H337.007C336.694 76.3783 336.441 76.63 336.441 76.9408V78.0658C336.441 78.3766 336.694 78.6283 337.007 78.6283H351.52V80.9195C351.52 81.4216 352.132 81.6719 352.487 81.3156L355.869 77.9261C356.103 77.6922 356.103 77.3148 355.869 77.0809ZM340.963 70.0033V66.437L344.548 70.0033H340.963Z" fill="#97A6BA"/>
</g>
<g clip-path="url(#clip19)">
<path d="M419.38 68.5928L415.447 64.6609C415.026 64.2391 414.454 64 413.859 64H404.293C403.052 64.0047 402.044 65.0125 402.044 66.2542V76.3783H396.606C396.296 76.3783 396.044 76.63 396.044 76.9408V78.0658C396.044 78.3766 396.296 78.6283 396.606 78.6283H409.544V80.9195C409.544 81.4216 410.152 81.6719 410.506 81.3156L413.87 77.9261C414.102 77.6922 414.102 77.3148 413.87 77.0809L410.506 73.6914C410.152 73.3352 409.544 73.5855 409.544 74.0875V76.3787H404.293V66.2542H411.792V71.1283C411.792 71.7517 412.294 72.2528 412.917 72.2528H417.794V85.7505H404.293V80.8783H402.044V85.7505C402.044 86.9922 403.052 88 404.293 88H417.791C419.033 88 420.044 86.9922 420.044 85.7505V70.1861C420.044 69.5912 419.802 69.0147 419.38 68.5928ZM414.042 70.0033V66.437L417.608 70.0033H414.042Z" fill="#97A6BA"/>
</g>
<g clip-path="url(#clip20)">
<path d="M478.794 76.375C478.173 76.375 477.669 76.8784 477.669 77.5C477.669 78.1211 478.173 78.625 478.794 78.625C479.415 78.625 479.919 78.1211 479.919 77.5C479.919 76.8784 479.415 76.375 478.794 76.375ZM480.294 72.25V68.6819C480.294 68.0852 480.057 67.5128 479.635 67.0909L477.203 64.6591C476.781 64.2372 476.209 64 475.612 64H465.223C464.433 64 463.794 64.6717 463.794 65.5V72.25C461.723 72.25 460.044 73.9291 460.044 76V82C460.044 82.4144 460.38 82.75 460.794 82.75H463.794V87.25C463.794 87.6644 464.13 88 464.544 88H479.544C479.958 88 480.294 87.6644 480.294 87.25V82.75H483.294C483.708 82.75 484.044 82.4144 484.044 82V76C484.044 73.9291 482.365 72.25 480.294 72.25ZM466.044 66.25H475.044V68.5C475.044 68.9144 475.38 69.25 475.794 69.25H478.044V72.25H466.044V66.25ZM478.044 85.75H466.044V82.75H478.044V85.75ZM481.794 80.5H462.294V76C462.294 75.1731 462.967 74.5 463.794 74.5H480.294C481.121 74.5 481.794 75.1731 481.794 76V80.5Z" fill="#97A6BA"/>
</g>
<path d="M542.942 80.1683L544.445 78.6686C544.68 78.4342 545.088 78.5983 545.088 78.9357V85.7503C545.088 86.9923 544.079 88 542.834 88H526.299C525.054 88 524.044 86.9923 524.044 85.7503V69.2527C524.044 68.0107 525.054 67.0031 526.299 67.0031H539.146C539.48 67.0031 539.649 67.4061 539.414 67.6452L537.911 69.1449C537.84 69.2153 537.746 69.2527 537.643 69.2527H526.299V85.7503H542.834V80.4308C542.834 80.3324 542.871 80.2386 542.942 80.1683ZM550.298 70.7103L537.962 83.0179L533.716 83.4866C532.485 83.6225 531.438 82.5867 531.574 81.3494L532.044 77.1125L544.379 64.805C545.455 63.7317 547.193 63.7317 548.264 64.805L550.293 66.8297C551.369 67.9029 551.369 69.6418 550.298 70.7103ZM545.657 72.1586L542.928 69.4355L534.2 78.1483L533.857 81.2088L536.924 80.8667L545.657 72.1586ZM548.701 68.4232L546.672 66.3985C546.479 66.2063 546.164 66.2063 545.976 66.3985L544.525 67.8467L547.254 70.5697L548.706 69.1215C548.893 68.9247 548.893 68.6153 548.701 68.4232Z" fill="#97A6BA"/>
<path d="M23.4375 69.8125H3.5625C3.25186 69.8125 3 69.5606 3 69.25V67.75C3 67.4394 3.25186 67.1875 3.5625 67.1875H23.4375C23.7481 67.1875 24 67.4394 24 67.75V69.25C24 69.5606 23.7481 69.8125 23.4375 69.8125ZM23.4375 77.3125H3.5625C3.25186 77.3125 3 77.0606 3 76.75V75.25C3 74.9394 3.25186 74.6875 3.5625 74.6875H23.4375C23.7481 74.6875 24 74.9394 24 75.25V76.75C24 77.0606 23.7481 77.3125 23.4375 77.3125ZM23.4375 84.8125H3.5625C3.25186 84.8125 3 84.5606 3 84.25V82.75C3 82.4394 3.25186 82.1875 3.5625 82.1875H23.4375C23.7481 82.1875 24 82.4394 24 82.75V84.25C24 84.5606 23.7481 84.8125 23.4375 84.8125Z" fill="#97A6BA"/>
<g clip-path="url(#clip21)">
<path d="M93.1514 67.375H83.4014V66.25C83.4014 65.8375 83.0639 65.5 82.6514 65.5H81.1514C80.7389 65.5 80.4014 65.8375 80.4014 66.25V67.375H70.6514C70.2389 67.375 69.9014 67.7125 69.9014 68.125V68.875C69.9014 69.2875 70.2389 69.625 70.6514 69.625H80.4014V70.75C80.4014 71.1625 80.7389 71.5 81.1514 71.5H82.6514C83.0639 71.5 83.4014 71.1625 83.4014 70.75V69.625H93.1514C93.5639 69.625 93.9014 69.2875 93.9014 68.875V68.125C93.9014 67.7125 93.5639 67.375 93.1514 67.375ZM93.1514 82.375H77.4014V81.25C77.4014 80.8375 77.0639 80.5 76.6514 80.5H75.1514C74.7389 80.5 74.4014 80.8375 74.4014 81.25V82.375H70.6514C70.2389 82.375 69.9014 82.7125 69.9014 83.125V83.875C69.9014 84.2875 70.2389 84.625 70.6514 84.625H74.4014V85.75C74.4014 86.1625 74.7389 86.5 75.1514 86.5H76.6514C77.0639 86.5 77.4014 86.1625 77.4014 85.75V84.625H93.1514C93.5639 84.625 93.9014 84.2875 93.9014 83.875V83.125C93.9014 82.7125 93.5639 82.375 93.1514 82.375ZM93.1514 74.875H89.4014V73.75C89.4014 73.3375 89.0639 73 88.6514 73H87.1514C86.7389 73 86.4014 73.3375 86.4014 73.75V74.875H70.6514C70.2389 74.875 69.9014 75.2125 69.9014 75.625V76.375C69.9014 76.7875 70.2389 77.125 70.6514 77.125H86.4014V78.25C86.4014 78.6625 86.7389 79 87.1514 79H88.6514C89.0639 79 89.4014 78.6625 89.4014 78.25V77.125H93.1514C93.5639 77.125 93.9014 76.7875 93.9014 76.375V75.625C93.9014 75.2125 93.5639 74.875 93.1514 74.875Z" fill="#97A6BA"/>
</g>
<path d="M157.331 67.9128L145.001 80.243L140.471 75.7124C140.251 75.4928 139.895 75.4928 139.675 75.7124L138.349 77.0382C138.13 77.2579 138.13 77.614 138.349 77.8337L144.603 84.0879C144.823 84.3075 145.179 84.3075 145.399 84.0879L159.453 70.0341C159.672 69.8145 159.672 69.4583 159.453 69.2386L158.127 67.9128C157.907 67.6931 157.551 67.6931 157.331 67.9128Z" fill="#97A6BA"/>
<g clip-path="url(#clip22)">
<path d="M219.151 74.5H212.401V67.75C212.401 67.3356 212.066 67 211.651 67H210.151C209.737 67 209.401 67.3356 209.401 67.75V74.5H202.651C202.237 74.5 201.901 74.8356 201.901 75.25V76.75C201.901 77.1644 202.237 77.5 202.651 77.5H209.401V84.25C209.401 84.6644 209.737 85 210.151 85H211.651C212.066 85 212.401 84.6644 212.401 84.25V77.5H219.151C219.566 77.5 219.901 77.1644 219.901 76.75V75.25C219.901 74.8356 219.566 74.5 219.151 74.5Z" fill="#97A6BA"/>
</g>
<g clip-path="url(#clip23)">
<path d="M13.4505 198.75C12.9555 198.758 12.4642 198.837 11.9915 198.984C12.2102 199.37 12.3266 199.806 12.3296 200.25C12.3296 200.595 12.262 200.936 12.1306 201.255C11.9991 201.573 11.8065 201.862 11.5636 202.106C11.3208 202.35 11.0324 202.543 10.7151 202.675C10.3978 202.807 10.0577 202.875 9.71426 202.875C9.27194 202.872 8.83779 202.755 8.45327 202.536C8.1499 203.592 8.18526 204.717 8.55434 205.751C8.92342 206.786 9.6075 207.678 10.5097 208.301C11.4119 208.924 12.4865 209.246 13.5812 209.222C14.6759 209.197 15.7353 208.828 16.6093 208.166C17.4833 207.504 18.1276 206.583 18.4509 205.533C18.7742 204.483 18.7602 203.357 18.4107 202.315C18.0613 201.274 17.3943 200.369 16.504 199.729C15.6138 199.089 14.5455 198.747 13.4505 198.75ZM26.7386 203.316C24.2058 198.356 19.1918 195 13.4505 195C7.70929 195 2.69382 198.358 0.162502 203.316C0.0556644 203.528 0 203.763 0 204C0 204.238 0.0556644 204.472 0.162502 204.684C2.69522 209.644 7.70929 213 13.4505 213C19.1918 213 24.2072 209.642 26.7386 204.684C26.8454 204.472 26.9011 204.237 26.9011 204C26.9011 203.762 26.8454 203.528 26.7386 203.316ZM13.4505 210.75C8.84325 210.75 4.6194 208.172 2.33841 204C4.6194 199.828 8.84278 197.25 13.4505 197.25C18.0583 197.25 22.2817 199.828 24.5626 204C22.2821 208.172 18.0583 210.75 13.4505 210.75Z" fill="#97A6BA"/>
</g>
<g clip-path="url(#clip24)">
<path d="M96.6206 214.078L68.5893 192.165C68.5124 192.103 68.4242 192.057 68.3296 192.03C68.235 192.002 68.1359 191.994 68.038 192.005C67.9401 192.015 67.8453 192.045 67.7591 192.093C67.6728 192.14 67.5967 192.204 67.5351 192.281L67.0664 192.867C67.0047 192.944 66.9587 193.032 66.9312 193.127C66.9037 193.221 66.8951 193.32 66.9059 193.419C66.9168 193.517 66.9468 193.611 66.9944 193.698C67.0419 193.784 67.1061 193.86 67.1831 193.922L95.2143 215.835C95.2912 215.897 95.3795 215.943 95.4741 215.97C95.5686 215.998 95.6677 216.006 95.7656 215.995C95.8635 215.985 95.9583 215.955 96.0446 215.907C96.1309 215.86 96.207 215.796 96.2685 215.719L96.7373 215.133C96.799 215.056 96.8449 214.968 96.8725 214.873C96.9 214.779 96.9086 214.68 96.8977 214.582C96.8869 214.483 96.8568 214.389 96.8093 214.302C96.7617 214.216 96.6976 214.14 96.6206 214.078ZM80.8139 198.866L87.1321 203.805C87.0281 200.996 84.7368 198.75 81.9018 198.75C81.5361 198.751 81.1715 198.789 80.8139 198.866ZM82.9898 209.135L76.6715 204.195C76.776 207.004 79.0673 209.25 81.9018 209.25C82.2675 209.249 82.6321 209.211 82.9898 209.135ZM81.9018 197.25C86.526 197.25 90.7654 199.828 93.0548 204C92.4936 205.027 91.8002 205.975 90.9923 206.822L92.7614 208.205C93.7463 207.151 94.5808 205.966 95.241 204.684C95.3483 204.472 95.4041 204.237 95.4041 204C95.4041 203.762 95.3483 203.528 95.241 203.316C92.6967 198.356 87.6642 195 81.9018 195C80.1815 195 78.5404 195.328 76.9973 195.882L79.1728 197.583C80.0606 197.381 80.9699 197.25 81.9018 197.25ZM81.9018 210.75C77.2776 210.75 73.0387 208.172 70.7489 204C71.3108 202.973 72.005 202.025 72.8137 201.179L71.0446 199.796C70.0599 200.849 69.2255 202.034 68.5654 203.316C68.4582 203.528 68.4023 203.763 68.4023 204C68.4023 204.238 68.4582 204.472 68.5654 204.684C71.1075 209.644 76.1399 213 81.9018 213C83.6221 213 85.2632 212.67 86.8064 212.118L84.6309 210.418C83.7431 210.619 82.8342 210.75 81.9018 210.75Z" fill="#97A6BA"/>
</g>
<g clip-path="url(#clip25)">
<path d="M148.401 211.313C147.675 211.313 147.089 210.727 147.089 210V207C147.089 206.273 147.675 205.688 148.401 205.688C149.128 205.688 149.714 206.273 149.714 207V210C149.714 210.727 149.128 211.313 148.401 211.313ZM158.901 203.25V213.75C158.901 214.992 157.894 216 156.651 216H140.151C138.909 216 137.901 214.992 137.901 213.75V203.25C137.901 202.008 138.909 201 140.151 201H141.651V198.75C141.651 195.023 144.689 191.991 148.42 192C152.151 192.009 155.151 195.084 155.151 198.816V201H156.651C157.894 201 158.901 202.008 158.901 203.25ZM143.901 201H152.901V198.75C152.901 196.27 150.881 194.25 148.401 194.25C145.922 194.25 143.901 196.27 143.901 198.75V201ZM156.651 203.25H140.151V213.75H156.651V203.25Z" fill="#97A6BA"/>
</g>
<g clip-path="url(#clip26)">
<path d="M219.75 203.25H207V198.806C207 196.331 208.973 194.273 211.453 194.25C213.956 194.222 216 196.252 216 198.75V199.875C216 200.498 216.502 201 217.125 201C217.748 201 218.25 200.498 218.25 199.875V198.816C218.25 195.084 215.25 192.009 211.514 192C207.788 191.991 204.75 195.023 204.75 198.75V203.25H203.25C202.008 203.25 201 204.258 201 205.5V213.75C201 214.992 202.008 216 203.25 216H219.75C220.992 216 222 214.992 222 213.75V205.5C222 204.258 220.992 203.25 219.75 203.25ZM219.75 213.75H203.25V205.5H219.75V213.75ZM211.5 212.25C210.773 212.25 210.188 211.664 210.188 210.938V208.313C210.188 207.586 210.773 207 211.5 207C212.227 207 212.812 207.586 212.812 208.313V210.938C212.812 211.664 212.227 212.25 211.5 212.25Z" fill="#97A6BA"/>
</g>
<path d="M270.25 209.25H274.75C275.163 209.25 275.5 208.913 275.5 208.5V204C275.5 203.587 275.163 203.25 274.75 203.25H270.25C269.838 203.25 269.5 203.587 269.5 204V208.5C269.5 208.913 269.838 209.25 270.25 209.25ZM283.75 195H281.5V192.75C281.5 192.337 281.163 192 280.75 192H279.25C278.837 192 278.5 192.337 278.5 192.75V195H272.5V192.75C272.5 192.337 272.162 192 271.75 192H270.25C269.838 192 269.5 192.337 269.5 192.75V195H267.25C266.008 195 265 196.008 265 197.25V213.75C265 214.992 266.008 216 267.25 216H283.75C284.992 216 286 214.992 286 213.75V197.25C286 196.008 284.992 195 283.75 195ZM283.75 213.469C283.75 213.623 283.623 213.75 283.469 213.75H267.531C267.377 213.75 267.25 213.623 267.25 213.469V199.5H283.75V213.469Z" fill="#97A6BA"/>
<path d="M612.212 75.1094L613.705 74.2477C614.146 73.9927 614.361 73.4723 614.228 72.9796C613.694 70.986 612.642 69.204 611.226 67.786C610.866 67.4256 610.308 67.3526 609.867 67.6073L608.377 68.4679C607.893 68.1215 607.377 67.8229 606.835 67.5763V65.8535C606.835 65.6054 606.753 65.3642 606.602 65.1675C606.45 64.9708 606.238 64.8295 605.999 64.7657C604.041 64.2451 601.962 64.2444 600.002 64.7657C599.509 64.8968 599.166 65.3432 599.166 65.8535V67.5763C598.624 67.8229 598.107 68.1215 597.623 68.4678L596.133 67.6073C595.692 67.3525 595.135 67.4256 594.775 67.7859C593.358 69.2039 592.307 70.9859 591.772 72.9795C591.64 73.4723 591.854 73.9927 592.296 74.2477L593.789 75.1094C593.731 75.7018 593.731 76.2982 593.789 76.8906L592.296 77.7523C591.854 78.0073 591.64 78.5277 591.772 79.0204C592.307 81.0141 593.358 82.7961 594.775 84.214C595.135 84.5744 595.692 84.6474 596.133 84.3927L597.623 83.5321C598.107 83.8785 598.624 84.1771 599.166 84.4237V86.1465C599.166 86.3946 599.248 86.6358 599.399 86.8325C599.55 87.0292 599.762 87.1704 600.002 87.2342C601.959 87.7549 604.039 87.7556 605.999 87.2343C606.492 87.1031 606.835 86.6567 606.835 86.1465V84.4237C607.377 84.1771 607.893 83.8785 608.377 83.5322L609.867 84.3927C610.308 84.6475 610.866 84.5744 611.226 84.2141C612.642 82.7961 613.694 81.0141 614.228 79.0205C614.361 78.5277 614.146 78.0074 613.705 77.7523L612.212 76.8907C612.269 76.2977 612.269 75.7024 612.212 75.1094ZM609.743 78.0634L611.797 79.2488C611.427 80.2467 610.891 81.1744 610.21 81.9923L608.155 80.806C606.656 82.0902 606.437 82.2158 604.585 82.8698V85.2417C603.536 85.4207 602.464 85.4207 601.415 85.2417V82.8698C599.564 82.2159 599.344 82.0897 597.845 80.806L595.791 81.9923C595.11 81.1744 594.573 80.2467 594.204 79.2488L596.258 78.0634C595.9 76.1275 595.9 75.8735 596.258 73.9366L594.204 72.7512C594.572 71.7561 595.109 70.827 595.791 70.0077L597.845 71.194C599.344 69.9098 599.564 69.7841 601.415 69.1302V66.7584C602.464 66.5793 603.536 66.5793 604.585 66.7584V69.1302C606.437 69.7841 606.657 69.9103 608.155 71.1941L610.21 70.0077C610.891 70.8256 611.427 71.7534 611.797 72.7513L609.743 73.9367C610.1 75.8726 610.1 76.1266 609.743 78.0634ZM603 71.5C600.519 71.5 598.5 73.5187 598.5 76C598.5 78.4814 600.519 80.5 603 80.5C605.482 80.5 607.5 78.4814 607.5 76C607.5 73.5187 605.482 71.5 603 71.5ZM603 78.25C601.76 78.25 600.75 77.2407 600.75 76C600.75 74.7594 601.76 73.75 603 73.75C604.241 73.75 605.25 74.7594 605.25 76C605.25 77.2407 604.241 78.25 603 78.25Z" fill="#97A6BA"/>
<defs>
<clipPath id="clip0">
<rect width="24" height="24" fill="white" transform="translate(591.101)"/>
</clipPath>
<clipPath id="clip1">
<rect width="24" height="24" fill="white" transform="translate(655.101)"/>
</clipPath>
<clipPath id="clip2">
<rect width="24" height="24" fill="white" transform="translate(719.101)"/>
</clipPath>
<clipPath id="clip3">
<rect width="27" height="24" fill="white" transform="translate(261.901)"/>
</clipPath>
<clipPath id="clip4">
<rect width="24" height="24" fill="white" transform="translate(330.901)"/>
</clipPath>
<clipPath id="clip5">
<rect width="24" height="24" fill="white" transform="translate(396.044)"/>
</clipPath>
<clipPath id="clip6">
<rect width="24" height="24" fill="white" transform="translate(460.044)"/>
</clipPath>
<clipPath id="clip7">
<rect width="24" height="24" fill="white" transform="translate(526.044)"/>
</clipPath>
<clipPath id="clip8">
<rect width="15" height="24" fill="white" transform="translate(203.901)"/>
</clipPath>
<clipPath id="clip9">
<rect width="15" height="24" fill="white" transform="translate(267.901 128)"/>
</clipPath>
<clipPath id="clip10">
<rect width="15" height="24" fill="white" transform="translate(334.901 128)"/>
</clipPath>
<clipPath id="clip11">
<rect width="21" height="24" fill="white" transform="translate(397.044 128)"/>
</clipPath>
<clipPath id="clip12">
<rect width="21" height="24" fill="white" transform="translate(461.044 128)"/>
</clipPath>
<clipPath id="clip13">
<rect width="15" height="24" fill="white" transform="translate(6 128)"/>
</clipPath>
<clipPath id="clip14">
<rect width="15" height="24" fill="white" transform="translate(73.9014 128)"/>
</clipPath>
<clipPath id="clip15">
<rect width="9" height="24" fill="white" transform="translate(143.901 128)"/>
</clipPath>
<clipPath id="clip16">
<rect width="9" height="24" fill="white" transform="translate(206.901 128)"/>
</clipPath>
<clipPath id="clip17">
<rect width="15" height="24" fill="white" transform="translate(267.901 64)"/>
</clipPath>
<clipPath id="clip18">
<rect width="27.1429" height="24" fill="white" transform="translate(328.901 64)"/>
</clipPath>
<clipPath id="clip19">
<rect width="24" height="24" fill="white" transform="translate(396.044 64)"/>
</clipPath>
<clipPath id="clip20">
<rect width="24" height="24" fill="white" transform="translate(460.044 64)"/>
</clipPath>
<clipPath id="clip21">
<rect width="24" height="24" fill="white" transform="translate(69.9014 64)"/>
</clipPath>
<clipPath id="clip22">
<rect width="18" height="24" fill="white" transform="translate(201.901 64)"/>
</clipPath>
<clipPath id="clip23">
<rect width="26.9011" height="24" fill="white" transform="translate(0 192)"/>
</clipPath>
<clipPath id="clip24">
<rect width="30" height="24" fill="white" transform="translate(66.9014 192)"/>
</clipPath>
<clipPath id="clip25">
<rect width="21" height="24" fill="white" transform="translate(137.901 192)"/>
</clipPath>
<clipPath id="clip26">
<rect width="21" height="24" fill="white" transform="translate(200.901 192)"/>
</clipPath>
</defs>
</svg>
