<svg width="15" height="24" viewBox="0 0 15 24" fill="none" xmlns="http://www.w3.org/2000/svg">
<path d="M0.924508 8.64806L1.84448 9.56802C2.06727 9.79082 2.42966 9.78716 2.64791 9.55991L6.28157 5.77626V21.9378C6.28157 22.2485 6.53343 22.5003 6.84407 22.5003H8.15657C8.46721 22.5003 8.71907 22.2485 8.71907 21.9378V5.77626L12.3527 9.55987C12.571 9.78716 12.9334 9.79082 13.1562 9.56798L14.0761 8.64801C14.2958 8.42835 14.2958 8.0722 14.0761 7.85249L7.89805 1.67451C7.67839 1.45485 7.32224 1.45485 7.10254 1.67451L0.924508 7.85259C0.704852 8.07224 0.704852 8.4284 0.924508 8.64806Z" fill="#97A6BA"/>
</svg>
