<svg width="32" height="32" viewBox="0 0 32 32" fill="none" xmlns="http://www.w3.org/2000/svg">
<circle cx="16" cy="16" r="16" fill="#97A6BA"/>
<path d="M21.3409 13.642C21.017 11.2301 19.0739 9.73864 15.767 9.73864C12.4176 9.73864 10.2102 11.2898 10.2188 13.8125C10.2102 15.7727 11.446 17.0426 14.0028 17.554L16.2699 18.0057C17.4119 18.2358 17.9318 18.6534 17.9489 19.3097C17.9318 20.0852 17.0881 20.6392 15.8182 20.6392C14.5227 20.6392 13.6619 20.0852 13.4403 19.0199L9.86932 19.2074C10.2102 21.7131 12.3409 23.2557 15.8097 23.2557C19.2017 23.2557 21.6307 21.5256 21.6392 18.9432C21.6307 17.0511 20.3949 15.9176 17.8551 15.3977L15.4858 14.9205C14.267 14.6562 13.8153 14.2386 13.8239 13.608C13.8153 12.8239 14.7017 12.3125 15.8267 12.3125C17.0881 12.3125 17.8381 13.0028 18.017 13.8466L21.3409 13.642Z" fill="white"/>
</svg>
