<svg width="32" height="32" viewBox="0 0 32 32" fill="none" xmlns="http://www.w3.org/2000/svg">
<circle cx="16" cy="16" r="16" fill="#97A6BA"/>
<path d="M19.9 17.2812C18.8109 17.2812 18.2873 17.875 16.5 17.875C14.7127 17.875 14.1929 17.2812 13.1 17.2812C10.2844 17.2812 8 19.5152 8 22.2687V23.2188C8 24.2021 8.81585 25 9.82143 25H23.1786C24.1842 25 25 24.2021 25 23.2188V22.2687C25 19.5152 22.7156 17.2812 19.9 17.2812ZM23.1786 23.2188H9.82143V22.2687C9.82143 20.5023 11.2937 19.0625 13.1 19.0625C13.654 19.0625 14.5533 19.6562 16.5 19.6562C18.4618 19.6562 19.3422 19.0625 19.9 19.0625C21.7063 19.0625 23.1786 20.5023 23.1786 22.2687V23.2188ZM16.5 16.6875C19.5167 16.6875 21.9643 14.2939 21.9643 11.3438C21.9643 8.39355 19.5167 6 16.5 6C13.4833 6 11.0357 8.39355 11.0357 11.3438C11.0357 14.2939 13.4833 16.6875 16.5 16.6875ZM16.5 7.78125C18.5074 7.78125 20.1429 9.38066 20.1429 11.3438C20.1429 13.3068 18.5074 14.9062 16.5 14.9062C14.4926 14.9062 12.8571 13.3068 12.8571 11.3438C12.8571 9.38066 14.4926 7.78125 16.5 7.78125Z" fill="white"/>
</svg>
