<svg width="482" height="152" viewBox="0 0 482 152" fill="none" xmlns="http://www.w3.org/2000/svg">
<path d="M25.7426 52C11.5485 52 0 40.3379 0 26H1.58416C1.58416 39.4618 12.4198 50.4144 25.7426 50.4144C39.0653 50.4144 49.901 39.4618 49.901 26C49.901 12.5382 39.0653 1.58561 25.7426 1.58561V0C39.9366 0 51.4851 11.6621 51.4851 26C51.4851 40.3379 39.9366 52 25.7426 52Z" fill="#97A6BA"/>
<path d="M1.58416 26.0002H0C0 25.7267 0.0039604 25.4531 0.0118812 25.1836L1.59604 25.2312C1.58812 25.4849 1.58416 25.7425 1.58416 26.0002Z" fill="#97A6BA"/>
<path d="M1.69538 23.6416L0.119141 23.4909C0.170626 22.932 0.245873 22.3652 0.333002 21.8102L1.89736 22.0599C1.81419 22.5832 1.74686 23.1144 1.69538 23.6416ZM2.19835 20.4981L0.653794 20.1453C0.780527 19.5943 0.923101 19.0433 1.08548 18.5042L2.60231 18.9561C2.45181 19.4635 2.31716 19.9828 2.19835 20.4981ZM3.10924 17.4458L1.62409 16.8948C1.81815 16.3676 2.03597 15.8364 2.26568 15.3251L3.71122 15.9712C3.4934 16.4548 3.29142 16.9503 3.10924 17.4458ZM4.40825 14.5362L3.00627 13.7949C3.26766 13.2994 3.5528 12.8 3.84587 12.3203L5.19637 13.1488C4.91914 13.6047 4.65379 14.0724 4.40825 14.5362ZM6.07162 11.8248L4.77657 10.9091C5.10132 10.4493 5.44587 9.99742 5.79835 9.55741L7.03003 10.5563C6.69736 10.9686 6.37657 11.3928 6.07162 11.8248ZM8.07558 9.35128L6.91122 8.27703C7.29142 7.86478 7.69142 7.46045 8.09934 7.06801L9.19241 8.21757C8.80825 8.58226 8.43201 8.96281 8.07558 9.35128ZM10.3805 7.15918L9.36667 5.94223C9.79835 5.5815 10.2498 5.23267 10.7013 4.89969L11.632 6.18007C11.2083 6.48926 10.7845 6.81828 10.3805 7.15918ZM12.9508 5.28816L12.1073 3.94833C12.5825 3.64706 13.0736 3.36165 13.5686 3.0921L14.3251 4.48347C13.8538 4.7332 13.3944 5.00672 12.9508 5.28816ZM15.7429 3.76994L15.0815 2.33101C15.5924 2.09713 16.1191 1.87514 16.6419 1.67298L17.2083 3.15552C16.7132 3.34183 16.2221 3.54796 15.7429 3.76994ZM18.7053 2.63624L18.2419 1.12198C18.7805 0.955491 19.331 0.808822 19.8776 0.67801L20.238 2.22001C19.7271 2.3429 19.2082 2.48164 18.7053 2.63624ZM21.7983 1.91082L21.5409 0.345032C22.0954 0.25386 22.6617 0.178543 23.2201 0.123047L23.3746 1.70073C22.8479 1.75226 22.3172 1.82361 21.7983 1.91082Z" fill="#97A6BA"/>
<path d="M24.9753 1.5975L24.9277 0.0118921C25.197 0.00396402 25.4703 0 25.7436 0V1.58561C25.4862 1.58561 25.2327 1.58957 24.9753 1.5975Z" fill="#97A6BA"/>
<path d="M32.0473 38.4236L25.7423 32.0574L19.4374 38.4236L13.4453 32.3706L19.7503 26.0004L13.4453 19.6342L19.4374 13.5771L25.7423 19.9473L32.0473 13.5811L38.0394 19.6381L31.7344 26.0004L38.0394 32.3706L32.0473 38.4236ZM15.675 32.3706L19.4374 36.1721L25.7423 29.8019L32.0473 36.1681L35.8097 32.3666L29.5047 26.0004L35.8097 19.6342L32.0473 15.8327L25.7423 22.1989L19.4374 15.8327L15.675 19.6342L21.98 26.0004L15.675 32.3706Z" fill="#97A6BA"/>
<path d="M132.759 52C118.556 52 107 40.3379 107 26C107 11.6621 118.556 0 132.759 0C146.963 0 158.519 11.6621 158.519 26H156.933C156.933 12.5382 146.091 1.58561 132.759 1.58561C119.428 1.58561 108.585 12.5382 108.585 26C108.585 39.4618 119.428 50.4144 132.759 50.4144V52Z" fill="#97A6BA"/>
<path d="M158.507 26.8166L156.921 26.769C156.929 26.5153 156.933 26.2577 156.933 26H158.519C158.519 26.2735 158.515 26.547 158.507 26.8166Z" fill="#97A6BA"/>
<path d="M135.284 51.8771L135.129 50.2994C135.656 50.2479 136.183 50.1766 136.706 50.0933L136.964 51.6591C136.409 51.7463 135.846 51.8216 135.284 51.8771ZM138.628 51.3222L138.264 49.7802C138.779 49.6573 139.294 49.5185 139.797 49.3639L140.261 50.8782C139.73 51.0447 139.179 51.1953 138.628 51.3222ZM141.87 50.3272L141.303 48.8447C141.795 48.6583 142.286 48.4482 142.77 48.2302L143.432 49.6692C142.916 49.907 142.393 50.129 141.87 50.3272ZM144.945 48.912L144.188 47.5207C144.652 47.267 145.116 46.9974 145.56 46.716L146.404 48.0558C145.932 48.3531 145.441 48.6425 144.945 48.912ZM147.811 47.1044L146.879 45.8241C147.307 45.5149 147.727 45.1859 148.136 44.845L149.15 46.0619C148.714 46.4226 148.266 46.7715 147.811 47.1044ZM150.414 44.9361L149.32 43.7866C149.705 43.4219 150.081 43.0413 150.438 42.6528L151.603 43.7271C151.223 44.1394 150.822 44.5437 150.414 44.9361ZM152.713 42.4428L151.48 41.4438C151.813 41.0316 152.138 40.6035 152.443 40.1753L153.739 41.091C153.414 41.5509 153.069 42.0067 152.713 42.4428ZM154.67 39.6759L153.319 38.8474C153.597 38.3955 153.862 37.9317 154.108 37.4639L155.511 38.2052C155.249 38.7007 154.968 39.1962 154.67 39.6759ZM156.256 36.6751L154.809 36.029C155.023 35.5454 155.229 35.0499 155.412 34.5544L156.898 35.1054C156.7 35.6326 156.486 36.1598 156.256 36.6751ZM157.433 33.496L155.915 33.0441C156.065 32.5406 156.2 32.0214 156.319 31.506L157.865 31.8588C157.738 32.4059 157.591 32.9569 157.433 33.496ZM158.186 30.19L156.62 29.9402C156.703 29.417 156.771 28.8858 156.822 28.3586L158.4 28.5092C158.348 29.0682 158.273 29.635 158.186 30.19Z" fill="#97A6BA"/>
<path d="M132.759 52V50.4144C133.017 50.4144 133.27 50.4104 133.528 50.4025L133.576 51.9881C133.306 51.996 133.033 52 132.759 52Z" fill="#97A6BA"/>
<path d="M128.499 38.4272L118.798 28.5053L124.794 22.4522L128.562 26.2577L141.121 13.5768L147.117 19.6338L128.499 38.4272ZM121.021 28.5132L128.507 36.1677L144.886 19.6338L141.121 15.8283L128.562 28.5092L124.794 24.7038L121.021 28.5132Z" fill="#97A6BA"/>
<path d="M239.86 52C225.6 52 214 40.3371 214 26C214 11.6629 225.6 0 239.86 0C254.12 0 265.72 11.6629 265.72 26C265.72 27.1376 265.648 28.2791 265.5 29.3967L263.912 29.1931C264.048 28.1434 264.116 27.0697 264.116 26C264.12 12.545 253.236 1.59656 239.86 1.59656C226.484 1.59656 215.6 12.545 215.6 26C215.6 39.455 226.484 50.4034 239.86 50.4034C241.084 50.4034 242.312 50.3116 243.508 50.128L243.748 51.7086C242.476 51.9002 241.168 52 239.86 52Z" fill="#97A6BA"/>
<path d="M239.86 47.9125C227.844 47.9125 218.064 38.0817 218.064 25.9997C218.064 13.9177 227.844 4.08691 239.86 4.08691C251.876 4.08691 261.656 13.9177 261.656 25.9997H260.056C260.056 14.7998 250.996 5.68348 239.86 5.68348C228.728 5.68348 219.668 14.7958 219.664 25.9997C219.664 37.1996 228.724 46.316 239.86 46.316V47.9125Z" fill="#97A6BA"/>
<path d="M240.661 7.16797H239.061V11.0795H240.661V7.16797Z" fill="#97A6BA"/>
<path d="M248.531 9.29156L246.586 12.6787L247.974 13.4724L249.919 10.0852L248.531 9.29156Z" fill="#97A6BA"/>
<path d="M255.674 15.8922L252.307 17.8477L253.111 19.2276L256.479 17.2721L255.674 15.8922Z" fill="#97A6BA"/>
<path d="M258.585 24.1992H254.697V25.7958H258.585V24.1992Z" fill="#97A6BA"/>
<path d="M239.664 40.9199H238.064V44.8315H239.664V40.9199Z" fill="#97A6BA"/>
<path d="M231.751 38.5277L229.805 41.9141L231.193 42.7084L233.139 39.322L231.751 38.5277Z" fill="#97A6BA"/>
<path d="M226.613 32.7695L223.244 34.7227L224.048 36.103L227.416 34.1499L226.613 32.7695Z" fill="#97A6BA"/>
<path d="M225.025 25.2012H221.133V26.7977H225.025V25.2012Z" fill="#97A6BA"/>
<path d="M224.049 15.8926L223.244 17.2725L226.611 19.2279L227.416 17.848L224.049 15.8926Z" fill="#97A6BA"/>
<path d="M231.191 9.29277L229.803 10.0859L231.746 13.4739L233.135 12.6807L231.191 9.29277Z" fill="#97A6BA"/>
<path d="M239.861 27.9749C239.377 27.9749 238.909 27.7953 238.545 27.472C237.737 26.7456 237.669 25.4963 238.389 24.686C238.765 24.2669 239.301 24.0234 239.861 24.0234C240.345 24.0234 240.813 24.2031 241.177 24.5264C241.985 25.2528 242.053 26.5021 241.333 27.3124C240.957 27.7354 240.421 27.9749 239.861 27.9749ZM239.861 25.62C239.801 25.62 239.681 25.636 239.585 25.7437C239.445 25.8994 239.457 26.1429 239.617 26.2826C239.705 26.3584 239.797 26.3744 239.861 26.3744C239.921 26.3744 240.041 26.3584 240.137 26.2506C240.277 26.095 240.261 25.8515 240.105 25.7118C240.021 25.636 239.925 25.62 239.861 25.62Z" fill="#97A6BA"/>
<path d="M248.189 15.4279L240.043 24.5918L241.24 25.6513L249.386 16.4873L248.189 15.4279Z" fill="#97A6BA"/>
<path d="M231.864 17.7301L230.793 18.916L238.818 26.1337L239.889 24.9478L231.864 17.7301Z" fill="#97A6BA"/>
<path d="M253.996 51.9044C247.38 51.9044 241.992 46.4921 241.992 39.8384C241.992 33.1847 247.376 27.7764 253.996 27.7764C260.616 27.7764 266 33.1887 266 39.8384C266 46.4881 260.616 51.9044 253.996 51.9044ZM254 29.3729C248.26 29.3729 243.596 34.0668 243.596 39.8384C243.596 45.61 248.264 50.3078 254 50.3078C259.736 50.3078 264.404 45.6139 264.404 39.8384C264.4 34.0668 259.736 29.3729 254 29.3729Z" fill="#97A6BA"/>
<path d="M254.688 35H253.088V44.6791H254.688V35Z" fill="#97A6BA"/>
<path d="M258.7 39.04H249.076V40.6366H258.7V39.04Z" fill="#97A6BA"/>
<path d="M340.95 37.9148C330.505 37.9148 322.004 29.4131 322 18.9594C322 13.9209 323.961 9.17105 327.525 5.57959C331.11 1.98412 335.876 0 340.946 0C346.021 0 350.779 1.9721 354.363 5.55554C357.948 9.13898 359.921 13.8969 359.921 18.9554C359.921 23.9938 357.96 28.7437 354.396 32.3271C350.803 35.9306 346.033 37.9188 340.963 37.9188L340.95 37.1171L340.963 36.3154C345.595 36.3154 349.955 34.4997 353.239 31.2048C356.503 27.926 358.297 23.577 358.297 18.9594C358.297 14.3258 356.491 9.96871 353.211 6.68589C349.93 3.40708 345.582 1.60333 340.967 1.60333C336.314 1.60333 331.962 3.41509 328.686 6.70593C325.418 9.99276 323.624 14.3458 323.624 18.9594C323.628 28.5273 331.402 36.3074 340.95 36.3074V37.9148Z" fill="#97A6BA"/>
<path d="M340.951 33.4419C337.087 33.4419 333.449 31.9308 330.713 29.1931C327.977 26.4554 326.471 22.8198 326.471 18.9598C326.471 15.1078 327.973 11.4763 330.697 8.7426C333.437 5.98888 337.079 4.46973 340.956 4.46973C344.832 4.46973 348.47 5.98087 351.206 8.72256C353.942 11.4562 355.452 15.0918 355.452 18.9558C355.457 22.8078 353.954 26.4353 351.23 29.169C348.486 31.9267 344.841 33.4419 340.964 33.4419H340.951ZM340.964 6.06905C337.517 6.06905 334.286 7.41985 331.854 9.86092C329.43 12.294 328.095 15.5247 328.095 18.9558C328.095 22.3909 329.434 25.6257 331.866 28.0627C334.298 30.4958 337.521 31.8346 340.951 31.8346V32.6362L340.964 31.8346C344.402 31.8346 347.642 30.4878 350.073 28.0387C352.501 25.6056 353.833 22.3789 353.833 18.9478C353.829 15.5127 352.489 12.2779 350.053 9.84489C347.621 7.41184 344.394 6.06905 340.964 6.06905Z" fill="#97A6BA"/>
<path d="M333.165 18.9557H331.541C331.541 16.4505 332.515 14.0936 334.285 12.3139C336.068 10.5222 338.438 9.53613 340.959 9.53613V11.1395C338.877 11.1395 336.92 11.9572 335.442 13.4402C333.973 14.9153 333.165 16.8754 333.165 18.9557Z" fill="#97A6BA"/>
<path d="M368.675 51.999C367.972 51.999 367.278 51.8587 366.604 51.5781L366.454 51.518L353.715 38.7675L360.766 31.7129L373.522 44.4754L373.583 44.6237C374.281 46.3112 374.098 48.139 373.083 49.6341C372.073 51.1172 370.424 51.999 368.675 51.999ZM367.38 50.1592C368.991 50.7564 370.778 50.1512 371.736 48.7403C372.418 47.7382 372.56 46.5196 372.137 45.3733L360.771 33.9976L356 38.7675L367.38 50.1592Z" fill="#97A6BA"/>
<path d="M362.866 36.3214L358.305 40.8877L359.461 42.0136L364.022 37.4473L362.866 36.3214Z" fill="#97A6BA"/>
<path d="M354.738 31.5996L353.582 32.7256L356.801 35.9472L357.957 34.8212L354.738 31.5996Z" fill="#97A6BA"/>
<path d="M463.379 7.30879L457.364 2.09905C456.624 1.46054 455.377 1.46054 454.637 2.09905L448.969 7.00377L447.934 5.76336L453.601 0.858632C454.925 -0.288243 457.076 -0.284176 458.4 0.858632L464.419 6.06838L463.379 7.30879Z" fill="#97A6BA"/>
<path d="M481.188 51.9999H430.803C430.363 51.9999 430.003 51.6339 430.003 51.1865V21.7382C429.987 21.5633 430.027 21.3884 430.119 21.242C430.183 21.1322 430.271 21.0386 430.375 20.9695L435.487 16.5447L436.522 17.7851L431.603 22.0391V50.3732H480.392V22.035L475.401 17.7119L476.436 16.4756L481.652 20.9898C481.796 21.0915 481.904 21.242 481.96 21.4169C481.995 21.5267 482.007 21.6405 481.995 21.7544V51.1906C481.987 51.6339 481.632 51.9999 481.188 51.9999Z" fill="#97A6BA"/>
<path d="M476.549 23.235H474.95V7.49591H436.795V23.235H435.195V5.86914H476.549V23.235Z" fill="#97A6BA"/>
<path d="M460.734 21.624H439.449V23.2508H460.734V21.624Z" fill="#97A6BA"/>
<path d="M460.734 26.9844H439.449V28.6111H460.734V26.9844Z" fill="#97A6BA"/>
<path d="M460.736 32.3447H443.834V33.9715H460.736V32.3447Z" fill="#97A6BA"/>
<path d="M471.957 21.624H463.57V23.2508H471.957V21.624Z" fill="#97A6BA"/>
<path d="M469.094 26.9844H463.57V28.6111H469.094V26.9844Z" fill="#97A6BA"/>
<path d="M459.359 12.161V16.3336H441.094V12.161H459.359ZM460.959 10.5342H439.494V17.9604H460.959V10.5342Z" fill="#97A6BA"/>
<path d="M470.317 12.161V16.3336H465.17V12.161H470.317ZM471.917 10.5342H463.57V17.9604H471.917V10.5342Z" fill="#97A6BA"/>
<path d="M464.055 37.8554H447.942C447.758 37.8554 447.578 37.7903 447.434 37.6724L430.232 23.3447L431.248 22.0881L448.23 36.2286H463.775L480.825 22.084L481.837 23.3447L464.563 37.6724C464.419 37.7903 464.239 37.8554 464.055 37.8554Z" fill="#97A6BA"/>
<path d="M432.815 51.4064L431.779 50.166L437.386 45.3182L441.614 41.6295C442.114 41.1984 442.762 40.629 443.414 40.0556L447.605 36.3994L448.649 37.6358L444.461 41.2919C443.81 41.8613 443.158 42.4307 442.658 42.8658L438.43 46.5586L432.815 51.4064Z" fill="#97A6BA"/>
<path d="M464.395 36.4031L463.354 37.6377L479.607 51.8198L480.649 50.5853L464.395 36.4031Z" fill="#97A6BA"/>
<path d="M479.922 136.052H432V107.976H479.922V136.052ZM433.614 134.452H478.307V109.576H433.614V134.452Z" fill="#97A6BA"/>
<path d="M455.941 128.283C455.094 128.283 454.295 127.999 453.689 127.487L432.277 109.355L432.802 107.947H479.081L479.606 109.355L458.194 127.487C457.584 127.999 456.785 128.283 455.941 128.283ZM434.986 109.547L454.735 126.271C455.045 126.531 455.481 126.683 455.937 126.683C456.394 126.683 456.833 126.531 457.14 126.271L476.889 109.547H434.986V109.547Z" fill="#97A6BA"/>
<path d="M447.866 121.25L432.453 134.462L433.509 135.672L448.922 122.46L447.866 121.25Z" fill="#97A6BA"/>
<path d="M464.193 121.253L463.137 122.463L478.549 135.675L479.605 134.465L464.193 121.253Z" fill="#97A6BA"/>
<path d="M456.765 96H455.15V101.2H456.765V96Z" fill="#97A6BA"/>
<path d="M446.288 97.9752L444.824 98.6504L447.037 103.361L448.5 102.686L446.288 97.9752Z" fill="#97A6BA"/>
<path d="M465.626 97.9797L463.414 102.69L464.878 103.365L467.09 98.6548L465.626 97.9797Z" fill="#97A6BA"/>
<path d="M456.765 142.8H455.15V148H456.765V142.8Z" fill="#97A6BA"/>
<path d="M464.88 140.639L463.416 141.314L465.629 146.025L467.092 145.35L464.88 140.639Z" fill="#97A6BA"/>
<path d="M447.032 140.636L444.82 145.347L446.284 146.022L448.496 141.311L447.032 140.636Z" fill="#97A6BA"/>
<path d="M46.4641 106.532H44.8701V105.048H42.6903V106.532H41.0964V104.664C41.0964 103.992 41.6423 103.448 42.3078 103.448H45.2527C45.9222 103.448 46.4641 103.992 46.4641 104.664V106.532Z" fill="#97A6BA"/>
<path d="M43.7822 140.64L41.1004 134.576V133.596H42.6944V134.236L43.7822 136.696L44.8701 134.236V133.596H46.4641V134.576L43.7822 140.64Z" fill="#97A6BA"/>
<path d="M26.627 152H2V100H37.9841V140.376H36.3902V101.6H3.59398V150.4H26.627V152Z" fill="#97A6BA"/>
<path d="M28.0536 151.532V141.856H37.494L28.0536 151.532ZM29.6476 143.452V147.608L33.7043 143.452H29.6476Z" fill="#97A6BA"/>
<path d="M30.3689 109.34H14.6881V110.94H30.3689V109.34Z" fill="#97A6BA"/>
<path d="M30.3689 113.288H14.6881V114.888H30.3689V113.288Z" fill="#97A6BA"/>
<path d="M9.53556 114.512L7.16451 112.944L8.0412 111.608L9.18488 112.364L11.4045 109.512L12.6637 110.496L9.53556 114.512Z" fill="#97A6BA"/>
<path d="M30.3689 121.116H14.6881V122.716H30.3689V121.116Z" fill="#97A6BA"/>
<path d="M30.3689 125.064H14.6881V126.664H30.3689V125.064Z" fill="#97A6BA"/>
<path d="M9.53556 126.292L7.16451 124.72L8.0412 123.384L9.18488 124.14L11.4045 121.288L12.6637 122.276L9.53556 126.292Z" fill="#97A6BA"/>
<path d="M30.3689 132.892H14.6881V134.492H30.3689V132.892Z" fill="#97A6BA"/>
<path d="M30.3689 136.844H14.6881V138.444H30.3689V136.844Z" fill="#97A6BA"/>
<path d="M9.53556 138.068L7.16451 136.496L8.0412 135.16L9.18488 135.92L11.4045 133.068L12.6637 134.052L9.53556 138.068Z" fill="#97A6BA"/>
<path d="M46.5 134.268H41.0606V107.792H46.5V134.268ZM42.6546 132.668H44.9061V109.392H42.6546V132.668Z" fill="#97A6BA"/>
<path d="M153.216 129.689H151.616V142.021H153.216V129.689Z" fill="#97A6BA"/>
<path d="M114.384 142.021H112.784V117.221C112.784 116.045 113.736 115.085 114.912 115.085H122.748V116.685H114.912C114.62 116.685 114.384 116.925 114.384 117.221V142.021Z" fill="#97A6BA"/>
<path d="M149.004 137.389H116.996V138.989H149.004V137.389Z" fill="#97A6BA"/>
<path d="M122.744 118.873H116.996V120.473H122.744V118.873Z" fill="#97A6BA"/>
<path d="M155.176 146.405H110.82C109.316 146.405 107.516 145.085 107.316 144.933L107 144.693V141.093H159V144.693L158.68 144.933C158.48 145.085 156.68 146.405 155.176 146.405ZM108.6 143.881C109.24 144.305 110.204 144.805 110.82 144.805H155.176C155.796 144.805 156.756 144.305 157.4 143.881V142.697H108.6V143.881Z" fill="#97A6BA"/>
<path d="M142.212 132.613L139.176 126.901H127.744C126.464 126.901 125.424 125.749 125.424 124.333V107.985C125.424 106.569 126.464 105.417 127.744 105.417H156.68C157.96 105.417 159 106.569 159 107.985V124.329C159 125.745 157.96 126.897 156.68 126.897H145.248L142.212 132.613ZM127.744 107.017C127.356 107.017 127.024 107.461 127.024 107.985V124.329C127.024 124.853 127.352 125.297 127.744 125.297H140.14L142.216 129.201L144.292 125.297H156.684C157.076 125.297 157.404 124.853 157.404 124.329V107.985C157.404 107.461 157.072 107.017 156.684 107.017H127.744Z" fill="#97A6BA"/>
<path d="M135.264 118.585C133.82 118.585 132.648 117.405 132.648 115.957C132.648 114.509 133.82 113.329 135.264 113.329C136.704 113.329 137.88 114.509 137.88 115.957C137.88 117.405 136.704 118.585 135.264 118.585ZM135.264 114.929C134.704 114.929 134.248 115.389 134.248 115.957C134.248 116.525 134.704 116.985 135.264 116.985C135.824 116.985 136.28 116.525 136.28 115.957C136.28 115.389 135.824 114.929 135.264 114.929Z" fill="#97A6BA"/>
<path d="M142.212 118.585C140.768 118.585 139.596 117.405 139.596 115.957C139.596 114.509 140.768 113.329 142.212 113.329C143.652 113.329 144.828 114.509 144.828 115.957C144.828 117.405 143.652 118.585 142.212 118.585ZM142.212 114.929C141.652 114.929 141.196 115.389 141.196 115.957C141.196 116.525 141.652 116.985 142.212 116.985C142.772 116.985 143.228 116.525 143.228 115.957C143.228 115.389 142.772 114.929 142.212 114.929Z" fill="#97A6BA"/>
<path d="M149.16 118.585C147.716 118.585 146.544 117.405 146.544 115.957C146.544 114.509 147.716 113.329 149.16 113.329C150.604 113.329 151.776 114.509 151.776 115.957C151.776 117.405 150.6 118.585 149.16 118.585ZM149.16 114.929C148.6 114.929 148.144 115.389 148.144 115.957C148.144 116.525 148.6 116.985 149.16 116.985C149.72 116.985 150.176 116.525 150.176 115.957C150.176 115.389 149.72 114.929 149.16 114.929Z" fill="#97A6BA"/>
<path d="M264.656 144.476L252.119 141.124C249.347 142.144 246.415 142.66 243.391 142.66C241.583 142.66 239.779 142.472 238.031 142.1L238.363 140.536C239.999 140.884 241.691 141.06 243.387 141.06C246.303 141.06 249.131 140.548 251.791 139.54L252.031 139.448L262.384 142.216L260.132 133.836L260.4 133.516C263.012 130.388 264.392 126.696 264.392 122.832C264.4 112.78 254.976 104.6 243.391 104.6C231.807 104.6 222.387 112.78 222.387 122.832C222.387 123.996 222.515 125.156 222.763 126.292L221.199 126.636C220.923 125.388 220.783 124.108 220.783 122.832C220.787 111.896 230.927 103 243.391 103C255.86 103 266 111.896 266 122.832C266 126.944 264.584 130.872 261.9 134.22L264.656 144.476Z" fill="#97A6BA"/>
<path d="M214.296 148.405L215.952 142.249C214.672 140.413 214 138.313 214 136.153C214 129.717 219.948 124.48 227.26 124.48C234.572 124.48 240.52 129.717 240.52 136.153C240.52 142.589 234.572 147.825 227.26 147.825C225.16 147.825 223.08 147.385 221.224 146.549L214.296 148.405ZM221.376 144.857L221.64 144.985C223.348 145.801 225.292 146.229 227.256 146.229C233.688 146.229 238.916 141.709 238.916 136.157C238.924 130.601 233.692 126.08 227.26 126.08C220.828 126.08 215.6 130.601 215.6 136.153C215.6 138.093 216.244 139.977 217.46 141.609L217.692 141.921L216.56 146.145L221.376 144.857Z" fill="#97A6BA"/>
<path d="M223.413 135.385H221.057V136.985H223.413V135.385Z" fill="#97A6BA"/>
<path d="M228.442 135.385H226.086V136.985H228.442V135.385Z" fill="#97A6BA"/>
<path d="M233.473 135.385H231.117V136.985H233.473V135.385Z" fill="#97A6BA"/>
<path d="M233.84 124.464C234.288 124.7 235.004 124.936 235.732 124.936C236.516 124.936 236.932 124.612 236.932 124.12C236.932 123.648 236.572 123.38 235.668 123.068C234.412 122.62 233.584 121.924 233.584 120.827C233.584 119.539 234.672 118.563 236.44 118.563C237.304 118.563 237.92 118.731 238.368 118.943L237.988 120.311C237.696 120.167 237.148 119.951 236.42 119.951C235.68 119.951 235.324 120.299 235.324 120.679C235.324 121.159 235.74 121.376 236.724 121.744C238.056 122.236 238.672 122.932 238.672 123.996C238.672 125.26 237.708 126.336 235.636 126.336C234.772 126.336 233.924 126.1 233.496 125.864L233.84 124.464Z" fill="#97A6BA"/>
<path d="M246.218 123.332C246.186 122.424 246.15 121.34 246.15 120.228H246.126C245.878 121.192 245.566 122.268 245.274 123.152L244.354 126.096H243.022L242.214 123.172C241.966 122.288 241.722 121.224 241.53 120.228H241.506C241.474 121.248 241.426 122.412 241.382 123.352L241.238 126.22H239.658L240.138 118.672H242.41L243.15 121.192C243.398 122.064 243.622 123.008 243.79 123.892H243.834C244.034 123.02 244.294 122.02 244.55 121.18L245.346 118.672H247.586L247.99 126.22H246.334L246.218 123.332Z" fill="#97A6BA"/>
<path d="M249.36 124.464C249.808 124.7 250.524 124.936 251.252 124.936C252.036 124.936 252.452 124.612 252.452 124.12C252.452 123.648 252.092 123.38 251.188 123.068C249.932 122.62 249.104 121.924 249.104 120.827C249.104 119.539 250.192 118.563 251.96 118.563C252.824 118.563 253.44 118.731 253.888 118.943L253.508 120.311C253.216 120.167 252.668 119.951 251.94 119.951C251.2 119.951 250.844 120.299 250.844 120.679C250.844 121.159 251.26 121.375 252.244 121.744C253.576 122.236 254.192 122.932 254.192 123.996C254.192 125.26 253.228 126.336 251.156 126.336C250.292 126.336 249.444 126.1 249.016 125.864L249.36 124.464Z" fill="#97A6BA"/>
<g clip-path="url(#clip0)">
<path d="M330.365 124.884H328.768V115.56C328.768 106.98 335.816 100 344.481 100C353.146 100 360.194 106.98 360.194 115.56V116.74H358.597V115.56C358.597 107.864 352.267 101.6 344.481 101.6C336.698 101.6 330.365 107.864 330.365 115.56V124.884Z" fill="#97A6BA"/>
<path d="M362.121 151.864H360.524V143.808C360.524 141.704 358.516 139.992 356.052 139.992H332.911C330.444 139.992 328.439 141.704 328.439 143.808V151.864H326.842V143.808C326.842 140.82 329.565 138.392 332.911 138.392H356.048C359.394 138.392 362.117 140.824 362.117 143.808V151.864H362.121Z" fill="#97A6BA"/>
<path d="M344.787 137.34C338.89 137.34 333.75 133.392 332.297 127.74L333.842 127.34C335.116 132.288 339.616 135.74 344.787 135.74C351.017 135.74 356.08 130.732 356.08 124.572V115.504H357.677V124.572C357.677 131.612 351.895 137.34 344.787 137.34Z" fill="#97A6BA"/>
<path d="M333.4 116.992H331.803V116.016C331.803 113.952 333.496 112.276 335.572 112.276H356.209C358.773 112.276 360.857 110.216 360.857 107.684V104.072H352.731V102.472H362.454V107.684C362.454 111.1 359.651 113.876 356.209 113.876H335.572C334.374 113.876 333.4 114.836 333.4 116.016V116.992V116.992Z" fill="#97A6BA"/>
<path d="M330.305 129.599H330.033C327.809 129.599 326 127.807 326 125.599V119.731C326 117.523 327.809 115.731 330.033 115.731H330.301C332.525 115.731 334.334 117.527 334.334 119.731V125.599C334.338 127.807 332.529 129.599 330.305 129.599ZM330.033 117.331C328.691 117.331 327.597 118.407 327.597 119.731V125.599C327.597 126.923 328.691 127.999 330.033 127.999H330.301C331.642 127.999 332.736 126.923 332.736 125.599V119.731C332.736 118.407 331.642 117.331 330.301 117.331H330.033Z" fill="#97A6BA"/>
<path d="M358.414 129.599H358.146C357.268 129.599 356.433 129.323 355.734 128.807L356.685 127.523C357.108 127.835 357.611 128.003 358.146 128.003H358.414C359.759 128.003 360.85 126.927 360.85 125.603V119.731C360.85 118.407 359.755 117.331 358.414 117.331H358.146C357.783 117.331 357.435 117.407 357.108 117.559L356.433 116.107C356.968 115.855 357.547 115.731 358.142 115.731H358.41C360.634 115.731 362.443 117.527 362.443 119.731V125.599C362.447 127.807 360.638 129.599 358.414 129.599Z" fill="#97A6BA"/>
<path d="M330.365 124.884H328.768V115.56C328.768 106.98 335.816 100 344.481 100V101.6C336.698 101.6 330.365 107.864 330.365 115.56V124.884Z" fill="#97A6BA"/>
<path d="M346.529 143.576H341.969L339.916 140.056L341.294 139.248L342.887 141.976H345.614L347.204 139.248L348.585 140.056L346.529 143.576Z" fill="#97A6BA"/>
<path d="M346.596 142.619L345.021 142.89L346.582 152.001L348.156 151.73L346.596 142.619Z" fill="#97A6BA"/>
<path d="M341.899 142.621L340.34 151.731L341.914 152.002L343.474 142.891L341.899 142.621Z" fill="#97A6BA"/>
<path d="M356.26 132.864H347.023V131.264H356.26C357.549 131.264 358.6 130.232 358.6 128.96H360.197C360.193 131.116 358.428 132.864 356.26 132.864Z" fill="#97A6BA"/>
<path d="M346.005 120.328H344.408V126.708H346.005V120.328Z" fill="#97A6BA"/>
</g>
<defs>
<clipPath id="clip0">
<rect width="36.4536" height="52" fill="white" transform="translate(326 100)"/>
</clipPath>
</defs>
</svg>
