<svg width="77" height="62" viewBox="0 0 77 62" fill="none" xmlns="http://www.w3.org/2000/svg">
<g clip-path="url(#clip0)">
<path d="M13.475 23.25C13.475 22.4792 13.1708 21.74 12.6293 21.195C12.0878 20.6499 11.3533 20.3438 10.5875 20.3438H2.8875C2.12169 20.3438 1.38724 20.6499 0.845729 21.195C0.304218 21.74 0 22.4792 0 23.25C0 24.0208 0.304218 24.76 0.845729 25.305C1.38724 25.8501 2.12169 26.1563 2.8875 26.1563H10.5875C11.3533 26.1563 12.0878 25.8501 12.6293 25.305C13.1708 24.76 13.475 24.0208 13.475 23.25ZM12.8831 34.7805L6.21534 38.6555C5.87969 38.8425 5.58442 39.0949 5.34677 39.398C5.10912 39.7011 4.93386 40.0488 4.83123 40.4209C4.72861 40.7929 4.70066 41.1818 4.74904 41.5649C4.79741 41.9479 4.92113 42.3174 5.11298 42.6517C5.30482 42.9861 5.56094 43.2787 5.86637 43.5123C6.17181 43.7459 6.52043 43.9159 6.89188 44.0124C7.26333 44.1089 7.65017 44.1299 8.02978 44.0743C8.4094 44.0186 8.77419 43.8874 9.10284 43.6882L15.7706 39.8132C16.4188 39.4204 16.888 38.7871 17.0771 38.0497C17.2662 37.3122 17.1601 36.5295 16.7817 35.87C16.4033 35.2105 15.7828 34.7268 15.0537 34.5231C14.3246 34.3193 13.5451 34.4118 12.8831 34.7805ZM15.7706 6.6868L9.10284 2.8118C8.77419 2.61264 8.4094 2.4814 8.02978 2.42573C7.65017 2.37006 7.26333 2.39109 6.89188 2.48758C6.52043 2.58408 6.17181 2.7541 5.86637 2.98772C5.56094 3.22135 5.30482 3.51389 5.11298 3.84825C4.92113 4.18262 4.79741 4.55211 4.74904 4.93514C4.70066 5.31818 4.72861 5.70707 4.83123 6.07911C4.93386 6.45115 5.10912 6.79888 5.34677 7.10199C5.58442 7.40509 5.87969 7.6575 6.21534 7.84445L12.8831 11.7195C13.2117 11.9186 13.5765 12.0499 13.9561 12.1055C14.3357 12.1612 14.7226 12.1402 15.094 12.0437C15.4655 11.9472 15.8141 11.7772 16.1195 11.5435C16.425 11.3099 16.6811 11.0174 16.8729 10.683C17.0648 10.3486 17.1885 9.97914 17.2369 9.59611C17.2852 9.21308 17.2573 8.82418 17.1547 8.45214C17.052 8.0801 16.8768 7.73237 16.6391 7.42927C16.4015 7.12616 16.1062 6.87376 15.7706 6.6868ZM62.6756 12.1094C63.1827 12.1104 63.6809 11.9758 64.1193 11.7195L70.7871 7.84445C71.4353 7.45162 71.9045 6.81836 72.0936 6.08092C72.2827 5.34348 72.1766 4.5608 71.7982 3.90127C71.4198 3.24173 70.7993 2.75806 70.0702 2.55431C69.3411 2.35057 68.5616 2.44302 67.8996 2.8118L61.2318 6.6868C60.6816 7.0068 60.2517 7.50055 60.0086 8.0915C59.7656 8.68245 59.723 9.3376 59.8875 9.95539C60.0519 10.5732 60.4143 11.1191 60.9184 11.5085C61.4225 11.898 62.0401 12.1092 62.6756 12.1094ZM74.1125 20.3438H66.4125C65.6467 20.3438 64.9122 20.6499 64.3707 21.195C63.8292 21.74 63.525 22.4792 63.525 23.25C63.525 24.0208 63.8292 24.76 64.3707 25.305C64.9122 25.8501 65.6467 26.1563 66.4125 26.1563H74.1125C74.8783 26.1563 75.6128 25.8501 76.1543 25.305C76.6958 24.76 77 24.0208 77 23.25C77 22.4792 76.6958 21.74 76.1543 21.195C75.6128 20.6499 74.8783 20.3438 74.1125 20.3438ZM70.7847 38.6568L64.1169 34.7818C63.7883 34.5826 63.4235 34.4514 63.0439 34.3957C62.6643 34.34 62.2774 34.361 61.906 34.4575C61.5345 34.554 61.1859 34.7241 60.8805 34.9577C60.575 35.1913 60.3189 35.4838 60.1271 35.8182C59.9352 36.1526 59.8115 36.5221 59.7631 36.9051C59.7148 37.2881 59.7427 37.677 59.8453 38.0491C59.948 38.4211 60.1232 38.7688 60.3609 39.0719C60.5985 39.3751 60.8938 39.6275 61.2294 39.8144L67.8972 43.6894C68.5592 44.0582 69.3387 44.1506 70.0678 43.9469C70.7969 43.7431 71.4174 43.2595 71.7958 42.5999C72.1742 41.9404 72.2803 41.1577 72.0912 40.4203C71.9021 39.6828 71.4329 39.0496 70.7847 38.6568ZM38.5 1.67983e-06C26.1944 1.67983e-06 17.325 10.0508 17.325 21.3125C17.3179 26.4722 19.1813 31.4573 22.5658 35.3327C24.5666 37.6335 27.7092 42.453 28.8714 46.4927V46.5H34.6464V46.4855C34.6461 45.9078 34.5598 45.3335 34.3901 44.7817C33.7176 42.625 31.6422 36.9409 26.9091 31.5025C24.4546 28.6831 23.1032 25.0611 23.1072 21.3125C23.0807 12.3952 30.2851 5.8125 38.5 5.8125C41.4575 5.81047 44.353 6.66624 46.8399 8.2774C49.3268 9.88856 51.2997 12.1869 52.5226 14.8972C53.7454 17.6076 54.1664 20.6152 53.7352 23.5601C53.3039 26.5051 52.0387 29.2625 50.0909 31.5025C45.3879 36.9045 43.3053 42.579 42.6207 44.7575C42.4573 45.3211 42.3664 45.9034 42.35 46.4903V46.5H48.125C49.2908 42.4591 52.4298 37.6384 54.4306 35.3412C57.111 32.2612 58.8529 28.469 59.4476 24.4185C60.0423 20.368 59.4647 16.2308 57.7839 12.5021C56.1032 8.77339 53.3904 5.61118 49.9704 3.39394C46.5505 1.1767 42.5681 -0.00162397 38.5 1.67983e-06ZM38.5 9.6875C35.4378 9.69103 32.5021 10.9169 30.3368 13.0963C28.1715 15.2756 26.9535 18.2304 26.95 21.3125C26.95 21.8264 27.1528 22.3192 27.5138 22.6825C27.8748 23.0459 28.3645 23.25 28.875 23.25C29.3855 23.25 29.8752 23.0459 30.2362 22.6825C30.5972 22.3192 30.8 21.8264 30.8 21.3125C30.8025 19.2579 31.6146 17.2881 33.0581 15.8353C34.5016 14.3824 36.4586 13.5651 38.5 13.5625C39.0105 13.5625 39.5002 13.3584 39.8612 12.995C40.2222 12.6317 40.425 12.1389 40.425 11.625C40.425 11.1111 40.2222 10.6183 39.8612 10.255C39.5002 9.89163 39.0105 9.6875 38.5 9.6875ZM28.8822 55.605C28.8832 55.9861 28.9957 56.3585 29.2059 56.6755L32.1535 61.1354C32.3291 61.4011 32.5671 61.619 32.8465 61.7699C33.1258 61.9207 33.4379 61.9997 33.7549 62H43.2415C43.5591 62.0003 43.8719 61.9216 44.152 61.7707C44.432 61.6199 44.6706 61.4016 44.8465 61.1354L47.7941 56.6719C48.003 56.3542 48.1154 55.9823 48.1178 55.6014L48.125 50.375H28.875L28.8822 55.605Z" fill="white"/>
</g>
<defs>
<clipPath id="clip0">
<rect width="77" height="62" fill="white"/>
</clipPath>
</defs>
</svg>
