<svg width="21" height="24" viewBox="0 0 21 24" fill="none" xmlns="http://www.w3.org/2000/svg">
<g clip-path="url(#clip0)">
<path d="M10.5 19.3125C9.77344 19.3125 9.1875 18.7266 9.1875 18V15C9.1875 14.2735 9.77344 13.6875 10.5 13.6875C11.2266 13.6875 11.8125 14.2735 11.8125 15V18C11.8125 18.7266 11.2266 19.3125 10.5 19.3125ZM21 11.25V21.75C21 22.9922 19.9922 24.0001 18.75 24.0001H2.25C1.00781 24.0001 0 22.9922 0 21.75V11.25C0 10.0078 1.00781 9.00003 2.25 9.00003H3.75V6.75003C3.75 3.02346 6.7875 -0.00935334 10.5187 2.16766e-05C14.25 0.00939669 17.25 3.0844 17.25 6.81565V9.00003H18.75C19.9922 9.00003 21 10.0078 21 11.25ZM6 9.00003H15V6.75003C15 4.27034 12.9797 2.25002 10.5 2.25002C8.02031 2.25002 6 4.27034 6 6.75003V9.00003ZM18.75 11.25H2.25V21.75H18.75V11.25Z" fill="#97A6BA"/>
</g>
<defs>
<clipPath id="clip0">
<rect width="21" height="24" fill="white"/>
</clipPath>
</defs>
</svg>
