<svg width="21" height="24" viewBox="0 0 21 24" fill="none" xmlns="http://www.w3.org/2000/svg">
<g clip-path="url(#clip0)">
<path d="M18.8486 11.25H6.09863V6.80628C6.09863 4.33128 8.07207 2.27346 10.5518 2.25002C13.0549 2.2219 15.0986 4.25159 15.0986 6.75003V7.87503C15.0986 8.49847 15.6002 9.00003 16.2236 9.00003C16.8471 9.00003 17.3486 8.49847 17.3486 7.87503V6.81565C17.3486 3.0844 14.3486 0.00939669 10.6127 2.16766e-05C6.88613 -0.00935334 3.84863 3.02346 3.84863 6.75003V11.25H2.34863C1.10645 11.25 0.0986328 12.2578 0.0986328 13.5V21.75C0.0986328 22.9922 1.10645 24.0001 2.34863 24.0001H18.8486C20.0908 24.0001 21.0986 22.9922 21.0986 21.75V13.5C21.0986 12.2578 20.0908 11.25 18.8486 11.25ZM18.8486 21.75H2.34863V13.5H18.8486V21.75ZM10.5986 20.25C9.87207 20.25 9.28613 19.6641 9.28613 18.9375V16.3125C9.28613 15.586 9.87207 15 10.5986 15C11.3252 15 11.9111 15.586 11.9111 16.3125V18.9375C11.9111 19.6641 11.3252 20.25 10.5986 20.25Z" fill="#27303F"/>
</g>
<defs>
<clipPath id="clip0">
<rect width="21" height="24" fill="white"/>
</clipPath>
</defs>
</svg>
