<svg xmlns="http://www.w3.org/2000/svg" xmlns:xlink="http://www.w3.org/1999/xlink" viewBox="0 0 148.5 37.29"><defs><style>.cls-1{fill:url(#linear-gradient);}.cls-2{fill:url(#linear-gradient-2);}.cls-3{fill:url(#linear-gradient-3);}.cls-4{fill:url(#linear-gradient-4);}.cls-5,.cls-7,.cls-9{fill:#1a1f2d;}.cls-5{clip-rule:evenodd;}.cls-6{fill:#364152;}.cls-7{fill-rule:evenodd;}.cls-8{clip-path:url(#clip-path);}.cls-10{mask:url(#mask);}.cls-11{mask:url(#mask-2);}.cls-12{clip-path:url(#clip-path-2);}.cls-13{mask:url(#mask-3);}.cls-14{mask:url(#mask-4);}.cls-15{fill:#65748b;}</style><linearGradient id="linear-gradient" x1="-183.24" y1="234.61" x2="-201.8" y2="202.47" gradientTransform="translate(217.2 -192.92)" gradientUnits="userSpaceOnUse"><stop offset="0" stop-color="#fff"/><stop offset="1"/></linearGradient><linearGradient id="linear-gradient-2" x1="-188.96" y1="264.23" x2="-175.98" y2="241.74" gradientTransform="translate(193.74 -225.11)" xlink:href="#linear-gradient"/><linearGradient id="linear-gradient-3" x1="-145.33" y1="322.68" x2="-145.33" y2="246.55" gradientTransform="translate(161.55 -250.45)" xlink:href="#linear-gradient"/><linearGradient id="linear-gradient-4" x1="-143.7" y1="263.16" x2="-177.92" y2="282.92" gradientTransform="translate(194.25 -269.66)" xlink:href="#linear-gradient"/><clipPath id="clip-path" transform="translate(0 0.52)"><path class="cls-5" d="M29.82,31.48c0-3.48,2.24-8.18,1.89-11.9a9.69,9.69,0,0,1-5.1-2.32,13.73,13.73,0,0,0,5,1.17s.51-7.5-7.73-9.15a10.24,10.24,0,0,1,4.39,4.24c-2.51-3.17-8.17-4.58-11.56-2-3.19,2.39-2.46,7.45-8.23,10.77a22.86,22.86,0,0,1,8.62,6.06l1.8-9.17v11s4.21,5.65,8.07,6.68c0,0-.61-6.71,1.27-10a5.87,5.87,0,0,1-4-5.75l5.32,4.38c-.6,1.61-1.63,4.94.3,6"/></clipPath><mask id="mask" x="14.63" y="9.8" width="17.12" height="27.49" maskUnits="userSpaceOnUse"><g transform="translate(0 0.52)"><rect class="cls-1" x="14.63" y="9.28" width="17.12" height="27.49"/></g></mask><mask id="mask-2" x="8.46" y="19.67" width="10.42" height="9.17" maskUnits="userSpaceOnUse"><g transform="translate(0 0.52)"><rect class="cls-2" x="8.46" y="19.14" width="10.42" height="9.17"/></g></mask><clipPath id="clip-path-2" transform="translate(0 0.52)"><path class="cls-5" d="M0,21.48s7.24,1.11,10.08-2.29S13.45,9.39,20.44,9a6.29,6.29,0,0,0-4.81.47c2.69-2.27,7.42-2,10.83-.54a9.29,9.29,0,0,1,6,8.28,24.75,24.75,0,0,1,8.82-.83,9.39,9.39,0,0,0-5.43-1.64,8.41,8.41,0,0,1,4.9-.09S39.44,9,36.57,6.12L34.06,7.79l1.73-2.47S32.17.87,26.88.44L25.73,5.32,25.43.19,24.07,4.87,24,0A15.89,15.89,0,0,0,13.87,2.94l1.36,2.75L13.1,3.43A13.23,13.23,0,0,0,8.59,9.28l2.81,1.55-3.17-.6c-.52,1.41-1,2.88-1.67,4.45C5.15,17.79,3.1,20.83,0,21.48"/></clipPath><mask id="mask-3" x="0" y="7.14" width="32.42" height="15.04" maskUnits="userSpaceOnUse"><g transform="translate(0 0.52)"><rect class="cls-3" y="6.61" width="32.42" height="15.04"/></g></mask><mask id="mask-4" x="8.59" y="0.52" width="32.64" height="16.6" maskUnits="userSpaceOnUse"><g transform="translate(0 0.52)"><rect class="cls-4" x="8.59" width="32.64" height="16.6"/></g></mask></defs><title>Asset 4</title><g id="Layer_2" data-name="Layer 2"><g id="Layer_1-2" data-name="Layer 1"><path class="cls-6" d="M48.74,19.58h.19a1.53,1.53,0,0,1,1.2.57,1.69,1.69,0,0,1,0,2.4,1.69,1.69,0,0,1-1.25.57H41.09a1.47,1.47,0,0,0-1.46,1.46,1.42,1.42,0,0,0,.42,1,1.44,1.44,0,0,0,1,.45h.76a2.72,2.72,0,0,0-.45.5,2.28,2.28,0,0,0-.19,2.17,2.19,2.19,0,0,0,.64.87h-1a4.9,4.9,0,0,1-2.33-.68,5.34,5.34,0,0,1-1.73-1.68,5,5,0,0,1-.75-2.67,4.94,4.94,0,0,1,1.08-3.11,5.36,5.36,0,0,1,1.7-1.37A4.56,4.56,0,0,1,41,19.58h7.74Zm-2.81,6.51a4.71,4.71,0,0,1,2.55.9,4.12,4.12,0,0,1,1.28,1.28,4.83,4.83,0,0,1,.87,2.83A4.66,4.66,0,0,1,50.25,33a5,5,0,0,1-1.16,1.75,5.23,5.23,0,0,1-1.67,1.06,5,5,0,0,1-1.82.33H38.07c-.24,0-.38,0-.47,0a1.82,1.82,0,0,1-1.09-.61,1.77,1.77,0,0,1,1.23-2.91H45.6a1.58,1.58,0,0,0,.92-.3,1.43,1.43,0,0,0,.57-1.16,1.5,1.5,0,0,0-1.46-1.49h-.76a2.53,2.53,0,0,0,.57-.73,2.35,2.35,0,0,0,.23-1,2,2,0,0,0-.16-.85,2.12,2.12,0,0,0-.64-.9Zm-2.6,0h0a1.51,1.51,0,0,1,.31,0,1.65,1.65,0,0,1,1.1.69,1.68,1.68,0,0,1,.36,1.06,1.74,1.74,0,0,1-1.32,1.73,3.2,3.2,0,0,1-.48,0l-.37,0a1.88,1.88,0,0,1-1.11-.78,2,2,0,0,1-.26-1,1.75,1.75,0,0,1,1.49-1.75A1.06,1.06,0,0,1,43.33,26.07Z" transform="translate(0 0.52)"/><path class="cls-6" d="M61.87,19.58h.05a1.89,1.89,0,0,1,.37,0,4.73,4.73,0,0,1,3.48,1.66,5,5,0,0,1-3.71,8.35H56v4.72a1.62,1.62,0,0,1-.47,1.21,1.69,1.69,0,0,1-1.3.56A1.94,1.94,0,0,1,53,35.58a1.76,1.76,0,0,1-.49-1.25V25.25a2.58,2.58,0,0,0,.75.56,2.62,2.62,0,0,0,1,.24l.83,0h7a1.6,1.6,0,0,0,.8-.28,1.45,1.45,0,0,0,.59-1.21A1.39,1.39,0,0,0,63,23.47a1.25,1.25,0,0,0-.9-.35H56v.69a1.63,1.63,0,0,1-.59,1.27,1.77,1.77,0,0,1-2.5-.14,1.62,1.62,0,0,1-.45-1.09v-2.5a1.6,1.6,0,0,1,.42-1.13,1.67,1.67,0,0,1,1.33-.64h7.62Z" transform="translate(0 0.52)"/><path class="cls-6" d="M71.81,23.76a1.63,1.63,0,0,1,.88.23,1.76,1.76,0,0,1,.85,1,2.18,2.18,0,0,1,.07.52,1.59,1.59,0,0,1-.17.73l-5,8.88a1.72,1.72,0,0,1-.66.68,1.76,1.76,0,0,1-2.19-.28,1.72,1.72,0,0,1-.5-1.23,1.78,1.78,0,0,1,.21-.85l5-8.87a1.56,1.56,0,0,1,1.44-.85Zm2.93-4.09a1.49,1.49,0,0,1,.5.26,1.59,1.59,0,0,1,.51.62L83,33.48a1.6,1.6,0,0,1,.23.85,1.73,1.73,0,0,1-.54,1.28,1.68,1.68,0,0,1-1.23.49,1.78,1.78,0,0,1-.92-.26,2,2,0,0,1-.66-.68l-6-10.74a1.55,1.55,0,0,0-.4-.52,1.65,1.65,0,0,0-.47-.35,0,0,0,0,0,0-.05,2.25,2.25,0,0,0-.87-.26h-.24a2.4,2.4,0,0,0-.8.14l1.56-2.81a1.84,1.84,0,0,1,1.6-1A1.45,1.45,0,0,1,74.74,19.67Z" transform="translate(0 0.52)"/><path class="cls-6" d="M93.39,19.58h.41a5,5,0,0,1,4.74,5,4.85,4.85,0,0,1-1.39,3.47,5.11,5.11,0,0,1-1.35,1l2.46,3a2.55,2.55,0,0,0-.4,0,2.22,2.22,0,0,0-1.59.61,2.29,2.29,0,0,0-.75,1.66l-3.71-4.51,0,0a.53.53,0,0,0-.1-.14H88.63v4.72a1.63,1.63,0,0,1-.48,1.21,1.68,1.68,0,0,1-1.29.56,1.92,1.92,0,0,1-1.28-.52,1.77,1.77,0,0,1-.5-1.25V25.25a2.77,2.77,0,0,0,.76.56,2.58,2.58,0,0,0,1,.24l.82,0h5.93a1.6,1.6,0,0,0,.8-.28A1.45,1.45,0,0,0,95,24.58a1.39,1.39,0,0,0-.52-1.11,1.25,1.25,0,0,0-.9-.35h-5v.69A1.63,1.63,0,0,1,88,25.08a1.76,1.76,0,0,1-1.18.45,1.79,1.79,0,0,1-1.33-.59,1.85,1.85,0,0,1-.45-1.09V21.33a1.72,1.72,0,0,1,.43-1.14,1.64,1.64,0,0,1,1.32-.61h6.56ZM99,33a1.48,1.48,0,0,1,.33.38,1.64,1.64,0,0,1,.31,1A1.71,1.71,0,0,1,99,35.7a1.65,1.65,0,0,1-1.1.4h-.19a1.94,1.94,0,0,1-.92-.4,2.25,2.25,0,0,1-.5-.59,2.13,2.13,0,0,1-.17-.78,1.73,1.73,0,0,1,.52-1.27,1.81,1.81,0,0,1,1.26-.5A1.68,1.68,0,0,1,99,33Z" transform="translate(0 0.52)"/><path class="cls-6" d="M109.8,19.58a1.48,1.48,0,0,1,1.16.47,1.76,1.76,0,0,1,.52.85,1.74,1.74,0,0,1,0,.54V34.33a1.62,1.62,0,0,1-.47,1.21,1.69,1.69,0,0,1-1.3.56,1.94,1.94,0,0,1-1.28-.52,1.76,1.76,0,0,1-.49-1.25V23.12h-4.72a1.76,1.76,0,0,1-1.77-1.77,1.79,1.79,0,0,1,.51-1.27,1.81,1.81,0,0,1,1.26-.5h6.53Zm6.45,0h0a1.67,1.67,0,0,1,1.14.43,1.58,1.58,0,0,1,.61,1.32v0a1.64,1.64,0,0,1-.59,1.3,1.72,1.72,0,0,1-1.18.45h-4.18V21.35a2.27,2.27,0,0,0-.83-1.77Z" transform="translate(0 0.52)"/><path class="cls-6" d="M120.69,23.76a1.6,1.6,0,0,1,.87.23,1.69,1.69,0,0,1,.85,1,1.77,1.77,0,0,1,.07.52,1.58,1.58,0,0,1-.16.73l-5,8.88a1.79,1.79,0,0,1-.66.68,1.76,1.76,0,0,1-2.19-.28,1.72,1.72,0,0,1-.5-1.23,1.78,1.78,0,0,1,.21-.85l5-8.87a1.57,1.57,0,0,1,1.44-.85Zm2.93-4.09a1.36,1.36,0,0,1,.49.26,1.62,1.62,0,0,1,.52.62l7.23,12.93a1.6,1.6,0,0,1,.23.85,1.73,1.73,0,0,1-.54,1.28,1.7,1.7,0,0,1-1.23.49,1.75,1.75,0,0,1-.92-.26,2,2,0,0,1-.66-.68l-6-10.74a1.68,1.68,0,0,0-.4-.52,1.65,1.65,0,0,0-.47-.35.05.05,0,0,0,0-.05,2.3,2.3,0,0,0-.87-.26h-.24a2.4,2.4,0,0,0-.8.14l1.56-2.81a1.84,1.84,0,0,1,1.6-1A1.48,1.48,0,0,1,123.62,19.67Z" transform="translate(0 0.52)"/><path class="cls-6" d="M136.44,19.72a1.74,1.74,0,0,1,.62.45l7.76,9.18a2.6,2.6,0,0,0,.69.59,2.53,2.53,0,0,0,2.29.07,2.64,2.64,0,0,0,.7-.49v4.81a1.7,1.7,0,0,1-.44,1.18,1.79,1.79,0,0,1-1.33.59,1.7,1.7,0,0,1-1.39-.68l-7.72-9.09a.5.5,0,0,0-.12-.14,1.72,1.72,0,0,0-.7-.52,2.37,2.37,0,0,0-1-.24h0a2.39,2.39,0,0,0-1.06.24,1.83,1.83,0,0,0-.69.52V21.35a1.65,1.65,0,0,1,.55-1.27,1.72,1.72,0,0,1,1.22-.5A1.8,1.8,0,0,1,136.44,19.72Zm-.68,6.21a1.58,1.58,0,0,1,.82.19,1.43,1.43,0,0,1,.92,1.39v6.82a1.76,1.76,0,0,1-1.77,1.77,1.73,1.73,0,0,1-1.41-.7,1.79,1.79,0,0,1-.36-1.07V27.51a1.65,1.65,0,0,1,.55-1.13,1.68,1.68,0,0,1,1.2-.45ZM147.87,20a1.61,1.61,0,0,1,.63,1.34V28.2a1.48,1.48,0,0,1-.63,1.2,1.88,1.88,0,0,1-1.14.35,1.78,1.78,0,0,1-1.44-.66,1.44,1.44,0,0,1-.33-.89V21.35a1.65,1.65,0,0,1,.55-1.27,1.73,1.73,0,0,1,2.36-.07Z" transform="translate(0 0.52)"/><path class="cls-7" d="M29.82,31.48c0-3.48,2.24-8.18,1.89-11.9a9.69,9.69,0,0,1-5.1-2.32,13.73,13.73,0,0,0,5,1.17s.51-7.5-7.73-9.15a10.24,10.24,0,0,1,4.39,4.24c-2.51-3.17-8.17-4.58-11.56-2-3.19,2.39-2.46,7.45-8.23,10.77a22.86,22.86,0,0,1,8.62,6.06l1.8-9.17v11s4.21,5.65,8.07,6.68c0,0-.61-6.71,1.27-10a5.87,5.87,0,0,1-4-5.75l5.32,4.38c-.6,1.61-1.63,4.94.3,6" transform="translate(0 0.52)"/><g class="cls-8"><rect class="cls-9" x="8.46" y="9.47" width="23.64" height="27.83"/></g><g class="cls-10"><path class="cls-7" d="M29.82,31.48c0-3.2,1.88-7.41,1.93-11-4.11-.33-5.14-3.26-5.14-3.26a13.73,13.73,0,0,0,5,1.17s.51-7.5-7.73-9.15a10.24,10.24,0,0,1,4.39,4.24c-2.51-3.17-8.17-4.58-11.56-2a7.11,7.11,0,0,0-2.06,2.69c1.17-1.84,5.87-1.61,7.3,1.57a4.86,4.86,0,0,0-.55-2.41s2.65,2,1,8,.28,8.94.28,8.94a6.55,6.55,0,0,1-2-4.88S19,32.16,27,36.77c0,0-.61-6.71,1.27-10a5.87,5.87,0,0,1-4-5.75l5.32,4.38c-.6,1.61-1.63,4.94.3,6" transform="translate(0 0.52)"/></g><g class="cls-11"><path class="cls-7" d="M8.46,22.25a22.86,22.86,0,0,1,8.62,6.06l1.8-9.17s-3.06,4.48-10.42,3.11" transform="translate(0 0.52)"/></g><path class="cls-7" d="M0,21.48s7.24,1.11,10.08-2.29S13.45,9.39,20.44,9a6.29,6.29,0,0,0-4.81.47c2.69-2.27,7.42-2,10.83-.54a9.29,9.29,0,0,1,6,8.28,24.75,24.75,0,0,1,8.82-.83,9.39,9.39,0,0,0-5.43-1.64,8.41,8.41,0,0,1,4.9-.09S39.44,9,36.57,6.12L34.06,7.79l1.73-2.47S32.17.87,26.88.44L25.73,5.32,25.43.19,24.07,4.87,24,0A15.89,15.89,0,0,0,13.87,2.94l1.36,2.75L13.1,3.43A13.23,13.23,0,0,0,8.59,9.28l2.81,1.55-3.17-.6c-.52,1.41-1,2.88-1.67,4.45C5.15,17.79,3.1,20.83,0,21.48" transform="translate(0 0.52)"/><g class="cls-12"><rect class="cls-9" width="41.24" height="23.12"/></g><g class="cls-13"><path class="cls-7" d="M0,21.48s7.24,1.11,10.08-2.29S13.45,9.39,20.44,9a6.29,6.29,0,0,0-4.81.47c2.69-2.27,7.42-2,10.83-.54a9.29,9.29,0,0,1,6,8.28c.08-5.67-3.47-8.55-7.19-9.8-3.37-1.12-7.58-1.06-10,.71C10.92,11.23,11,16.92,7.86,19a22.64,22.64,0,0,0,1.3-3.47C6.55,21,0,21.48,0,21.48" transform="translate(0 0.52)"/></g><g class="cls-14"><path class="cls-7" d="M14.52,4.94,13.1,3.43A13.23,13.23,0,0,0,8.59,9.28h0a15.08,15.08,0,0,1,5.93-4.34m9.54-.55L24,0A15.89,15.89,0,0,0,13.87,2.94l.93,1.89a15,15,0,0,1,5.32-1A14.64,14.64,0,0,1,24.06,4.39Zm1.65.55L25.43.19,24.2,4.42A14.91,14.91,0,0,1,25.71,4.94ZM34.9,16.6a21.09,21.09,0,0,1,6.34-.27,9.39,9.39,0,0,0-5.43-1.64,8.41,8.41,0,0,1,4.9-.09S39.44,9,36.57,6.12L34.06,7.79l1.73-2.47S32.17.87,26.88.44L25.81,5A15,15,0,0,1,34.9,16.6Z" transform="translate(0 0.52)"/></g><path class="cls-15" d="M91.49,13.17a1.84,1.84,0,0,0-.56-.11.72.72,0,0,0-.42.11.3.3,0,0,0-.16.27.41.41,0,0,0,.11.28,1.06,1.06,0,0,0,.27.18l.46.15c.26.08.48.16.65.23a1.21,1.21,0,0,1,.43.35,1,1,0,0,1,.18.61,1,1,0,0,1-.19.62,1.29,1.29,0,0,1-.53.41,2.13,2.13,0,0,1-.78.14,2.56,2.56,0,0,1-.9-.17,2.75,2.75,0,0,1-.76-.46l.32-.64a2.21,2.21,0,0,0,.66.43,1.72,1.72,0,0,0,.69.16.87.87,0,0,0,.49-.12.38.38,0,0,0,.18-.33.37.37,0,0,0-.11-.28.73.73,0,0,0-.27-.17,3.11,3.11,0,0,0-.46-.15,6.55,6.55,0,0,1-.65-.23,1.18,1.18,0,0,1-.43-.34.93.93,0,0,1-.18-.6,1,1,0,0,1,.18-.59,1.12,1.12,0,0,1,.52-.4,2,2,0,0,1,.77-.14,2.78,2.78,0,0,1,.75.11,2.51,2.51,0,0,1,.66.31l-.3.65A2.63,2.63,0,0,0,91.49,13.17Z" transform="translate(0 0.52)"/><path class="cls-15" d="M97.43,12.44,96,15.08v1.28h-.75V15.11l-1.47-2.67h.77l1.07,1.84,1.05-1.84Z" transform="translate(0 0.52)"/><path class="cls-15" d="M100.88,13.17a1.84,1.84,0,0,0-.56-.11.72.72,0,0,0-.42.11.3.3,0,0,0-.16.27.41.41,0,0,0,.11.28.91.91,0,0,0,.27.18l.45.15a6.87,6.87,0,0,1,.66.23,1.21,1.21,0,0,1,.43.35,1,1,0,0,1,.18.61,1,1,0,0,1-.19.62,1.29,1.29,0,0,1-.53.41,2.13,2.13,0,0,1-.78.14,2.52,2.52,0,0,1-.9-.17,2.75,2.75,0,0,1-.76-.46l.32-.64a2.21,2.21,0,0,0,.66.43,1.72,1.72,0,0,0,.69.16.87.87,0,0,0,.49-.12.38.38,0,0,0,.18-.33.37.37,0,0,0-.11-.28.73.73,0,0,0-.27-.17,3.56,3.56,0,0,0-.46-.15,6.55,6.55,0,0,1-.65-.23,1.18,1.18,0,0,1-.43-.34.93.93,0,0,1-.18-.6,1,1,0,0,1,.18-.59,1.15,1.15,0,0,1,.51-.4,2.07,2.07,0,0,1,.77-.14,2.79,2.79,0,0,1,.76.11,2.51,2.51,0,0,1,.66.31l-.3.65A2.63,2.63,0,0,0,100.88,13.17Z" transform="translate(0 0.52)"/><path class="cls-15" d="M103.23,12.44h3.2v.67h-1.22v3.25h-.76V13.11h-1.22Z" transform="translate(0 0.52)"/><path class="cls-15" d="M108.08,12.44H111v.66h-2.12v1h1.91v.65h-1.91v1H111v.65h-2.94Z" transform="translate(0 0.52)"/><path class="cls-15" d="M112.9,12.44h.86l1.3,2.53,1.29-2.53h.85v3.92h-.69V13.55L115.29,16h-.48l-1.22-2.41v2.81h-.69Z" transform="translate(0 0.52)"/><path class="cls-15" d="M124.46,12.69a1.89,1.89,0,0,1,.73.7,2,2,0,0,1,.26,1,1.88,1.88,0,0,1-.27,1,1.82,1.82,0,0,1-.73.7,2.22,2.22,0,0,1-1.07.25h-1.6V12.44h1.63A2.26,2.26,0,0,1,124.46,12.69Zm-.39,2.85a1.24,1.24,0,0,0,.45-.46,1.35,1.35,0,0,0,.16-.67,1.3,1.3,0,0,0-.17-.68,1.13,1.13,0,0,0-.46-.46,1.29,1.29,0,0,0-.65-.17h-.87v2.6h.89A1.28,1.28,0,0,0,124.07,15.54Z" transform="translate(0 0.52)"/><path class="cls-15" d="M127.22,12.44h2.88v.66H128v1h1.9v.65H128v1h2.18v.65h-2.94Z" transform="translate(0 0.52)"/><path class="cls-15" d="M133.89,13.17a1.84,1.84,0,0,0-.56-.11.72.72,0,0,0-.42.11.3.3,0,0,0-.16.27.41.41,0,0,0,.11.28.91.91,0,0,0,.27.18l.45.15a6.87,6.87,0,0,1,.66.23,1.21,1.21,0,0,1,.43.35,1,1,0,0,1,.18.61,1,1,0,0,1-.19.62,1.29,1.29,0,0,1-.53.41,2.13,2.13,0,0,1-.78.14,2.52,2.52,0,0,1-.9-.17,2.75,2.75,0,0,1-.76-.46l.32-.64a2.21,2.21,0,0,0,.66.43,1.72,1.72,0,0,0,.69.16.87.87,0,0,0,.49-.12.38.38,0,0,0,.18-.33.37.37,0,0,0-.11-.28.73.73,0,0,0-.27-.17,3.56,3.56,0,0,0-.46-.15,6.55,6.55,0,0,1-.65-.23,1.18,1.18,0,0,1-.43-.34.93.93,0,0,1-.18-.6,1,1,0,0,1,.18-.59,1.15,1.15,0,0,1,.51-.4,2.07,2.07,0,0,1,.77-.14,2.79,2.79,0,0,1,.76.11,2.51,2.51,0,0,1,.66.31l-.3.65A2.63,2.63,0,0,0,133.89,13.17Z" transform="translate(0 0.52)"/><path class="cls-15" d="M136.68,12.44h.75v3.92h-.75Z" transform="translate(0 0.52)"/><path class="cls-15" d="M142.17,14.41h.66V15.9a2.67,2.67,0,0,1-1.55.52,2.05,2.05,0,0,1-1.05-.27,2,2,0,0,1-.75-.73,2,2,0,0,1-.27-1,1.86,1.86,0,0,1,.28-1,2,2,0,0,1,.76-.72,2.15,2.15,0,0,1,1.07-.27,2.39,2.39,0,0,1,.83.15,2.19,2.19,0,0,1,.71.42l-.43.55a1.65,1.65,0,0,0-.52-.33,1.52,1.52,0,0,0-.59-.12,1.36,1.36,0,0,0-.68.18A1.31,1.31,0,0,0,140,14.4a1.29,1.29,0,0,0,.18.67,1.38,1.38,0,0,0,.5.49,1.3,1.3,0,0,0,.68.18,1.64,1.64,0,0,0,.42-.06,2,2,0,0,0,.42-.19Z" transform="translate(0 0.52)"/><path class="cls-15" d="M147.55,12.44h.73v3.92h-.72l-2-2.7v2.7h-.73V12.44h.71l2,2.71Z" transform="translate(0 0.52)"/></g></g></svg>