<svg width="169" height="38" viewBox="0 0 169 38" fill="none" xmlns="http://www.w3.org/2000/svg">
<path d="M30.2117 6.83578H32.1081L32.2135 9.13748C32.6876 8.3005 33.3198 7.67276 34.11 7.25427C34.9002 6.78346 35.7957 6.57422 36.7439 6.57422C37.5868 6.62653 38.377 6.78346 39.1145 7.04502C39.7994 7.35889 40.4315 7.77738 40.9583 8.3005C41.4851 8.82361 41.8539 9.50366 42.1173 10.236C42.3807 10.9684 42.5387 11.8577 42.5387 12.7993C42.5387 13.7409 42.3807 14.5779 42.1173 15.3625C41.8539 16.1472 41.4324 16.775 40.9583 17.2981C40.4315 17.8212 39.8521 18.2397 39.1145 18.5535C38.377 18.8674 37.5868 18.972 36.6913 18.972C35.8484 18.972 35.0055 18.7628 34.1626 18.3966C33.3198 18.0304 32.6876 17.4027 32.1608 16.5657V24.3078H30.2117V6.83578V6.83578ZM36.5332 17.0888C37.7449 17.0888 38.6931 16.7226 39.4306 15.938C40.1681 15.2056 40.5369 14.1071 40.5369 12.747C40.5369 11.3346 40.1681 10.2883 39.4306 9.55597C38.6931 8.82361 37.7449 8.45743 36.5332 8.45743C35.9011 8.45743 35.3216 8.56205 34.8475 8.7713C34.3207 8.98055 33.8992 9.29441 33.5305 9.66059C33.1617 10.0268 32.8983 10.4976 32.6876 11.0207C32.4769 11.5438 32.3715 12.1192 32.3715 12.747C32.3715 13.3747 32.4769 13.8978 32.6876 14.4732C32.8983 14.9964 33.1617 15.4672 33.5305 15.8333C33.8992 16.1995 34.3207 16.5134 34.8475 16.7226C35.3743 16.9842 35.9011 17.0888 36.5332 17.0888Z" fill="#7A828B"/>
<path d="M47.4911 18.6582H45.542V1.86621H47.4911V18.6582Z" fill="#7A828B"/>
<path d="M61.0823 18.6583L61.0296 16.5658C60.7662 16.9843 60.5028 17.2982 60.1867 17.6121C59.8706 17.9259 59.5019 18.1352 59.1331 18.3444C58.7644 18.5537 58.3429 18.7106 57.9215 18.7629C57.5001 18.8675 57.0786 18.9199 56.6572 18.9199C55.8143 18.9199 55.0241 18.7629 54.2339 18.5014C53.4964 18.1875 52.8116 17.8213 52.2848 17.2459C51.758 16.7228 51.2838 16.0427 50.9678 15.3104C50.6517 14.5257 50.4937 13.6887 50.4937 12.6948C50.4937 11.7009 50.6517 10.8116 50.9678 10.0269C51.2838 9.24223 51.7053 8.6145 52.2848 8.09138C52.8642 7.56827 53.4964 7.14978 54.2339 6.88822C54.9714 6.62666 55.7616 6.46973 56.6045 6.46973C57.5527 6.46973 58.3956 6.67897 59.1858 7.04515C59.976 7.41133 60.5555 8.03907 61.0296 8.87605V6.73128H62.9787V18.606H61.0823V18.6583ZM56.7099 8.40525C56.1304 8.40525 55.5509 8.50987 55.0241 8.71912C54.4973 8.92836 54.0232 9.18992 53.6544 9.5561C53.2857 9.92228 52.9696 10.3931 52.7589 10.9162C52.5482 11.4916 52.4428 12.0671 52.4428 12.7994C52.4428 13.4795 52.5482 14.0549 52.7589 14.578C52.9696 15.1011 53.2857 15.5719 53.6544 15.9381C54.0232 16.3043 54.4973 16.6181 55.0241 16.8274C55.5509 17.0366 56.1304 17.1413 56.7099 17.1413C57.6581 17.1413 58.501 16.932 59.1331 16.5135C59.7653 16.095 60.2394 15.5196 60.6082 14.8919C60.9242 14.2641 61.0823 13.5318 61.0823 12.7994C61.0823 12.0147 60.9242 11.3347 60.6082 10.707C60.2921 10.0792 59.818 9.50379 59.1331 9.0853C58.501 8.6145 57.7108 8.40525 56.7099 8.40525Z" fill="#7A828B"/>
<path d="M76.6227 17.1416C75.9906 17.7693 75.3058 18.2401 74.5682 18.554C73.8307 18.8678 73.0405 18.9725 72.1976 18.9725C71.3548 18.9725 70.5119 18.8155 69.7744 18.554C69.0369 18.2924 68.352 17.8739 67.7726 17.3508C67.1931 16.8277 66.7716 16.1999 66.4556 15.4153C66.1395 14.6306 65.9814 13.7413 65.9814 12.7997C65.9814 11.8058 66.1395 10.9688 66.4556 10.1841C66.7716 9.39946 67.2458 8.77172 67.7726 8.24861C68.352 7.72549 68.9842 7.307 69.7744 7.04544C70.5119 6.78389 71.3548 6.62695 72.1976 6.62695C73.0405 6.62695 73.778 6.78389 74.5156 7.04544C75.2004 7.35931 75.8852 7.77781 76.5701 8.40554L75.3057 9.71333C74.8843 9.29484 74.4102 8.98097 73.8834 8.82403C73.3566 8.61479 72.8298 8.51017 72.303 8.51017C71.7235 8.51017 71.1441 8.61479 70.6173 8.82403C70.0905 9.03328 69.6163 9.29484 69.2476 9.66102C68.8788 10.0272 68.5627 10.498 68.352 11.0211C68.1413 11.5442 68.036 12.172 68.036 12.852C68.036 13.5321 68.1413 14.1598 68.352 14.7352C68.5627 15.2583 68.8788 15.7291 69.3003 16.0953C69.669 16.4615 70.1431 16.7231 70.6699 16.9323C71.1967 17.1416 71.7235 17.2462 72.303 17.2462C72.8825 17.2462 73.4093 17.1416 73.9888 16.9323C74.5156 16.7231 75.0424 16.4092 75.4638 15.9907L76.6227 17.1416Z" fill="#7A828B"/>
<path d="M89.5818 16.8273C88.9497 17.5596 88.1595 18.0827 87.2112 18.4489C86.263 18.8151 85.3148 18.972 84.4192 18.972C83.5237 18.972 82.6808 18.8151 81.8906 18.5535C81.1004 18.2397 80.4682 17.8735 79.8888 17.2981C79.3093 16.775 78.8879 16.0949 78.5718 15.3102C78.2557 14.5256 78.0977 13.6886 78.0977 12.6947C78.0977 11.8054 78.2557 10.9684 78.5718 10.236C78.8879 9.50366 79.3093 8.82361 79.8361 8.3005C80.3629 7.77738 81.0477 7.30658 81.7852 7.04502C82.5227 6.73115 83.3656 6.57422 84.2612 6.57422C85.1567 6.57422 85.9996 6.73115 86.7898 6.99271C87.58 7.25427 88.2122 7.67276 88.7916 8.24819C89.3184 8.82361 89.7399 9.55597 90.0033 10.393C90.2667 11.2822 90.3193 12.2762 90.214 13.427H80.0468C80.0995 14.0024 80.2575 14.5256 80.4682 14.9964C80.7316 15.4672 81.0477 15.8333 81.4165 16.1472C81.7852 16.4611 82.2594 16.7226 82.7335 16.8796C83.2603 17.0365 83.7871 17.1411 84.3665 17.1411C84.6826 17.1411 85.0514 17.0888 85.4201 17.0365C85.7889 16.9842 86.1577 16.8796 86.4737 16.775C86.7898 16.6703 87.1059 16.5134 87.422 16.3041C87.738 16.0949 87.9488 15.8857 88.1595 15.6764L89.5818 16.8273ZM88.3702 11.8054C88.3175 10.6545 87.9488 9.76522 87.2112 9.18979C86.4737 8.61436 85.5255 8.3005 84.3665 8.3005C83.8397 8.3005 83.3656 8.35281 82.8915 8.50974C82.4174 8.66668 81.996 8.87592 81.6272 9.13748C81.2584 9.45135 80.9424 9.76522 80.679 10.236C80.4156 10.6545 80.2575 11.1776 80.1522 11.7531H88.3702V11.8054Z" fill="#7A828B"/>
<path d="M96.3251 6.78403H100.013V8.458H96.3251V14.9446C96.3251 15.6247 96.4831 16.2001 96.7465 16.6186C97.0099 17.0371 97.484 17.2463 98.2215 17.2463C98.4849 17.2463 98.7483 17.194 99.0644 17.0894C99.3278 16.9848 99.5912 16.8801 99.9073 16.7755L100.487 18.3972C99.6966 18.7634 98.959 18.9726 98.1688 18.9726C96.8519 19.0249 95.9036 18.6587 95.3241 17.9787C94.7447 17.2463 94.4286 16.2524 94.4286 14.9446V8.458H91.9526V6.78403H94.3232V3.59303L96.3251 3.38379V6.78403Z" fill="#F36E21"/>
<path d="M101.803 12.7465C101.803 11.8573 101.961 11.0203 102.277 10.2356C102.593 9.45093 103.015 8.82319 103.594 8.24776C104.121 7.72465 104.806 7.25384 105.543 6.99229C106.281 6.67842 107.124 6.52148 108.019 6.52148C108.915 6.52148 109.758 6.67842 110.495 6.99229C111.286 7.30616 111.918 7.72465 112.497 8.24776C113.077 8.77088 113.498 9.45093 113.814 10.2356C114.13 11.0203 114.288 11.8573 114.288 12.7465C114.288 13.6358 114.13 14.4728 113.814 15.2575C113.498 16.0422 113.077 16.6699 112.497 17.193C111.918 17.7161 111.286 18.1869 110.495 18.4485C109.705 18.7624 108.915 18.9193 108.019 18.9193C107.124 18.9193 106.281 18.7624 105.543 18.4485C104.806 18.1346 104.121 17.7161 103.594 17.193C103.015 16.6699 102.593 15.9899 102.277 15.2575C101.961 14.5251 101.803 13.6882 101.803 12.7465ZM112.234 12.7465C112.234 12.0665 112.128 11.4911 111.918 10.968C111.707 10.4448 111.391 9.97404 111.022 9.60786C110.653 9.24168 110.179 8.92781 109.705 8.71857C109.178 8.50932 108.652 8.4047 108.019 8.4047C107.387 8.4047 106.86 8.50932 106.334 8.71857C105.807 8.92781 105.385 9.24168 105.017 9.60786C104.648 9.97404 104.332 10.4448 104.121 10.968C103.91 11.4911 103.805 12.1188 103.805 12.7465C103.805 13.3743 103.91 13.9497 104.121 14.5251C104.332 15.0483 104.648 15.5191 105.017 15.8852C105.385 16.2514 105.807 16.5653 106.334 16.7745C106.86 16.9838 107.387 17.0884 108.019 17.0884C108.652 17.0884 109.178 16.9838 109.705 16.7745C110.232 16.5653 110.706 16.2514 111.075 15.8852C111.444 15.5191 111.76 15.0483 111.97 14.5251C112.128 14.002 112.234 13.4266 112.234 12.7465Z" fill="#F36E21"/>
<path d="M117.291 6.83578H119.187L119.293 9.13748C119.767 8.3005 120.399 7.67276 121.189 7.25427C121.98 6.78346 122.875 6.57422 123.823 6.57422C124.666 6.62653 125.456 6.78346 126.194 7.04502C126.879 7.35889 127.511 7.77738 128.038 8.3005C128.564 8.82361 128.933 9.50366 129.197 10.236C129.46 10.9684 129.618 11.8577 129.618 12.7993C129.618 13.7409 129.46 14.5779 129.197 15.3625C128.933 16.1472 128.512 16.775 128.038 17.2981C127.511 17.8212 126.931 18.2397 126.194 18.5535C125.456 18.8674 124.666 18.972 123.771 18.972C122.928 18.972 122.085 18.7628 121.242 18.3966C120.399 18.0304 119.767 17.4027 119.24 16.5657V24.3078H117.291V6.83578V6.83578ZM123.613 17.0888C124.824 17.0888 125.772 16.7226 126.51 15.938C127.247 15.2056 127.616 14.1071 127.616 12.747C127.616 11.3346 127.247 10.2883 126.51 9.55597C125.772 8.82361 124.824 8.45743 123.613 8.45743C122.98 8.45743 122.401 8.56205 121.927 8.7713C121.4 8.98055 120.979 9.29441 120.61 9.66059C120.241 10.0268 119.978 10.4976 119.767 11.0207C119.556 11.5438 119.451 12.1192 119.451 12.747C119.451 13.3747 119.556 13.8978 119.767 14.4732C119.978 14.9964 120.241 15.4672 120.61 15.8333C120.979 16.1995 121.4 16.5134 121.927 16.7226C122.454 16.9842 123.033 17.0888 123.613 17.0888Z" fill="#7A828B"/>
<path d="M142.314 18.6583L142.262 16.5658C141.998 16.9843 141.735 17.2982 141.419 17.6121C141.103 17.9259 140.734 18.1352 140.365 18.3444C139.996 18.5537 139.575 18.7106 139.153 18.7629C138.732 18.8675 138.311 18.9199 137.889 18.9199C137.046 18.9199 136.256 18.7629 135.466 18.5014C134.728 18.1875 134.043 17.8213 133.517 17.2459C132.99 16.7228 132.516 16.0427 132.2 15.3104C131.884 14.5257 131.726 13.6887 131.726 12.6948C131.726 11.7009 131.884 10.8116 132.2 10.0269C132.516 9.24223 132.937 8.6145 133.517 8.09138C134.096 7.56827 134.728 7.14978 135.466 6.88822C136.203 6.62666 136.994 6.46973 137.836 6.46973C138.785 6.46973 139.628 6.67897 140.418 7.04515C141.208 7.41133 141.787 8.03907 142.262 8.87605V6.73128H144.211V18.606H142.314V18.6583ZM137.942 8.40525C137.362 8.40525 136.783 8.50987 136.256 8.71912C135.729 8.92836 135.255 9.18992 134.886 9.5561C134.518 9.92228 134.202 10.3931 133.991 10.9162C133.78 11.4916 133.675 12.0671 133.675 12.7994C133.675 13.4795 133.78 14.0549 133.991 14.578C134.202 15.1011 134.518 15.5719 134.886 15.9381C135.255 16.3043 135.729 16.6181 136.256 16.8274C136.783 17.0366 137.362 17.1413 137.942 17.1413C138.89 17.1413 139.733 16.932 140.365 16.5135C140.997 16.095 141.471 15.5196 141.84 14.8919C142.156 14.2641 142.314 13.5318 142.314 12.7994C142.314 12.0147 142.156 11.3347 141.84 10.707C141.524 10.0792 141.05 9.50379 140.365 9.0853C139.733 8.6145 138.89 8.40525 137.942 8.40525Z" fill="#7A828B"/>
<path d="M151.27 24.3085H149.11L151.639 18.5019L146.792 6.83649H149.057L151.428 12.9569L152.745 16.3572L154.009 12.9569L156.643 6.78418H158.803L151.27 24.3085Z" fill="#7A828B"/>
<path d="M101.224 33.8286C101.435 33.4625 101.54 33.044 101.54 32.4685C101.54 31.9454 101.435 31.5792 101.224 31.2131C101.014 30.8992 100.698 30.7423 100.276 30.7423C99.9073 30.7423 99.5912 30.8992 99.3278 31.1608C99.0644 31.4223 98.9064 31.8931 98.9064 32.4685C98.9064 32.9393 98.9591 33.2532 99.0644 33.5671C99.2752 34.0902 99.6966 34.3518 100.276 34.3518C100.645 34.3518 101.014 34.1948 101.224 33.8286ZM98.1162 28.3359H98.9064V30.7423C99.0644 30.533 99.2752 30.3238 99.5386 30.2191C99.802 30.1145 100.065 30.0622 100.329 30.0622C100.908 30.0622 101.435 30.2715 101.804 30.69C102.173 31.1084 102.383 31.6839 102.383 32.4685C102.383 33.2009 102.225 33.8286 101.856 34.3518C101.488 34.8749 100.961 35.0841 100.329 35.0841C99.96 35.0841 99.6439 34.9795 99.3805 34.8226C99.2225 34.7179 99.0644 34.561 98.9064 34.3518V34.9795H98.1689V28.3359H98.1162Z" fill="#7A828B"/>
<path d="M105.965 30.167H106.861C106.756 30.4809 106.492 31.1609 106.123 32.2595C105.807 33.0964 105.597 33.7242 105.386 34.2473C104.912 35.4504 104.596 36.1828 104.385 36.4444C104.174 36.7059 103.858 36.8629 103.384 36.8629C103.279 36.8629 103.173 36.8629 103.121 36.8629C103.068 36.8629 102.963 36.8629 102.91 36.8105V36.0782C103.068 36.1305 103.173 36.1305 103.226 36.1305C103.279 36.1305 103.331 36.1305 103.384 36.1305C103.542 36.1305 103.647 36.1305 103.7 36.0782C103.753 36.0259 103.805 35.9736 103.858 35.9213C103.858 35.9213 103.911 35.7643 104.016 35.5551C104.122 35.3458 104.174 35.1889 104.227 35.0843L102.436 30.2193H103.331L104.596 34.0904L105.965 30.167Z" fill="#7A828B"/>
<path d="M116.238 32.3121C116.238 31.5274 115.975 30.952 115.448 30.5335C114.921 30.1673 114.289 29.958 113.499 29.958C113.13 29.958 112.814 30.0104 112.498 30.115C112.182 30.2196 111.866 30.3765 111.602 30.5335C111.339 30.7427 111.128 30.952 110.97 31.2658C110.812 31.5797 110.654 31.8936 110.601 32.3121H116.238V32.3121ZM117.081 35.7123C116.66 36.1831 116.133 36.5493 115.448 36.8108C114.816 37.0201 114.184 37.177 113.551 37.177C112.919 37.177 112.34 37.0724 111.813 36.8632C111.286 36.6539 110.812 36.3924 110.443 36.0262C110.075 35.66 109.758 35.1892 109.548 34.6661C109.337 34.143 109.232 33.5675 109.232 32.8875C109.232 32.2597 109.337 31.7366 109.548 31.2135C109.758 30.6904 110.075 30.2719 110.443 29.9057C110.812 29.5396 111.286 29.2257 111.76 29.0688C112.287 28.8595 112.867 28.7549 113.446 28.7549C114.078 28.7549 114.658 28.8595 115.184 29.0164C115.711 29.2257 116.185 29.4872 116.554 29.8534C116.923 30.2196 117.186 30.7427 117.397 31.3181C117.555 31.8936 117.608 32.5736 117.555 33.3583H110.601C110.654 33.7245 110.759 34.0906 110.917 34.4045C111.075 34.7184 111.286 34.9799 111.55 35.1892C111.813 35.3984 112.129 35.5554 112.445 35.7123C112.814 35.8169 113.183 35.8692 113.551 35.8692C113.762 35.8692 114.026 35.8692 114.289 35.8169C114.552 35.7646 114.763 35.7123 115.026 35.6077C115.237 35.5031 115.448 35.3984 115.659 35.2938C115.869 35.1892 116.027 35.0323 116.185 34.8753L117.081 35.7123Z" fill="#7A828B"/>
<path d="M119.293 28.9639L120.61 32.0502L121.98 35.5551L123.35 32.1026L124.667 28.9639H126.194L122.718 36.9675H121.243L117.818 28.9639H119.293Z" fill="#7A828B"/>
<path d="M133.359 32.3121C133.359 31.5274 133.095 30.952 132.568 30.5335C132.094 30.1673 131.409 29.958 130.619 29.958C130.251 29.958 129.934 30.0104 129.618 30.115C129.302 30.2196 128.986 30.3765 128.723 30.5335C128.459 30.7427 128.249 30.952 128.091 31.2658C127.933 31.5797 127.775 31.8936 127.722 32.3121H133.359V32.3121ZM134.149 35.7123C133.727 36.1831 133.201 36.5493 132.516 36.8108C131.884 37.0201 131.251 37.177 130.619 37.177C129.987 37.177 129.408 37.0724 128.881 36.8632C128.354 36.6539 127.88 36.3924 127.511 36.0262C127.142 35.66 126.826 35.1892 126.616 34.6661C126.405 34.143 126.3 33.5675 126.3 32.8875C126.3 32.2597 126.405 31.7366 126.616 31.2135C126.826 30.6904 127.09 30.2719 127.511 29.9057C127.88 29.5396 128.354 29.2257 128.828 29.0688C129.355 28.8595 129.934 28.7549 130.514 28.7549C131.146 28.7549 131.726 28.8595 132.252 29.0164C132.779 29.2257 133.253 29.4872 133.622 29.8534C133.991 30.2196 134.254 30.7427 134.465 31.3181C134.623 31.8936 134.676 32.5736 134.623 33.3583H127.669C127.722 33.7245 127.827 34.0906 127.985 34.4045C128.143 34.7184 128.354 34.9799 128.617 35.1892C128.881 35.3984 129.197 35.5554 129.513 35.7123C129.882 35.8169 130.198 35.8692 130.619 35.8692C130.83 35.8692 131.093 35.8692 131.357 35.8169C131.62 35.7646 131.831 35.7123 132.094 35.6077C132.305 35.5031 132.568 35.3984 132.726 35.2938C132.937 35.1892 133.095 35.0323 133.253 34.8753L134.149 35.7123Z" fill="#7A828B"/>
<path d="M137.468 30.115C137.784 29.5919 138.153 29.2257 138.574 29.0688C139.048 28.8595 139.47 28.7549 139.944 28.7549C140.312 28.7549 140.628 28.8072 140.945 28.9118C141.261 29.0164 141.577 29.1734 141.84 29.3826L141.208 30.5335C140.997 30.3765 140.787 30.2719 140.523 30.1673C140.312 30.115 140.049 30.0627 139.786 30.0627C139.47 30.0627 139.153 30.115 138.837 30.2196C138.574 30.3242 138.311 30.4812 138.1 30.6904C137.889 30.8997 137.731 31.1612 137.573 31.4228C137.468 31.7366 137.362 32.0505 137.362 32.4167V36.9155H135.993V28.9641H137.257L137.468 30.115Z" fill="#7A828B"/>
<path d="M146.318 28.9116H148.846V30.0625H146.318V34.4043C146.318 34.8751 146.423 35.2413 146.581 35.5552C146.739 35.8167 147.108 35.9737 147.582 35.9737C147.793 35.9737 147.951 35.9214 148.162 35.8691C148.372 35.8167 148.53 35.7121 148.741 35.6598L149.162 36.7583C148.636 37.0199 148.109 37.1245 147.582 37.1245C146.686 37.1245 146.054 36.9153 145.633 36.4445C145.211 35.9737 145.001 35.2936 145.001 34.4043V30.0102H143.368V28.8593H145.001V26.7146L146.37 26.5576V28.9116H146.318Z" fill="#7A828B"/>
<path d="M156.485 32.3121C156.485 31.5274 156.222 30.952 155.695 30.5335C155.221 30.1673 154.536 29.958 153.746 29.958C153.377 29.958 153.061 30.0104 152.745 30.115C152.429 30.2196 152.113 30.3765 151.85 30.5335C151.586 30.7427 151.375 30.952 151.217 31.2658C151.059 31.5797 150.901 31.8936 150.849 32.3121H156.485V32.3121ZM157.276 35.7123C156.854 36.1831 156.327 36.5493 155.642 36.8108C155.01 37.0201 154.378 37.177 153.746 37.177C153.114 37.177 152.534 37.0724 152.008 36.8632C151.481 36.6539 151.007 36.3924 150.638 36.0262C150.269 35.66 149.953 35.1892 149.742 34.6661C149.532 34.143 149.426 33.5675 149.426 32.8875C149.426 32.2597 149.532 31.7366 149.742 31.2135C149.953 30.6904 150.269 30.2719 150.638 29.9057C151.007 29.5396 151.481 29.2257 151.955 29.0688C152.482 28.8595 153.061 28.7549 153.641 28.7549C154.273 28.7549 154.852 28.8595 155.379 29.0164C155.906 29.2257 156.38 29.4872 156.749 29.8534C157.118 30.2196 157.381 30.7427 157.592 31.3181C157.75 31.8936 157.802 32.5736 157.75 33.3583H150.796C150.849 33.7245 150.954 34.0906 151.112 34.4045C151.27 34.7184 151.481 34.9799 151.744 35.1892C152.008 35.3984 152.324 35.5554 152.64 35.7123C153.008 35.8169 153.377 35.8692 153.746 35.8692C153.957 35.8692 154.22 35.8692 154.484 35.8169C154.747 35.7646 154.958 35.7123 155.221 35.6077C155.432 35.5031 155.695 35.3984 155.853 35.2938C156.064 35.1892 156.222 35.0323 156.38 34.8753L157.276 35.7123Z" fill="#7A828B"/>
<path d="M166.336 35.921C165.915 36.3395 165.441 36.6534 164.914 36.8626C164.387 37.0718 163.86 37.1765 163.281 37.1765C162.702 37.1765 162.122 37.0719 161.648 36.9149C161.121 36.7057 160.7 36.4441 160.278 36.0779C159.91 35.7118 159.593 35.2933 159.383 34.7701C159.172 34.247 159.067 33.6716 159.067 32.9916C159.067 32.3115 159.172 31.7361 159.383 31.213C159.593 30.6899 159.91 30.2714 160.278 29.9052C160.647 29.539 161.121 29.2774 161.648 29.0682C162.175 28.859 162.702 28.8066 163.334 28.8066C163.913 28.8066 164.44 28.9113 164.914 29.1205C165.388 29.3298 165.862 29.6436 166.284 30.0098L165.388 30.8991C165.125 30.6375 164.756 30.4283 164.44 30.2714C164.071 30.1667 163.702 30.0621 163.334 30.0621C162.912 30.0621 162.544 30.1144 162.175 30.2714C161.806 30.4283 161.49 30.5852 161.227 30.8468C160.963 31.1083 160.752 31.4222 160.594 31.7884C160.436 32.1546 160.384 32.5731 160.384 32.9916C160.384 33.4624 160.436 33.8808 160.594 34.247C160.752 34.6132 160.963 34.9271 161.227 35.1886C161.49 35.4502 161.806 35.6071 162.175 35.7641C162.544 35.8687 162.912 35.9733 163.281 35.9733C163.65 35.9733 164.071 35.921 164.44 35.7641C164.809 35.6071 165.125 35.3979 165.441 35.1363L166.336 35.921Z" fill="#7A828B"/>
<path d="M167.653 29.4874V29.6967H167.864C167.916 29.6967 167.916 29.6967 167.969 29.6443L168.022 29.592C168.022 29.5397 168.022 29.5397 167.969 29.5397C167.969 29.5397 167.916 29.4874 167.864 29.4874H167.653V29.4874ZM167.864 29.8013L168.074 30.0105V30.0628H167.916L167.706 29.8013H167.6V30.0628H167.495V29.3828H167.811C167.864 29.3828 167.916 29.3828 167.916 29.4351C167.969 29.4351 167.969 29.4874 168.022 29.4874C168.022 29.5397 168.074 29.5397 168.074 29.592C168.074 29.6443 168.074 29.6443 168.074 29.6967C168.074 29.749 168.022 29.749 168.022 29.8013C167.969 29.749 167.916 29.8013 167.864 29.8013ZM167.232 29.6967C167.232 29.749 167.232 29.8536 167.284 29.9059C167.284 29.9582 167.337 30.0105 167.39 30.0628C167.442 30.1151 167.495 30.1675 167.548 30.1675C167.6 30.2198 167.706 30.2198 167.758 30.2198C167.864 30.2198 167.916 30.2198 167.969 30.1675C168.022 30.1151 168.074 30.1151 168.127 30.0628C168.18 30.0105 168.18 29.9582 168.232 29.9059C168.232 29.8536 168.285 29.749 168.285 29.6967C168.285 29.6443 168.285 29.5397 168.232 29.4874C168.232 29.4351 168.18 29.3828 168.127 29.3305C168.074 29.2782 168.022 29.2258 167.969 29.2258C167.916 29.1735 167.811 29.1735 167.758 29.1735C167.653 29.1735 167.6 29.1735 167.548 29.2258C167.495 29.2782 167.442 29.2782 167.39 29.3305C167.337 29.3828 167.284 29.4351 167.284 29.4874C167.232 29.5397 167.232 29.6443 167.232 29.6967ZM167.758 29.0166C167.864 29.0166 167.969 29.0166 168.022 29.0689C168.127 29.1212 168.18 29.1735 168.232 29.2258C168.285 29.2782 168.338 29.3828 168.338 29.4351C168.391 29.5397 168.391 29.592 168.391 29.6967C168.391 29.8013 168.391 29.8536 168.338 29.9582C168.285 30.0628 168.285 30.1151 168.232 30.1675C168.18 30.2198 168.127 30.2721 168.022 30.3244C167.916 30.3767 167.864 30.3767 167.758 30.3767C167.653 30.3767 167.548 30.3767 167.495 30.3244C167.39 30.2721 167.337 30.2198 167.284 30.1675C167.232 30.1151 167.179 30.0105 167.179 29.9582C167.126 29.8536 167.126 29.8013 167.126 29.6967C167.126 29.592 167.126 29.5397 167.179 29.4351C167.232 29.3305 167.232 29.2782 167.284 29.2258C167.337 29.1735 167.39 29.1212 167.495 29.0689C167.548 29.0689 167.653 29.0166 167.758 29.0166Z" fill="#7A828B"/>
<path d="M25.9446 11.91C25.4705 11.0731 24.3642 10.8115 23.5213 11.2823C22.6784 11.7531 22.415 12.7993 22.8892 13.6363C23.3633 14.4733 24.4696 14.7349 25.3124 14.2641C26.1553 13.7933 26.4187 12.6947 25.9446 11.91Z" fill="#F36E21"/>
<path d="M19.8338 11.3872C19.0963 11.8057 18.8329 12.7473 19.2544 13.532C19.6758 14.2644 20.6767 14.5259 21.4142 14.1074C22.1517 13.6889 22.4151 12.7473 21.9937 11.9627C21.5723 11.2303 20.5713 10.9687 19.8338 11.3872Z" fill="#F36E21"/>
<path d="M16.0933 11.5435C15.4085 11.9097 15.1978 12.7467 15.5665 13.4267C15.9353 14.1068 16.8308 14.316 17.463 13.9499C18.1478 13.5837 18.3585 12.7467 17.9898 12.0666C17.621 11.3866 16.7781 11.1773 16.0933 11.5435Z" fill="#F36E21"/>
<path d="M15.5137 10.6021C16.0931 10.2359 16.3039 9.50355 15.9878 8.92812C15.619 8.35269 14.8815 8.14345 14.2494 8.45732C13.6699 8.8235 13.4592 9.55586 13.7752 10.1313C14.144 10.7067 14.9342 10.916 15.5137 10.6021Z" fill="#F36E21"/>
<path d="M10.5622 8.61417C10.0354 8.92804 9.87735 9.55577 10.1407 10.0789C10.4568 10.602 11.089 10.7589 11.6158 10.4451C12.1426 10.1312 12.3006 9.50346 12.0372 8.98035C11.7211 8.45723 11.089 8.3003 10.5622 8.61417Z" fill="#F36E21"/>
<path d="M8.77102 11.9619C8.34959 12.2234 8.19155 12.7466 8.45494 13.165C8.71834 13.5835 9.24514 13.7405 9.66658 13.4789C10.088 13.2174 10.2461 12.6942 9.98266 12.2758C9.71926 11.9096 9.19246 11.7526 8.77102 11.9619Z" fill="#F36E21"/>
<path d="M10.7199 15.3619C10.3512 15.5711 10.2458 15.9896 10.4565 16.3558C10.6672 16.722 11.0887 16.8266 11.4574 16.6174C11.8262 16.4081 11.9315 15.9896 11.7208 15.6234C11.5628 15.3096 11.0887 15.1526 10.7199 15.3619Z" fill="#F36E21"/>
<path d="M20.3077 10.2356C20.9925 9.86938 21.2032 8.98009 20.8344 8.30004C20.413 7.61999 19.5701 7.41075 18.8853 7.77693C18.2005 8.14311 17.9897 9.0324 18.3585 9.71245C18.7799 10.3925 19.6228 10.6017 20.3077 10.2356Z" fill="#F36E21"/>
<path d="M15.6192 6.9398C15.9879 7.56753 16.8308 7.77678 17.4629 7.4106C18.0951 7.04442 18.3058 6.20743 17.9371 5.5797C17.5683 4.95196 16.7254 4.74271 16.0933 5.10889C15.5138 5.47507 15.2504 6.25975 15.6192 6.9398Z" fill="#F36E21"/>
<path d="M14.0915 4.63875C13.7754 4.06332 13.0379 3.85408 12.4584 4.22026C11.8789 4.53413 11.6682 5.26649 12.037 5.84191C12.353 6.41734 13.1432 6.62658 13.67 6.2604C14.1968 5.94654 14.4076 5.21418 14.0915 4.63875Z" fill="#F36E21"/>
<path d="M9.77187 7.25445C10.2987 6.94058 10.5094 6.26053 10.1933 5.6851C9.87723 5.16199 9.19239 4.95274 8.61291 5.26661C8.08612 5.58048 7.8754 6.26053 8.19148 6.83595C8.50756 7.35907 9.24507 7.56831 9.77187 7.25445Z" fill="#F36E21"/>
<path d="M6.92722 9.86888C7.40134 9.60732 7.55938 8.97959 7.29598 8.50878C7.03258 8.03798 6.40043 7.88105 5.92631 8.1426C5.45219 8.40416 5.29415 9.0319 5.55755 9.5027C5.82095 9.9735 6.45311 10.1304 6.92722 9.86888Z" fill="#F36E21"/>
<path d="M6.13703 12.3286C5.92631 11.9102 5.39952 11.8055 4.97808 12.0148C4.55664 12.224 4.45128 12.7471 4.662 13.1133C4.87272 13.5318 5.39952 13.6364 5.82095 13.4272C6.24239 13.2179 6.34775 12.7471 6.13703 12.3286Z" fill="#F36E21"/>
<path d="M7.03243 16.1469C6.82171 15.833 6.40028 15.6761 6.0842 15.8853C5.76812 16.0946 5.61008 16.5131 5.8208 16.8269C6.03152 17.1408 6.45296 17.2977 6.76903 17.0885C7.13779 16.8792 7.24315 16.4607 7.03243 16.1469Z" fill="#F36E21"/>
<path d="M8.87626 18.6577C8.56018 18.8147 8.45482 19.2331 8.66554 19.547C8.82358 19.8609 9.24501 19.9655 9.56109 19.7563C9.87717 19.5993 9.98253 19.1808 9.82449 18.867C9.61377 18.6054 9.19233 18.5008 8.87626 18.6577Z" fill="#F36E21"/>
<path d="M12.722 19.7564C12.4586 19.9133 12.3532 20.2272 12.5113 20.4887C12.6693 20.7503 12.9854 20.8549 13.2488 20.698C13.5122 20.541 13.6175 20.2272 13.4595 19.9656C13.3541 19.704 12.9854 19.5994 12.722 19.7564Z" fill="#F36E21"/>
<path d="M16.5674 18.815C16.3567 18.9196 16.2513 19.2335 16.4093 19.4427C16.5147 19.652 16.8308 19.7566 17.0415 19.5997C17.2522 19.4951 17.3576 19.1812 17.1995 18.9719C17.0942 18.7627 16.8308 18.7104 16.5674 18.815Z" fill="#F36E21"/>
<path d="M24.5222 10.2353C25.2598 9.81686 25.5231 8.82294 25.1017 8.09058C24.6803 7.35822 23.6794 7.09666 22.9418 7.51515C22.1517 7.93365 21.9409 8.92756 22.3624 9.65992C22.7838 10.3923 23.7847 10.6538 24.5222 10.2353Z" fill="#F36E21"/>
<path d="M22.4676 6.78339C23.2051 6.3649 23.4158 5.4756 23.0471 4.74324C22.6256 4.01088 21.6774 3.80164 20.9926 4.22013C20.2551 4.63862 20.0443 5.52791 20.4658 6.26027C20.8345 6.94032 21.7828 7.20188 22.4676 6.78339Z" fill="#F36E21"/>
<path d="M19.3597 4.16725C19.9919 3.80107 20.2553 2.96408 19.8865 2.33635C19.5178 1.70861 18.6749 1.44705 18.0428 1.86554C17.4106 2.23172 17.1472 3.06871 17.516 3.69644C17.8847 4.32418 18.7276 4.53343 19.3597 4.16725Z" fill="#F36E21"/>
<path d="M15.6193 2.75519C16.2514 2.38901 16.4622 1.60434 16.0934 1.02892C15.7246 0.401179 14.9345 0.191933 14.3023 0.558114C13.6701 0.924294 13.4594 1.70897 13.8282 2.28439C14.1969 2.91213 14.9871 3.12138 15.6193 2.75519Z" fill="#F36E21"/>
<path d="M11.6157 2.65093C12.1425 2.33706 12.3532 1.65701 12.0371 1.08159C11.721 0.558472 11.0362 0.349226 10.4567 0.663095C9.87725 0.976964 9.71921 1.65701 10.0353 2.23244C10.3514 2.80786 11.0362 2.9648 11.6157 2.65093Z" fill="#F36E21"/>
<path d="M8.24425 2.49391C7.92817 1.9708 7.29602 1.81386 6.76922 2.07542C6.24242 2.38929 6.08438 3.01703 6.34778 3.54014C6.66386 4.06326 7.29602 4.22019 7.82281 3.90632C8.34961 3.64477 8.56033 3.01703 8.24425 2.49391Z" fill="#F36E21"/>
<path d="M4.76737 6.31203C5.24148 6.05047 5.39952 5.47504 5.13612 5.00424C4.87273 4.58575 4.29325 4.42882 3.81913 4.69037C3.34501 4.95193 3.18698 5.52736 3.45037 5.99816C3.71377 6.41665 4.29325 6.57359 4.76737 6.31203Z" fill="#F36E21"/>
<path d="M1.8699 8.09076C1.44846 8.35232 1.29042 8.87544 1.55382 9.29393C1.81722 9.71242 2.34402 9.86935 2.76545 9.6078C3.18689 9.34624 3.34493 8.82312 3.08153 8.40463C2.81813 7.98614 2.29134 7.82921 1.8699 8.09076Z" fill="#F36E21"/>
<path d="M2.29133 12.3809C2.08061 12.0147 1.6065 11.9101 1.23774 12.1193C0.868981 12.3286 0.763621 12.7994 0.97434 13.1656C1.18506 13.5317 1.65918 13.6364 2.02793 13.4271C2.34401 13.2179 2.50205 12.7471 2.29133 12.3809Z" fill="#F36E21"/>
<path d="M1.92282 15.9373C1.60674 16.1466 1.4487 16.5651 1.65942 16.8789C1.87014 17.2451 2.29158 17.3497 2.66034 17.1405C3.0291 16.9313 3.13445 16.5128 2.92374 16.1989C2.71302 15.885 2.29158 15.7804 1.92282 15.9373Z" fill="#F36E21"/>
<path d="M3.97695 19.4431C3.66087 19.6001 3.60819 19.9662 3.76623 20.2801C3.92427 20.594 4.29303 20.6463 4.6091 20.4893C4.92518 20.3324 5.03054 19.9662 4.81982 19.6524C4.6091 19.3385 4.24035 19.2862 3.97695 19.4431Z" fill="#F36E21"/>
<path d="M7.03278 22.0054C6.76938 22.1623 6.66402 22.4762 6.82206 22.7377C6.9801 22.9993 7.29617 23.1039 7.55957 22.947C7.82297 22.79 7.92833 22.4762 7.77029 22.2146C7.61225 21.9531 7.29617 21.8484 7.03278 22.0054Z" fill="#F36E21"/>
<path d="M10.773 23.4183C10.5622 23.523 10.4569 23.8368 10.6149 24.0461C10.7203 24.2553 11.0363 24.3599 11.2471 24.203C11.4578 24.0984 11.5631 23.7845 11.4051 23.5753C11.2997 23.366 11.0363 23.2614 10.773 23.4183Z" fill="#F36E21"/>
<path d="M14.8816 23.3658C14.6709 23.4704 14.5655 23.7843 14.7236 23.9935C14.8289 24.2028 15.145 24.3074 15.3557 24.1505C15.5664 24.0458 15.6718 23.732 15.5137 23.5227C15.4084 23.3135 15.145 23.2612 14.8816 23.3658Z" fill="#F36E21"/>
<path d="M18.5169 22.1097C18.3062 22.2144 18.2535 22.4759 18.3588 22.6852C18.4642 22.8944 18.7276 22.9467 18.9383 22.8421C19.149 22.7375 19.2017 22.4759 19.0963 22.2667C18.991 22.0574 18.7276 21.9528 18.5169 22.1097Z" fill="#F36E21"/>
<path d="M21.625 19.6521C21.467 19.7567 21.4143 19.966 21.5197 20.1229C21.625 20.2798 21.8357 20.3321 21.9938 20.2275C22.1518 20.1229 22.2045 19.9136 22.0991 19.7567C21.9938 19.5998 21.7831 19.5475 21.625 19.6521Z" fill="#F36E21"/>
</svg>
