<svg width="24" height="24" viewBox="0 0 24 24" fill="none" xmlns="http://www.w3.org/2000/svg">
<path d="M13.875 2.25C13.875 3.28552 13.0355 4.125 12 4.125C10.9645 4.125 10.125 3.28552 10.125 2.25C10.125 1.21448 10.9645 0.375 12 0.375C13.0355 0.375 13.875 1.21448 13.875 2.25ZM12 19.875C10.9645 19.875 10.125 20.7145 10.125 21.75C10.125 22.7855 10.9645 23.625 12 23.625C13.0355 23.625 13.875 22.7855 13.875 21.75C13.875 20.7145 13.0355 19.875 12 19.875ZM23.625 12C23.625 10.9645 22.7855 10.125 21.75 10.125C20.7145 10.125 19.875 10.9645 19.875 12C19.875 13.0355 20.7145 13.875 21.75 13.875C22.7855 13.875 23.625 13.0355 23.625 12ZM4.125 12C4.125 10.9645 3.28552 10.125 2.25 10.125C1.21448 10.125 0.375 10.9645 0.375 12C0.375 13.0355 1.21448 13.875 2.25 13.875C3.28552 13.875 4.125 13.0355 4.125 12ZM5.10572 3.23072C4.0702 3.23072 3.23072 4.0702 3.23072 5.10572C3.23072 6.14123 4.0702 6.98072 5.10572 6.98072C6.14123 6.98072 6.98072 6.14123 6.98072 5.10572C6.98072 4.07016 6.14123 3.23072 5.10572 3.23072ZM18.8943 17.0193C17.8588 17.0193 17.0193 17.8588 17.0193 18.8943C17.0193 19.9298 17.8588 20.7693 18.8943 20.7693C19.9298 20.7693 20.7693 19.9298 20.7693 18.8943C20.7693 17.8588 19.9298 17.0193 18.8943 17.0193ZM5.10572 17.0193C4.0702 17.0193 3.23072 17.8588 3.23072 18.8943C3.23072 19.9298 4.0702 20.7693 5.10572 20.7693C6.14123 20.7693 6.98072 19.9298 6.98072 18.8943C6.98072 17.8588 6.14123 17.0193 5.10572 17.0193Z" fill="#97A6BA"/>
</svg>
