<svg width="32" height="30" viewBox="0 0 32 30" fill="none" xmlns="http://www.w3.org/2000/svg">
<path d="M30.9528 14.3339C30.3676 13.2935 29.0022 12.9684 27.9618 13.5536C26.9215 14.1388 26.5964 15.4393 27.1816 16.4796C27.7668 17.52 29.1322 17.8451 30.1726 17.2599C31.2129 16.6747 31.538 15.3092 30.9528 14.3339Z" fill="white"/>
<path d="M23.4108 13.6838C22.5005 14.204 22.1753 15.3744 22.6955 16.3497C23.2157 17.26 24.4511 17.5851 25.3614 17.0649C26.2717 16.5448 26.5968 15.3744 26.0766 14.399C25.5565 13.4887 24.3211 13.1636 23.4108 13.6838Z" fill="white"/>
<path d="M18.7937 13.8788C17.9484 14.334 17.6883 15.3743 18.1435 16.2196C18.5986 17.0649 19.704 17.325 20.4843 16.8698C21.3296 16.4147 21.5896 15.3743 21.1345 14.5291C20.6793 13.6838 19.639 13.4237 18.7937 13.8788Z" fill="white"/>
<path d="M18.0779 12.7084C18.7931 12.2533 19.0532 11.343 18.6631 10.6277C18.208 9.9125 17.2976 9.65241 16.5174 10.0425C15.8021 10.4977 15.5421 11.408 15.9322 12.1232C16.3873 12.8385 17.3627 13.0986 18.0779 12.7084Z" fill="white"/>
<path d="M11.9666 10.2373C11.3164 10.6274 11.1213 11.4077 11.4464 12.0579C11.8366 12.7081 12.6168 12.9032 13.267 12.513C13.9173 12.1229 14.1123 11.3426 13.7872 10.6924C13.3971 10.0422 12.6168 9.84715 11.9666 10.2373Z" fill="white"/>
<path d="M9.7561 14.3987C9.23593 14.7238 9.04086 15.374 9.36597 15.8942C9.69108 16.4144 10.3413 16.6095 10.8615 16.2843C11.3816 15.9592 11.5767 15.309 11.2516 14.7889C10.9265 14.3337 10.2763 14.1386 9.7561 14.3987Z" fill="white"/>
<path d="M12.1618 18.6253C11.7066 18.8853 11.5766 19.4055 11.8367 19.8607C12.0967 20.3158 12.6169 20.4459 13.0721 20.1858C13.5272 19.9257 13.6573 19.4055 13.3972 18.9504C13.2021 18.5602 12.6169 18.3652 12.1618 18.6253Z" fill="white"/>
<path d="M23.9956 12.2532C24.8409 11.7981 25.101 10.6927 24.6458 9.84742C24.1256 9.00213 23.0853 8.74205 22.24 9.1972C21.3947 9.65235 21.1346 10.7577 21.5898 11.603C22.11 12.4483 23.1503 12.7084 23.9956 12.2532Z" fill="white"/>
<path d="M18.2081 8.15695C18.6633 8.93721 19.7036 9.1973 20.4839 8.74214C21.2641 8.28699 21.5242 7.24665 21.0691 6.46639C20.6139 5.68612 19.5736 5.42604 18.7933 5.88119C18.0781 6.33634 17.7529 7.31167 18.2081 8.15695Z" fill="white"/>
<path d="M16.3228 5.29544C15.9327 4.5802 15.0224 4.32011 14.3072 4.77526C13.5919 5.16539 13.3318 6.0757 13.787 6.79093C14.1771 7.50617 15.1524 7.76626 15.8027 7.31111C16.4529 6.92098 16.713 6.01067 16.3228 5.29544Z" fill="white"/>
<path d="M10.9914 8.5467C11.6416 8.15657 11.9017 7.31129 11.5115 6.59605C11.1214 5.94584 10.2761 5.68575 9.5609 6.07588C8.91068 6.46601 8.65059 7.31129 9.04072 8.02653C9.43085 8.67675 10.3412 8.93683 10.9914 8.5467Z" fill="white"/>
<path d="M7.47999 11.7974C8.06519 11.4723 8.26025 10.6921 7.93514 10.1069C7.61004 9.52169 6.82978 9.32662 6.24458 9.65173C5.65938 9.97684 5.46432 10.7571 5.78943 11.3423C6.11454 11.9275 6.8948 12.1226 7.47999 11.7974Z" fill="white"/>
<path d="M6.50436 14.8542C6.24428 14.334 5.59406 14.2039 5.07388 14.464C4.55371 14.7241 4.42367 15.3743 4.68375 15.8295C4.94384 16.3497 5.59406 16.4797 6.11423 16.2196C6.63441 15.9595 6.76445 15.3743 6.50436 14.8542Z" fill="white"/>
<path d="M7.61002 19.6008C7.34993 19.2106 6.82976 19.0156 6.43963 19.2757C6.0495 19.5357 5.85443 20.0559 6.11452 20.446C6.37461 20.8362 6.89478 21.0312 7.28491 20.7712C7.74006 20.5111 7.87011 19.9909 7.61002 19.6008Z" fill="white"/>
<path d="M9.88563 22.7215C9.4955 22.9166 9.36546 23.4368 9.62555 23.8269C9.82061 24.217 10.3408 24.3471 10.7309 24.087C11.121 23.8919 11.2511 23.3717 11.056 22.9816C10.7959 22.6565 10.2758 22.5265 9.88563 22.7215Z" fill="white"/>
<path d="M14.633 24.0868C14.3079 24.2818 14.1778 24.672 14.3729 24.9971C14.568 25.3222 14.9581 25.4522 15.2832 25.2572C15.6083 25.0621 15.7384 24.672 15.5433 24.3469C15.4132 24.0217 14.9581 23.8917 14.633 24.0868Z" fill="white"/>
<path d="M19.3788 22.9166C19.1187 23.0466 18.9887 23.4368 19.1838 23.6968C19.3138 23.9569 19.7039 24.087 19.964 23.8919C20.2241 23.7619 20.3542 23.3717 20.1591 23.1116C20.029 22.8516 19.7039 22.7865 19.3788 22.9166Z" fill="white"/>
<path d="M29.197 12.2534C30.1073 11.7332 30.4324 10.4978 29.9122 9.58751C29.3921 8.67721 28.1566 8.3521 27.2463 8.87228C26.271 9.39245 26.0109 10.6279 26.5311 11.5382C27.0513 12.4485 28.2867 12.7736 29.197 12.2534Z" fill="white"/>
<path d="M26.6617 7.96192C27.572 7.44175 27.8321 6.33638 27.377 5.42608C26.8568 4.51577 25.6864 4.25568 24.8411 4.77586C23.9308 5.29603 23.6707 6.4014 24.1909 7.3117C24.646 8.15699 25.8164 8.4821 26.6617 7.96192Z" fill="white"/>
<path d="M22.8256 4.7105C23.6059 4.25534 23.931 3.215 23.4758 2.43474C23.0207 1.65448 21.9803 1.32937 21.2 1.84954C20.4198 2.30469 20.0947 3.34504 20.5498 4.1253C21.005 4.90556 22.0453 5.16565 22.8256 4.7105Z" fill="white"/>
<path d="M18.2081 2.95487C18.9884 2.49972 19.2485 1.5244 18.7933 0.809159C18.3382 0.0288985 17.3629 -0.231188 16.5826 0.223964C15.8023 0.679116 15.5422 1.65444 15.9974 2.36968C16.4526 3.14994 17.4279 3.41003 18.2081 2.95487Z" fill="white"/>
<path d="M13.2673 2.82502C13.9176 2.43489 14.1776 1.58961 13.7875 0.874373C13.3974 0.224156 12.5521 -0.0359304 11.8369 0.3542C11.1216 0.74433 10.9266 1.58961 11.3167 2.30485C11.7068 3.02009 12.5521 3.21515 13.2673 2.82502Z" fill="white"/>
<path d="M9.10557 2.62969C8.71544 1.97947 7.93518 1.78441 7.28496 2.10952C6.63475 2.49965 6.43968 3.27991 6.76479 3.93012C7.15492 4.58034 7.93518 4.77541 8.5854 4.38528C9.23562 4.06017 9.4957 3.27991 9.10557 2.62969Z" fill="white"/>
<path d="M4.81438 7.37676C5.39958 7.05165 5.59465 6.33642 5.26954 5.75122C4.94443 5.23105 4.22919 5.03598 3.64399 5.36109C3.0588 5.6862 2.86373 6.40144 3.18884 6.98663C3.51395 7.50681 4.22919 7.70187 4.81438 7.37676Z" fill="white"/>
<path d="M1.23755 9.58668C0.717375 9.91178 0.52231 10.562 0.847419 11.0822C1.17253 11.6023 1.82274 11.7974 2.34292 11.4723C2.86309 11.1472 3.05816 10.497 2.73305 9.97681C2.40794 9.45663 1.75772 9.26157 1.23755 9.58668Z" fill="white"/>
<path d="M1.7581 14.9186C1.49801 14.4635 0.912818 14.3334 0.457666 14.5935C0.00251452 14.8536 -0.127529 15.4388 0.132558 15.8939C0.392645 16.3491 0.97784 16.4791 1.43299 16.219C1.82312 15.959 2.01819 15.3738 1.7581 14.9186Z" fill="white"/>
<path d="M1.30291 19.3406C0.912779 19.6007 0.717714 20.1209 0.9778 20.511C1.23789 20.9661 1.75806 21.0962 2.21321 20.8361C2.66836 20.576 2.79841 20.0558 2.53832 19.6657C2.27823 19.2756 1.75806 19.1455 1.30291 19.3406Z" fill="white"/>
<path d="M3.83926 23.6964C3.44913 23.8914 3.38411 24.3466 3.57917 24.7367C3.77424 25.1268 4.22939 25.1919 4.61952 24.9968C5.00965 24.8017 5.13969 24.3466 4.87961 23.9564C4.61952 23.5663 4.16437 23.5013 3.83926 23.6964Z" fill="white"/>
<path d="M7.61053 26.8827C7.28542 27.0777 7.15537 27.4679 7.35044 27.793C7.5455 28.1181 7.93564 28.2481 8.26074 28.0531C8.58585 27.858 8.7159 27.4679 8.52083 27.1428C8.32577 26.8176 7.93564 26.6876 7.61053 26.8827Z" fill="white"/>
<path d="M12.2265 28.6388C11.9664 28.7689 11.8364 29.159 12.0314 29.4191C12.1615 29.6792 12.5516 29.8092 12.8117 29.6142C13.0718 29.4841 13.2018 29.094 13.0067 28.8339C12.8767 28.5738 12.5516 28.4438 12.2265 28.6388Z" fill="white"/>
<path d="M17.2978 28.5738C17.0377 28.7039 16.9076 29.094 17.1027 29.3541C17.2328 29.6142 17.6229 29.7442 17.883 29.5491C18.1431 29.4191 18.2731 29.029 18.078 28.7689C17.948 28.5088 17.6229 28.4438 17.2978 28.5738Z" fill="white"/>
<path d="M21.7845 27.0129C21.5244 27.1429 21.4594 27.468 21.5894 27.7281C21.7195 27.9882 22.0446 28.0532 22.3047 27.9232C22.5648 27.7931 22.6298 27.468 22.4997 27.2079C22.3697 26.9478 22.0446 26.8178 21.7845 27.0129Z" fill="white"/>
<path d="M25.6215 23.9573C25.4265 24.0873 25.3614 24.3474 25.4915 24.5425C25.6215 24.7376 25.8816 24.8026 26.0767 24.6725C26.2717 24.5425 26.3368 24.2824 26.2067 24.0873C26.0767 23.8923 25.8166 23.8273 25.6215 23.9573Z" fill="white"/>
</svg>
