<svg width="63" height="62" viewBox="0 0 63 62" fill="none" xmlns="http://www.w3.org/2000/svg">
<path d="M57.3731 34.7164C58.4522 32.9181 59.0625 31 59.0625 28.6811C59.0625 23.3511 54.4829 18.3179 48.5026 18.3179H44.0139C44.6193 16.7666 45.1028 14.9115 45.1028 12.6821C45.1028 3.86725 40.4652 0 33.3802 0C25.7996 0 26.232 11.4958 24.5503 13.1508C21.7514 15.9053 18.4453 21.1971 16.0896 23.25H3.9375C1.76289 23.25 0 24.9849 0 27.125V56.1875C0 58.3276 1.76289 60.0625 3.9375 60.0625H11.8125C13.645 60.0625 15.185 58.8305 15.6242 57.1623C21.1009 57.2835 24.8601 61.9988 37.5022 61.9988C38.3906 61.9988 39.375 62 40.2363 62C49.7253 62 54.0159 57.2261 54.1332 50.4561C55.7721 48.225 56.631 45.2343 56.2669 42.3441C57.4794 40.1096 57.9482 37.4588 57.3731 34.7164ZM49.7749 41.2348C51.3204 43.7936 49.93 47.2181 48.0596 48.2062C49.0071 54.1132 45.893 56.1863 41.5234 56.1863H36.8698C28.0548 56.1863 22.3467 51.6065 15.75 51.6065V29.0625H17.0937C20.5833 29.0625 25.4584 20.4782 28.7265 17.2607C32.2161 13.8265 31.0533 8.10238 33.3802 5.8125C39.1966 5.8125 39.1966 9.80617 39.1966 12.6821C39.1966 17.4254 35.707 19.5506 35.707 24.1304H48.5026C51.1001 24.1304 53.1452 26.4202 53.1562 28.7101C53.1673 30.9988 51.5788 33.2887 50.416 33.2887C52.0758 35.0512 52.4304 38.7665 49.7749 41.2348ZM10.8281 52.3125C10.8281 53.9176 9.50599 55.2188 7.875 55.2188C6.24401 55.2188 4.92188 53.9176 4.92188 52.3125C4.92188 50.7074 6.24401 49.4062 7.875 49.4062C9.50599 49.4062 10.8281 50.7074 10.8281 52.3125Z" fill="white"/>
</svg>
